<?xml version="1.0" encoding="UTF-8"?> <svg xmlns="http://www.w3.org/2000/svg" width="1593.08" height="913.09" viewBox="0 0 1593.08 913.09"> <defs> <style> .cls-1 { fill: #6e52ff; } .cls-2 { fill: #4c3edb; } .cls-3 { fill: #fbf8ff; stroke: #a6a4f7; stroke-width: 3.01px; } .cls-11, .cls-12, .cls-13, .cls-15, .cls-18, .cls-20, .cls-3 { stroke-miterlimit: 10; } .cls-4 { fill: #7d7def; } .cls-5 { fill: #e9e1f4; } .cls-6 { fill: #ffe631; } .cls-7 { fill: #6f6cff; } .cls-8 { fill: #ff7155; } .cls-9 { fill: #f6a915; } .cls-10 { fill: #4b53e4; } .cls-11, .cls-12, .cls-13 { fill: none; stroke-width: 2.8px; } .cls-11 { stroke: #221660; } .cls-12 { stroke: #222dff; } .cls-13 { stroke: #070707; } .cls-14 { fill: #070707; } .cls-15, .cls-18, .cls-20 { stroke: #000; } .cls-16 { fill: #ffbd86; } .cls-17 { fill: #fff; } .cls-18 { stroke-width: 0.99px; } .cls-19 { fill: #fbffae; } .cls-20 { stroke-width: 0.89px; } .cls-21 { fill: #cd8860; } .cls-22 { fill: #9b6546; } </style> </defs> <g id="Layer_13" data-name="Layer 13"> <g> <rect class="cls-1" x="914.31" y="79.42" width="532.71" height="383.37" rx="30.54"></rect> <path class="cls-2" d="M949.21,201.1V158a30.54,30.54,0,0,1,30.53-30.54h471.63A30.54,30.54,0,0,1,1481.91,158V201.1Z" transform="translate(-34.89 -48.04)"></path> </g> </g> <g id="Layer_1" data-name="Layer 1"> <path class="cls-3" d="M1241.29,453.45V853.81a18.63,18.63,0,0,1-18.63,18.63H612.18a18.63,18.63,0,0,1-18.63-18.63V453.45a43,43,0,0,1,43-43h561.66A43,43,0,0,1,1241.29,453.45Z" transform="translate(-34.89 -48.04)"></path> <g> <path class="cls-4" d="M1241.29,453.45v1.81H593.55v-1.81a43,43,0,0,1,43-43h561.66A43,43,0,0,1,1241.29,453.45Z" transform="translate(-34.89 -48.04)"></path> <path d="M1238.87,453.45v1.81l2.42-2.42h-638c-2.85,0-5.82-.24-8.66,0-.36,0-.74,0-1.1,0l2.42,2.42c0-9.87,2.56-19.23,8.79-27.05a41,41,0,0,1,26.19-15,68.36,68.36,0,0,1,9.7-.37h556.54c11.64,0,22.6,4.27,30.66,12.81a41,41,0,0,1,11,27.8c0,3.12,4.88,3.13,4.85,0-.22-20.81-14.62-39.55-35.08-44.27a60.94,60.94,0,0,0-13.86-1.2H636.91a46.12,46.12,0,0,0-38.69,21.08c-5.07,7.92-7.1,16.89-7.1,26.2a2.46,2.46,0,0,0,2.43,2.43H1215c8.39,0,16.8.16,25.19,0h1.1a2.47,2.47,0,0,0,2.43-2.43v-1.81C1243.72,450.33,1238.87,450.32,1238.87,453.45Z" transform="translate(-34.89 -48.04)"></path> </g> <path d="M738.45,494.81H634.66c-2.91,0-5.65-.15-8.24-1.77-7.34-4.59-7-15.71.56-19.89,2.5-1.4,5.1-1.45,7.83-1.45h100c1.45,0,2.91-.06,4.36,0,8.64.46,13.64,10.42,9.09,17.69a11.67,11.67,0,0,1-9.78,5.4,1.25,1.25,0,0,0,0,2.5,14.06,14.06,0,1,0-.21-28.11c-6,0-11.91,0-17.86,0H650.93c-6,0-12.07,0-18.11,0a14.05,14.05,0,0,0-.94,28.09c5.08.27,10.23,0,15.31,0h91.26A1.25,1.25,0,0,0,738.45,494.81Z" transform="translate(-34.89 -48.04)"></path> <g> <path class="cls-5" d="M994.08,487.27H959.82a5.51,5.51,0,0,1-5.51-5.51h0a5.52,5.52,0,0,1,5.51-5.52h34.26a5.52,5.52,0,0,1,5.52,5.52h0A5.52,5.52,0,0,1,994.08,487.27Z" transform="translate(-34.89 -48.04)"></path> <path class="cls-5" d="M1058.86,487.27H1024.6a5.51,5.51,0,0,1-5.51-5.51h0a5.52,5.52,0,0,1,5.51-5.52h34.26a5.52,5.52,0,0,1,5.52,5.52h0A5.52,5.52,0,0,1,1058.86,487.27Z" transform="translate(-34.89 -48.04)"></path> <path class="cls-5" d="M1124.61,487.27h-34.26a5.51,5.51,0,0,1-5.51-5.51h0a5.52,5.52,0,0,1,5.51-5.52h34.26a5.52,5.52,0,0,1,5.52,5.52h0A5.52,5.52,0,0,1,1124.61,487.27Z" transform="translate(-34.89 -48.04)"></path> <path class="cls-5" d="M1189.39,487.27h-34.26a5.51,5.51,0,0,1-5.51-5.51h0a5.52,5.52,0,0,1,5.51-5.52h34.26a5.51,5.51,0,0,1,5.51,5.52h0A5.51,5.51,0,0,1,1189.39,487.27Z" transform="translate(-34.89 -48.04)"></path> </g> <rect class="cls-5" x="615.98" y="497.64" width="266.55" height="174.32" rx="6.51"></rect> <rect class="cls-5" x="937.14" y="497.64" width="154.07" height="27.49" rx="5.06"></rect> <g> <path class="cls-5" d="M1080,606.35h-103a4.89,4.89,0,0,1-4.88-4.88h0a4.89,4.89,0,0,1,4.88-4.89h103a4.89,4.89,0,0,1,4.89,4.89h0A4.89,4.89,0,0,1,1080,606.35Z" transform="translate(-34.89 -48.04)"></path> <path class="cls-5" d="M1183.06,630H976.91a4.89,4.89,0,0,1-4.88-4.89h0a4.89,4.89,0,0,1,4.88-4.88h206.15a4.88,4.88,0,0,1,4.88,4.88h0A4.88,4.88,0,0,1,1183.06,630Z" transform="translate(-34.89 -48.04)"></path> <path class="cls-5" d="M1183.06,653.55H976.91a4.89,4.89,0,0,1-4.88-4.89h0a4.89,4.89,0,0,1,4.88-4.88h206.15a4.88,4.88,0,0,1,4.88,4.88h0A4.88,4.88,0,0,1,1183.06,653.55Z" transform="translate(-34.89 -48.04)"></path> <path class="cls-5" d="M1183.06,677.14H976.91a4.88,4.88,0,0,1-4.88-4.88h0a4.88,4.88,0,0,1,4.88-4.88h206.15a4.87,4.87,0,0,1,4.88,4.88h0A4.87,4.87,0,0,1,1183.06,677.14Z" transform="translate(-34.89 -48.04)"></path> </g> <path d="M1041.88,726.44h-28.62c-10.16,0-20.33.11-30.49,0a9.38,9.38,0,0,1-3.61-18.08,12.75,12.75,0,0,1,4.93-.67h57.25a9.78,9.78,0,0,1,7.39,3,9.38,9.38,0,0,1-6.85,15.77,1.25,1.25,0,0,0,0,2.5,11.88,11.88,0,0,0,6.36-21.9c-3.7-2.38-8.3-1.85-12.49-1.85h-41.3c-3.87,0-7.75,0-11.63,0a12.11,12.11,0,0,0-10,5.23,12,12,0,0,0,.58,14.06,12.12,12.12,0,0,0,9.53,4.46h59A1.25,1.25,0,0,0,1041.88,726.44Z" transform="translate(-34.89 -48.04)"></path> <g> <g> <path class="cls-6" d="M1132.38,432.84a5.61,5.61,0,1,1-5.6-5.61A5.6,5.6,0,0,1,1132.38,432.84Z" transform="translate(-34.89 -48.04)"></path> <path d="M1130,432.84c-.22,4.07-6.36,4.11-6.36,0s6.14-4.08,6.36,0c.16,3.1,5,3.12,4.85,0a8,8,0,1,0-8.34,8c4.66.21,8.1-3.56,8.34-8C1135,429.72,1130.12,429.72,1130,432.84Z" transform="translate(-34.89 -48.04)"></path> </g> <g> <path class="cls-6" d="M1163,432.84a5.61,5.61,0,1,1-5.6-5.61A5.6,5.6,0,0,1,1163,432.84Z" transform="translate(-34.89 -48.04)"></path> <path d="M1160.61,432.84c-.22,4.07-6.36,4.11-6.36,0s6.14-4.08,6.36,0c.16,3.1,5,3.12,4.85,0a8,8,0,1,0-8.34,8c4.66.21,8.1-3.56,8.34-8C1165.63,429.72,1160.77,429.72,1160.61,432.84Z" transform="translate(-34.89 -48.04)"></path> </g> <g> <path class="cls-6" d="M1192.33,432.84a5.61,5.61,0,1,1-5.61-5.61A5.61,5.61,0,0,1,1192.33,432.84Z" transform="translate(-34.89 -48.04)"></path> <path d="M1189.9,432.84c-.22,4.07-6.36,4.11-6.36,0s6.14-4.08,6.36,0c.17,3.1,5,3.12,4.85,0a8,8,0,1,0-8.33,8c4.65.21,8.09-3.56,8.33-8C1194.92,429.72,1190.07,429.72,1189.9,432.84Z" transform="translate(-34.89 -48.04)"></path> </g> </g> <path d="M1238.87,453.45V849.83a33.28,33.28,0,0,1-.44,7.73c-1.89,7.94-9,12.43-16.81,12.46h-608c-5.91,0-11.52-2-14.94-7.19C596.19,859,596,855,596,850.71V459.07c0-1.85,0-3.71,0-5.56A41.11,41.11,0,0,1,618.72,417c8.61-4.27,17.4-4.13,26.59-4.13h551.34a45.49,45.49,0,0,1,15.3,2.36c16.11,5.7,26.74,21.31,26.92,38.25,0,3.12,4.88,3.13,4.85,0-.27-25.67-21.23-45.43-46.6-45.47H644.45c-10.5,0-20.49.43-30.07,5.79a46,46,0,0,0-23.26,39.69c0,1.62,0,3.25,0,4.88V851.2c0,5,.57,9.76,3.4,14.08,4.21,6.41,11.15,9.56,18.67,9.59,6.13,0,12.26,0,18.38,0H1222c9,0,17.09-5,20.37-13.56,2.59-6.71,1.39-15.73,1.39-22.77V453.45C1243.72,450.33,1238.87,450.32,1238.87,453.45Z" transform="translate(-34.89 -48.04)"></path> <g> <rect class="cls-6" x="902.28" y="721.01" width="189.65" height="189.65" rx="21.07"></rect> <path d="M1105.75,956.27H958.59a19,19,0,0,1-17.51-11.34c-1.43-3.3-1.48-6.66-1.48-10.15V791.39c0-.42,0-.85,0-1.27a18.69,18.69,0,0,1,18.65-18.65H1103c3.47,0,6.82.07,10.1,1.5a19,19,0,0,1,11.31,17.53V920.18c0,5.93.1,11.87,0,17.79a18.86,18.86,0,0,1-18.64,18.3c-3.12,0-3.13,4.88,0,4.85a23.8,23.8,0,0,0,23.32-20.73,57.23,57.23,0,0,0,.18-6.93V812.23q0-10.9,0-21.82a23.84,23.84,0,0,0-12.82-21.21c-4.12-2.08-8.47-2.58-13-2.58H959.39A24.6,24.6,0,0,0,942.23,773a24.24,24.24,0,0,0-7.49,18.13V935c0,4.17.32,8.17,2,12.1a23.76,23.76,0,0,0,21.67,14c7,0,14.07,0,21.1,0h126.21C1108.87,961.12,1108.88,956.27,1105.75,956.27Z" transform="translate(-34.89 -48.04)"></path> </g> <path d="M982.16,718.9a12.77,12.77,0,0,1,11.23-1.82c1.9.58,3.8,1.36,5.82,1.3a14.62,14.62,0,0,0,5.65-1.8c1.57-.72,3.65-1.62,5.38-.85.83.37,1.36,1.21,2.09,1.73a4.58,4.58,0,0,0,2.31.85c1.89.16,3.63-.79,5.49-.87s3.79,1,5.73,1.19c2.32.2,4.44-.9,6.67-1.33a13.2,13.2,0,0,1,7.3.78c1.5.58,2.15-1.83.67-2.41a15.43,15.43,0,0,0-6.34-1.06,33.12,33.12,0,0,0-6.08,1.32c-2.32.56-4.15-.47-6.38-.86-2-.33-3.66.28-5.55.64a2.85,2.85,0,0,1-2.75-.61,7.9,7.9,0,0,0-2.23-1.67,7.64,7.64,0,0,0-5.39.07c-1.91.66-3.64,1.86-5.64,2.26-2.24.46-4.39-.62-6.5-1.21a15.1,15.1,0,0,0-12.74,2.19c-1.3.92-.06,3.09,1.26,2.16Z" transform="translate(-34.89 -48.04)"></path> <path d="M631.93,484.53c2.19-2.07,5.54-1.06,8.14-.48a21,21,0,0,0,9,.45c3.12-.63,6-2,9.08-2.89a16.4,16.4,0,0,1,9.9-.19,93.13,93.13,0,0,0,10.8,2.82,102.08,102.08,0,0,0,10.61,1.15c3.81.23,7.62.36,11.44.51a24.83,24.83,0,0,0,5.65-.11,33.46,33.46,0,0,0,4.91-1.68c7-2.45,14.14,2.58,21.15.09,1.51-.53.86-2.95-.66-2.41-6.25,2.22-12.75-1.81-19.15-.64A31,31,0,0,0,708,482.8a14.15,14.15,0,0,1-5.6.66c-3.83-.14-7.66-.28-11.49-.49A99.45,99.45,0,0,1,679,481.75c-3.7-.65-7.17-1.86-10.78-2.86a17.77,17.77,0,0,0-9.65,0c-3.08.82-6,2.16-9.07,2.95a14.87,14.87,0,0,1-5.43.48c-1.64-.19-3.25-.65-4.87-1-3.19-.66-6.54-.95-9.08,1.45-1.17,1.11.6,2.87,1.77,1.77Z" transform="translate(-34.89 -48.04)"></path> <path d="M633.34,534.43v67.19a1.25,1.25,0,0,0,2.5,0V534.43a1.25,1.25,0,0,0-2.5,0Z" transform="translate(-34.89 -48.04)"></path> <path d="M635.33,534.94h72.36a1.25,1.25,0,0,0,0-2.5H635.33a1.25,1.25,0,0,0,0,2.5Z" transform="translate(-34.89 -48.04)"></path> <path d="M881.2,739.47h49.47a1.25,1.25,0,0,0,0-2.5H881.2a1.25,1.25,0,0,0,0,2.5Z" transform="translate(-34.89 -48.04)"></path> <path d="M933.31,738.21q-.37-31.63.18-63.27.16-9,.39-17.93a1.25,1.25,0,0,0-2.5,0q-.81,31.63-.71,63.27,0,9,.14,17.93a1.25,1.25,0,0,0,2.5,0Z" transform="translate(-34.89 -48.04)"></path> <path d="M661.55,563.35a18.68,18.68,0,0,0-.18,8.7,1.25,1.25,0,0,0,2.41-.66A16,16,0,0,1,664,564a1.25,1.25,0,0,0-2.41-.67Z" transform="translate(-34.89 -48.04)"></path> <path d="M661.88,584.57l-.62,5.5a1.25,1.25,0,0,0,1.25,1.25,1.28,1.28,0,0,0,1.25-1.25l.62-5.5a1.26,1.26,0,0,0-1.25-1.25,1.28,1.28,0,0,0-1.25,1.25Z" transform="translate(-34.89 -48.04)"></path> <path d="M663.1,602.3v3.06a1.25,1.25,0,0,0,1.25,1.25,1.27,1.27,0,0,0,1.25-1.25V602.3a1.26,1.26,0,0,0-.37-.88,1.24,1.24,0,0,0-2.13.88Z" transform="translate(-34.89 -48.04)"></path> <path d="M665.86,558.76l3.67-1.24a1.37,1.37,0,0,0,.74-.58,1.24,1.24,0,0,0,.13-1,1.27,1.27,0,0,0-1.54-.87l-3.66,1.24a1.36,1.36,0,0,0-.75.58,1.29,1.29,0,0,0-.12,1,1.26,1.26,0,0,0,1.53.87Z" transform="translate(-34.89 -48.04)"></path> <path d="M681.47,557.7h4.28a1.25,1.25,0,0,0,0-2.5h-4.28a1.26,1.26,0,0,0-1.25,1.25,1.27,1.27,0,0,0,1.25,1.25Z" transform="translate(-34.89 -48.04)"></path> <path d="M704.7,557.09h9.17a1.25,1.25,0,0,0,0-2.5H704.7a1.25,1.25,0,0,0,0,2.5Z" transform="translate(-34.89 -48.04)"></path> <path d="M729.76,557.09h9.17a1.25,1.25,0,0,0,0-2.5h-9.17a1.25,1.25,0,0,0,0,2.5Z" transform="translate(-34.89 -48.04)"></path> <path d="M757,557.06a15.77,15.77,0,0,1,8.51-.06,1.25,1.25,0,0,0,.67-2.41,18.27,18.27,0,0,0-9.84.06,1.28,1.28,0,0,0-.88,1.54,1.26,1.26,0,0,0,1.54.87Z" transform="translate(-34.89 -48.04)"></path> <path d="M785.73,556.43a21.15,21.15,0,0,1,8.23-1.18,1.26,1.26,0,0,0,1.25-1.25,1.28,1.28,0,0,0-1.25-1.25,23.15,23.15,0,0,0-8.89,1.27,1.25,1.25,0,1,0,.66,2.41Z" transform="translate(-34.89 -48.04)"></path> <path d="M814.47,555.83a11.48,11.48,0,0,1,1.66-.4c.27,0-.15,0,.15,0l.36,0a8.25,8.25,0,0,1,.86,0l.79,0,.42,0c.4,0-.24,0,.16,0a10.76,10.76,0,0,1,1.66.38,1.25,1.25,0,0,0,1.53-.87,1.27,1.27,0,0,0-.87-1.54,12.42,12.42,0,0,0-7.39,0,1.25,1.25,0,0,0,.67,2.41Z" transform="translate(-34.89 -48.04)"></path> <path d="M843.81,556.41a20.07,20.07,0,0,1,8.51.63,1.25,1.25,0,0,0,.66-2.41,22.89,22.89,0,0,0-9.84-.63,1.26,1.26,0,0,0-.87,1.54,1.29,1.29,0,0,0,1.54.87Z" transform="translate(-34.89 -48.04)"></path> <path d="M872,555.86a9.4,9.4,0,0,1,1.59-.47l.46-.08.14,0a11.5,11.5,0,0,1,1.66,0l.35,0c.15,0,.16,0,0,0l.24,0a9,9,0,0,1,1.6.43,1.25,1.25,0,0,0,1.53-.87,1.27,1.27,0,0,0-.87-1.54,10.62,10.62,0,0,0-7.39.08,1.25,1.25,0,0,0,.67,2.41Z" transform="translate(-34.89 -48.04)"></path> <path d="M896.07,555.75l4.89.58a1.23,1.23,0,0,0,.89-.36,1.29,1.29,0,0,0,.36-.89,1.25,1.25,0,0,0-.36-.88,1.51,1.51,0,0,0-.89-.37l-4.89-.58a1.22,1.22,0,0,0-.89.37,1.26,1.26,0,0,0,0,1.76,1.45,1.45,0,0,0,.89.37Z" transform="translate(-34.89 -48.04)"></path> <path d="M906.47,565.34l.61,3.06a1.25,1.25,0,0,0,2.28.29,1.32,1.32,0,0,0,.13-1l-.61-3.06a1.29,1.29,0,0,0-.58-.74,1.24,1.24,0,0,0-1-.13,1.28,1.28,0,0,0-.75.58,1.38,1.38,0,0,0-.12,1Z" transform="translate(-34.89 -48.04)"></path> <path d="M907.84,581v8.09a1.26,1.26,0,0,0,1.25,1.25,1.28,1.28,0,0,0,1.25-1.25V581a1.25,1.25,0,0,0-2.5,0Z" transform="translate(-34.89 -48.04)"></path> <path d="M907.77,610.69a28.61,28.61,0,0,1-.37,9.14,1.3,1.3,0,0,0,.88,1.54,1.27,1.27,0,0,0,1.54-.87,31.07,31.07,0,0,0,.45-9.81,1.29,1.29,0,0,0-1.25-1.25,1.26,1.26,0,0,0-1.25,1.25Z" transform="translate(-34.89 -48.04)"></path> <path d="M907.25,640.67a16.83,16.83,0,0,1,.65,3.42,18.77,18.77,0,0,1-.09,3.67,1.24,1.24,0,0,0,1.25,1.25,1.29,1.29,0,0,0,1.25-1.25,19.15,19.15,0,0,0-.65-7.75,1.25,1.25,0,1,0-2.41.66Z" transform="translate(-34.89 -48.04)"></path> <path d="M906.49,667.32v7.42a1.26,1.26,0,0,0,1.25,1.25,1.28,1.28,0,0,0,1.25-1.25v-7.42a1.25,1.25,0,1,0-2.5,0Z" transform="translate(-34.89 -48.04)"></path> <path d="M905.67,688.88l-.66,6.74a1.25,1.25,0,0,0,1.25,1.25,1.28,1.28,0,0,0,1.25-1.25l.66-6.74a1.25,1.25,0,0,0-1.25-1.25,1.28,1.28,0,0,0-1.25,1.25Z" transform="translate(-34.89 -48.04)"></path> <path d="M900,707.36l-6.09,2a1.26,1.26,0,0,0,.67,2.42l6.08-2a1.25,1.25,0,0,0-.66-2.41Z" transform="translate(-34.89 -48.04)"></path> <path d="M774.92,713.07H783a1.25,1.25,0,0,0,0-2.5h-8.09a1.26,1.26,0,0,0-1.25,1.25,1.28,1.28,0,0,0,1.25,1.25Z" transform="translate(-34.89 -48.04)"></path> <path d="M799.54,713.69a9.63,9.63,0,0,0,7-.8,1.25,1.25,0,0,0-1.26-2.16c-.12.06-.24.13-.37.18l-.18.09.06,0c-.24.1-.48.18-.73.26s-.46.12-.69.17l-.3.06-.21,0c.17,0,.18,0,0,0a9.76,9.76,0,0,1-1.43,0,2.85,2.85,0,0,1-.41,0c.3.07,0,0-.07,0-.27-.05-.54-.11-.8-.18a1.26,1.26,0,0,0-1.54.87,1.28,1.28,0,0,0,.88,1.54Z" transform="translate(-34.89 -48.04)"></path> <path d="M828.86,713.74a21.92,21.92,0,0,0,7.07-.72,1.25,1.25,0,0,0-.66-2.41c-.54.15-1.08.27-1.63.37l-.83.14h0l-.26,0-.38,0a20.58,20.58,0,0,1-3.33,0,1.26,1.26,0,0,0-1.25,1.25,1.28,1.28,0,0,0,1.25,1.25Z" transform="translate(-34.89 -48.04)"></path> <path d="M859.52,715l8.09-1.36a1.26,1.26,0,0,0,.88-1.54,1.29,1.29,0,0,0-1.54-.87l-8.09,1.36a1.24,1.24,0,0,0-.87,1.53,1.28,1.28,0,0,0,1.53.88Z" transform="translate(-34.89 -48.04)"></path> <path d="M936.26,457.65v38.19a1.25,1.25,0,0,0,2.5,0V457.65a1.25,1.25,0,0,0-2.5,0Z" transform="translate(-34.89 -48.04)"></path> <path d="M938.19,499.18l2.89-2a1.26,1.26,0,0,0,.6-1.24,1.24,1.24,0,0,0-.9-1,4.93,4.93,0,0,0-2.87-.1,2.17,2.17,0,0,0-1.55,2.74,2.37,2.37,0,0,0,2.07,1.37,1.59,1.59,0,0,0,1.66-2.08c-.31-.94-1.46-1.12-2.32-1a4.12,4.12,0,0,0-2.14.89,1.27,1.27,0,0,0-.36.89,1.38,1.38,0,0,0,.36.88,4.19,4.19,0,0,0,6,0,1.3,1.3,0,0,0,.2-1.51c-1.09-2.26-4.33-2.35-6.07-.88a3.22,3.22,0,0,0-1.06,3.14,3.15,3.15,0,0,0,2.23,2.06,4,4,0,0,0,3-.26,2.89,2.89,0,0,0,1.47-2.83,3.87,3.87,0,0,0-2.09-3,4.39,4.39,0,0,0-3.54-.35,2.31,2.31,0,0,0-1.28.92,2.75,2.75,0,0,0-.3,1.26,3.46,3.46,0,0,0,.9,2.22,3.35,3.35,0,0,0,4.15.87A1.25,1.25,0,1,0,938,498l-.14.07c-.09.07.31-.1.11-.05s-.36.08-.12.05-.08,0-.15,0h-.14s.34.07.16,0l-.28-.08c-.19-.06.23.12.11.05l-.14-.07-.23-.14c-.17-.1,0,0,.08.07l-.11-.09a1.89,1.89,0,0,1-.2-.2l-.1-.11c-.08-.09.19.27.07.08l-.13-.22a.37.37,0,0,1-.07-.14s.11.32,0,.11a2.33,2.33,0,0,0-.07-.25c-.05-.2,0,.25,0,.13s0-.09,0-.14,0-.1,0-.14-.08.33,0,.13.15-.43,0-.05l-.44.45c.12-.09.27-.15.4-.24-.3.19-.17.07,0,0l.27-.08.12,0s-.36,0-.17,0h.58c.21,0-.28-.05-.13,0a3.43,3.43,0,0,1,.46.11l.22.07-.14-.06.14.07a3.18,3.18,0,0,1,.4.23l.1.07c.15.1-.12-.09-.12-.09l.21.18.16.17.07.08s-.2-.28-.1-.12a1.88,1.88,0,0,1,.12.18c0,.06.16.33.06.1s0,0,0,.07l.06.21c0,.26,0-.32,0-.06a2.08,2.08,0,0,1,0,.25c0,.2,0-.17,0-.16l0,.11-.06.2c-.07.25.13-.24,0-.09a1.18,1.18,0,0,0-.11.19c-.09.15.24-.27.06-.09l-.12.12c-.13.12.3-.21.08-.07l-.17.09c-.23.13.15-.05.11,0l-.17.05-.17.05-.09,0,.18,0c-.07,0-.29,0-.37,0h-.28c-.2,0,.35.06.15,0l-.35-.08-.18-.06-.08,0c-.17,0,.28.13.15.07l-.3-.17c-.22-.14.12.1.08.07l-.14-.12a1.31,1.31,0,0,0-.11-.12c.26.23.16.22.08.09a.61.61,0,0,1-.07-.14c-.08-.12.09.19.08.19a.36.36,0,0,1,0-.11c0-.14,0-.25,0,.14,0-.06,0-.12,0-.17s.08-.23,0,.11c0-.06,0-.14,0-.21a1.94,1.94,0,0,1,.05-.2c.08-.24-.14.28,0,.06a1.62,1.62,0,0,1,.1-.18l.06-.08c.07-.12-.22.25-.09.11s.2-.18.29-.28c-.23.26-.18.13,0,.05a1.64,1.64,0,0,1,.22-.14l.09,0c-.24.09,0,0,.09,0s.33-.08.49-.12-.32,0-.17,0h.39l.24,0c.24,0-.34-.06-.05,0a3.62,3.62,0,0,1,.47.13c.14.05-.28-.13-.16-.06l.12,0,.21.13c.08.05.14.16-.13-.1l.1.08c.06.05.11.11.16.16.2.21-.17-.25,0,0a1.71,1.71,0,0,1,.13.23l.19-1.52-.18.19a.9.9,0,0,0-.1.09s.23-.16.09-.08l-.25.16a.67.67,0,0,0-.12.06c-.12.07.25-.09.12-.05a4.84,4.84,0,0,1-.51.14c-.26.07.27,0,0,0h-.3l-.26,0c-.18,0,.1,0,.13,0l-.13,0c-.17,0-.34-.12-.51-.15,0,0,.27.12.12,0a.67.67,0,0,1-.12-.06c-.08,0-.16-.11-.25-.15s.2.17.1.07l-.1-.08-.21-.22v1.77c-.29.22,0,0,.08,0s.3-.09,0,0l.5-.14-.13,0h.4c.26,0-.25-.07,0,0s.21,0,.31.09l-.87-.88a.42.42,0,0,0,0,.12c0-.27,0-.35,0-.23.05-.28.06-.36,0-.26a1,1,0,0,1,.56-.64l.1,0q-.18,0,.24,0h-.1c-.24,0,.39.08.08,0l-.12,0c-.16,0,.3.15.16.06l-.11-.06c-.11-.06-.12-.15.12.11a.34.34,0,0,0-.09-.08c-.16-.14.12.1.1.14s0-.08,0-.1c.1.25.13.32.09.2s0,0,0,.1a.73.73,0,0,1,0,.33c.05-.2-.15.25-.07.15s.16-.24,0-.05.06,0,.07-.06-.25.17-.05.06.2,0-.08,0a2.22,2.22,0,0,0,.37-.09c-.3.09-.2,0-.07,0h.21c.14,0,.28,0,.42,0-.36,0-.17,0,0,0l.2,0,.47.11-.3-2.28-2.89,2a1.25,1.25,0,0,0,1.26,2.16Z" transform="translate(-34.89 -48.04)"></path> <path d="M1203.16,500.8a6.76,6.76,0,0,0,2.29,1.63,2.81,2.81,0,0,0,2.83-.4c1.15-1,.57-3-.6-3.7a1.69,1.69,0,0,0-2.41.66,1.27,1.27,0,0,0,.45,1.71,3.2,3.2,0,0,0,2.92,0,3.14,3.14,0,0,0,1.64-2.1,1.7,1.7,0,0,0-.15-1.25,4.21,4.21,0,0,0-.39-.55,3,3,0,0,0-.77-.64,3.59,3.59,0,0,0-2-.49,4.9,4.9,0,0,0-3.51,1.59,3.67,3.67,0,0,0-.93,2.08,3.08,3.08,0,0,0,.08,1,1.65,1.65,0,0,0,.41.85,2.09,2.09,0,0,0,.92.45,3.53,3.53,0,0,0,3-.8,3.2,3.2,0,0,0,1.2-2.7,1.29,1.29,0,0,0-.92-1.21,4.78,4.78,0,0,0-4.36,1.4,1.25,1.25,0,0,0,1.76,1.77c.09-.1.19-.19.28-.28l.06,0h0c-.08.07-.08.07,0,0l.07-.05.34-.19s.26-.12.07,0,0,0,.07,0l.38-.11.15,0c.27-.05-.21,0-.05,0l.39,0h.2c.24,0-.28,0,0,0l-.92-1.2a1.11,1.11,0,0,1,0,.26c0,.33.07-.22,0,0s0,.16-.07.24c-.07.23.13-.25,0-.06a2.53,2.53,0,0,0-.13.22c-.11.18.21-.24,0,0a1.62,1.62,0,0,1-.18.19l-.1.08.12-.09-.42.24.12-.05-.12,0-.22.05.17,0h-.38c.23,0,.28,0,.14,0l-.12,0c-.1,0-.37-.16,0,0l.58.74a3.37,3.37,0,0,1-.1-.34.58.58,0,0,1,0-.1s0,.32,0,.21,0-.13,0-.19,0-.14,0-.16-.06.36,0,.19,0-.05,0-.07a.91.91,0,0,1,.1-.33s-.15.33-.07.17l0-.06a1.09,1.09,0,0,0,.08-.15l.1-.14c.12-.19-.21.24,0,.06l.23-.25.13-.11c.2-.18-.19.13-.06,0a5.14,5.14,0,0,1,.64-.38l.09,0c.12-.06-.21.1-.18.07a.85.85,0,0,1,.17-.06l.37-.11.17,0h.07c.19,0-.19,0-.18,0a1.14,1.14,0,0,1,.37,0h.34l-.21,0,.09,0,.19,0,.17.06c.17,0-.31-.16-.08,0a1.29,1.29,0,0,1,.16.09l.08,0c.14.08-.16-.11-.14-.11s.25.25.28.28-.14-.16-.12-.15.06.08.07.1a2.25,2.25,0,0,1,.12.21l-.17-.63c0,.24.07-.29,0-.08a1.66,1.66,0,0,0-.06.21c0,.11.16-.28,0-.07l-.1.16c0,.08,0,0,.1-.12l-.08.09-.14.14c-.15.15.25-.16.05,0l-.16.11a.91.91,0,0,0-.17.09c.2-.16.21-.09.06,0l-.19.06c-.23.05,0,0,.08,0a1.15,1.15,0,0,0-.18,0c-.23,0,0,0,.08,0l-.22,0c-.27-.06.24.11,0,0l.45,1.71c0-.05.15-.22,0,0s-.1.13-.05.07,0,0-.17.13c.14-.08-.35.12-.18.08a.92.92,0,0,1-.52,0c.23.05-.34-.17-.08,0s-.26-.25-.12-.09l.09.09c.16.16-.17-.27-.08-.1l.07.11.06.12c-.2-.28-.09-.26-.06-.13a.83.83,0,0,1,0,.15c.06.22,0-.29,0-.16a.75.75,0,0,1,0,.15s.11-.4,0-.17.15-.32.07-.15.07-.08.1-.12l-.06.06.18-.14-.09,0c.17-.06.2-.08.12,0l-.12,0c-.13,0-.1,0,.11,0a.89.89,0,0,0-.23,0c-.11,0-.1,0,0,0s.12,0,0,0l-.23-.06c-.29-.1,0,0,0,0s-.24-.12-.26-.13a2.94,2.94,0,0,1-.47-.31c.23.22,0,0,0,0l-.19-.17-.43-.42a1.27,1.27,0,0,0-1.77,0,1.29,1.29,0,0,0,0,1.77Z" transform="translate(-34.89 -48.04)"></path> <path d="M1209.38,498V457.65a1.25,1.25,0,0,0-2.5,0V498a1.25,1.25,0,0,0,2.5,0Z" transform="translate(-34.89 -48.04)"></path> <path d="M936.42,501.45h264.07a1.25,1.25,0,0,0,0-2.5H936.42a1.25,1.25,0,0,0,0,2.5Z" transform="translate(-34.89 -48.04)"></path> <path d="M1047.94,517.44l5.41-.71a1.35,1.35,0,0,0,.88-.37,1.28,1.28,0,0,0,.37-.88c0-.61-.56-1.35-1.25-1.25l-5.41.71a1.36,1.36,0,0,0-.88.36,1.3,1.3,0,0,0-.37.89c0,.6.56,1.34,1.25,1.25Z" transform="translate(-34.89 -48.04)"></path> <path d="M1053.35,510.93a33.89,33.89,0,0,0-1.85,12.39c0,1.6,2.56,1.61,2.5,0a31.75,31.75,0,0,1,1.77-11.72,1.26,1.26,0,0,0-2.42-.67Z" transform="translate(-34.89 -48.04)"></path> <path d="M1063.74,513a9.46,9.46,0,0,1-1.1,1.09c-.44.38-.9.74-1.33,1.12a6.1,6.1,0,0,0-2.09,3.1c-.6,2.71,1.51,5.29,4.07,5.94,5.69,1.42,9.86-6.43,7.07-11a4.44,4.44,0,0,0-3.61-2.17,3.74,3.74,0,0,0-3.54,1.89,1.27,1.27,0,0,0,.45,1.71,1.26,1.26,0,0,0,1.71-.45,1.33,1.33,0,0,1,.18-.3c-.13.16,0,0,0,0,.24-.23-.18.08.11-.09l.2-.11c.27-.16-.18,0,.13,0l.23-.06c.35-.1-.13,0,.08,0h.43c.23,0,.1,0,0,0l.36.08.23.08c-.23-.09.13.07.14.08a1.37,1.37,0,0,1,.2.13c-.2-.15.15.15.16.15a2.27,2.27,0,0,1,.33.42,5.15,5.15,0,0,1-.27,5.06,4.83,4.83,0,0,1-1.74,1.82,3,3,0,0,1-1.12.44,2.75,2.75,0,0,1-1,0,2.75,2.75,0,0,1-1-.42c-.11-.08-.23-.15-.34-.24l-.07-.06-.29-.29s-.25-.29-.15-.16a3.62,3.62,0,0,1-.35-.57,2.13,2.13,0,0,1-.14-.43,1.7,1.7,0,0,1,0-1,3.32,3.32,0,0,1,.6-1,9.62,9.62,0,0,1,1.14-1.07,14.7,14.7,0,0,0,2.45-2.41,1.26,1.26,0,0,0-.44-1.71,1.28,1.28,0,0,0-1.71.45Z" transform="translate(-34.89 -48.04)"></path> <path d="M1082.06,514a2.76,2.76,0,0,0-3.41-1.73c-1.43.38-2.35,1.73-3.13,2.89-1.46,2.18-2.79,5.22-1.34,7.74a4.88,4.88,0,0,0,6.17,1.79,7.83,7.83,0,0,0,4.84-5.63,6.17,6.17,0,0,0-.75-4.8,5,5,0,0,0-4-2.26,1.26,1.26,0,0,0-1.25,1.25,1.27,1.27,0,0,0,1.25,1.25,1.8,1.8,0,0,1,.89.22c.11.07.23.13.34.21s.1.08.06.05a3.83,3.83,0,0,1,.29.28s.26.28.16.16a3.35,3.35,0,0,1,.64,2.59,6.09,6.09,0,0,1-1,2.57s-.19.24-.06.08l-.19.23c-.13.15-.28.29-.42.43l-.23.2c-.18.16-.08.06,0,0a5.81,5.81,0,0,1-.61.4,5.45,5.45,0,0,1-.53.29s-.38.15-.14.06l-.22.08a5.7,5.7,0,0,1-.55.16l-.34.07c.22,0,0,0-.11,0h-.55c-.23,0,0,0,0,0l-.32-.06c-.09,0-.53-.21-.29-.09l-.19-.09s-.4-.28-.19-.11a2.08,2.08,0,0,1-.65-.82s-.08-.22,0-.07l-.09-.32s-.07-.32,0-.13a2.61,2.61,0,0,1,0-.4,5.71,5.71,0,0,1,.7-2.54,12.7,12.7,0,0,1,1.79-2.74,2.57,2.57,0,0,1,.51-.46s.36-.22.23-.12,0,0,.08,0h.24c-.15,0-.14,0,0,0s.14,0,0,0l.05,0q.12.07,0,0c.1.1.1.1,0,0h0a1.27,1.27,0,0,0,1.54.87,1.26,1.26,0,0,0,.87-1.54Z" transform="translate(-34.89 -48.04)"></path> <path d="M1094.93,515.15q-1.1,6.66-2.81,13.18l2.45.33a19.38,19.38,0,0,1,.86-8.28c.75-2.24,1.9-4.76,4-6.09a3,3,0,0,1,2.53-.63,1.9,1.9,0,0,1,1,2.14c-.34,2.47-3.18,3.43-5.2,4.12-1.51.52-.86,2.94.66,2.41,2.35-.81,5-1.8,6.29-4.09,1.19-2.11,1-5-1.09-6.49s-4.62-.39-6.37,1a14.58,14.58,0,0,0-4.08,6.55,21.23,21.23,0,0,0-1.08,9.32c.15,1.32,2.07,1.8,2.46.33q1.73-6.51,2.81-13.18a1.29,1.29,0,0,0-.88-1.53,1.24,1.24,0,0,0-1.53.87Z" transform="translate(-34.89 -48.04)"></path> <path d="M1114.37,513.21q-5,4.47-9.75,9.2a1.25,1.25,0,0,0,1.76,1.77,10.83,10.83,0,0,0,3.45-10l-2.28,1a24.13,24.13,0,0,0,7.73,9.41,1.26,1.26,0,0,0,1.71-.45,1.28,1.28,0,0,0-.45-1.71,21.63,21.63,0,0,1-6.83-8.51,1.24,1.24,0,0,0-1.56-.51,1.26,1.26,0,0,0-.73,1.47,8.36,8.36,0,0,1-2.8,7.57l1.76,1.77q4.75-4.74,9.76-9.2a1.26,1.26,0,0,0,0-1.77,1.28,1.28,0,0,0-1.77,0Z" transform="translate(-34.89 -48.04)"></path> <path d="M970.41,784.34c-7.89-4.2-16.88,1.58-20.2,8.95-1.94,4.3-2.58,9-2.94,13.66-.43,5.46-.69,10.94-.92,16.41-.94,22.41-.73,44.85-.06,67.26.16,5.54.36,11.08.57,16.62.19,5,.29,9.92,1,14.83A34.15,34.15,0,0,0,951.94,935a24.82,24.82,0,0,0,8.43,8.43c6.84,4.18,15.2,5.21,23.07,5.36,9.65.18,19.34-.79,29-1.24q33.64-1.54,67.35-1.46c5.47,0,10.94.16,16.42.11,4.58,0,9.46-.57,13.27-3.35,6.64-4.83,7.9-13.55,8-21.21,0-5-.28-10.09-.46-15.12l-.59-16.68-1.21-33.6L1114,822.39c-.32-9.06.17-18.94-3.13-27.55a22.79,22.79,0,0,0-7.29-10.14,26.09,26.09,0,0,0-11.61-4.77,68.23,68.23,0,0,0-13.17-.74c-5.44.12-10.89.34-16.34.51l-67.22,2.12-16.43.51c-2.41.08-2.42,3.83,0,3.75l65-2,32.37-1c7.93-.25,16.88-.64,23.88,3.76s9,13.13,9.59,21c.37,4.71.44,9.44.61,14.16l.59,16.43,2.32,64.73c.19,5.21.42,10.42.55,15.63a48.36,48.36,0,0,1-.72,11.21c-.7,3.39-2,6.71-4.6,9.09-3.23,2.95-7.75,3.42-11.93,3.48-10.6.13-21.2-.16-31.8-.07q-16.27.14-32.56.66t-32.28,1.41c-8.17.45-16.46,1.16-24.61,0-7.11-1-14.45-3.63-18.85-9.65-5.38-7.34-5.28-17.12-5.62-25.82-.84-21.5-1.42-43-1.14-64.53.14-10.76.49-21.51,1.13-32.24.48-8,.53-18.75,8.16-23.61,2.87-1.83,6.55-2.69,9.69-1,2.13,1.14,4-2.1,1.89-3.24Z" transform="translate(-34.89 -48.04)"></path> <path d="M982.32,829.39l39.45-.29a5,5,0,0,0,0-10l-39.45.29a5,5,0,0,0,0,10Z" transform="translate(-34.89 -48.04)"></path> <path d="M996.15,828.43c1.56,12.73,3.1,25.5,3.41,38.33a153.82,153.82,0,0,1-.61,19c-.06.71-.14,1.41-.22,2.12-.05.47-.11.94-.17,1.41,0,.17-.13,1,0,.08-.23,1.64-.49,3.27-.79,4.9a66.07,66.07,0,0,1-2.06,8.93,6.35,6.35,0,0,1-.26.72q.4-.92.06-.15l-.16.34c-.18.33-.38.64-.57,1-.52.88.55-.74-.14.13-.53.66.05.07.17-.07a5.13,5.13,0,0,1-.7.44q-.66.33-.15.09c.72-.27-.56.14-.57.15-.41.1-.81.17-1.22.26,1.07-.24.17,0-.14,0l-1.52.14-2.42.21-5.81.51c-2.59.23-5.12,2.14-5,5,.12,2.52,2.21,5.25,5,5,3.39-.3,6.8-.51,10.17-.91,4.28-.51,7.87-1.77,10.53-5.32,1.83-2.44,2.64-5.51,3.33-8.43.76-3.23,1.36-6.5,1.82-9.79,1.94-13.68,1.72-27.45.53-41.19-.66-7.63-1.58-15.23-2.51-22.83-.32-2.58-2.07-5.13-5-5-2.44.11-5.34,2.22-5,5Z" transform="translate(-34.89 -48.04)"></path> <path d="M1076.81,815.77a41.67,41.67,0,0,0-31.71,14.75c-4,4.8-7.7,10.94-7.27,17.43a13.49,13.49,0,0,0,5.53,10.35c3,2.22,6.67,3,10.29,3.5s7,.35,10.55.45c.8,0,1.6.06,2.4.11l1.22.11c.39,0,1.36-.11.15,0a6.49,6.49,0,0,1,1.84.34c.73.16,1.46.36,2.17.59l1,.37c1.13.41-.67-.36,0,0s1.19.6,1.76,1l.6.4c1,.66-.72-.73.11.12.25.26.53.49.78.75s1,.86.14.11a6.59,6.59,0,0,1,1.2,2c-.09-.17-.33-.95-.06-.08.12.39.25.77.36,1.16a6.79,6.79,0,0,1,.41,2c.1-1.17,0,0,0,.3,0,.48.07,1,.08,1.44,0,1.47,0,2.94-.08,4.4q-.08,1.08-.18,2.16c0,.43-.09.86-.14,1.29.15-1.24-.1.6-.14.81a49.83,49.83,0,0,1-2.49,9.14c-.48,1.29.28-.57-.08.19-.15.33-.29.66-.44,1q-.51,1.06-1.08,2.1a19.61,19.61,0,0,1-2.55,4c.86-.91-.46.55-.68.8-.5.58-1,1.15-1.58,1.69s-.93.9-1.41,1.32c-.29.26-.59.5-.88.75-.79.68.72-.49-.21.17a32.92,32.92,0,0,1-4.25,2.61l-.69.33-.7.31c.61-.25.65-.28.13-.07-.72.25-1.43.51-2.17.72s-1.48.38-2.24.52c-.32.06-1.37.45-.19.05a4.15,4.15,0,0,1-1.06.1,23.36,23.36,0,0,1-2.51,0l-.71-.05-.72-.06.26,0a6.3,6.3,0,0,1-2.11-.43c-.69-.18-1.38-.39-2-.62a7.27,7.27,0,0,1-1-.39c1.17.67,0,0-.27-.16a22,22,0,0,1-2-1.13l-.6-.39-.57-.41c.54.43.59.47.17.13s-1.07-.92-1.57-1.42c-.25-.26-.49-.51-.72-.78s-1-1-.11-.08a10,10,0,0,1-1.36-2.09,5,5,0,1,0-8.63,5c6.36,11.19,21,15.53,32.84,11,12.84-4.9,21.09-16.76,23.67-30,1.25-6.45,2.14-14.21-.22-20.51-2.51-6.69-8.46-10.72-15.32-12.05a61.33,61.33,0,0,0-10.91-.82c-1.76,0-3.52-.05-5.28-.2l-1-.09c-1.54-.14.94.22-.57-.08-.86-.17-1.72-.33-2.56-.58-.39-.11-.76-.25-1.14-.38,1.13.38,0,0-.27-.14s-.46-.25-.68-.39-1.07-.94-.26-.14c-.21-.21-.73-.54-.83-.83.31.87.23.29,0,0a2.67,2.67,0,0,1-.42-.8c.27.65.31.72.13.2-.07-.22-.13-.45-.18-.68-.33-1.11,0,1.08,0-.09,0-.24,0-.48,0-.72s-.07-.93.06-1.1l-.09.59c0-.25.08-.5.13-.74a14.63,14.63,0,0,1,.48-1.84c.11-.37.25-.73.38-1.09.38-1.07-.38.71.1-.21a37.66,37.66,0,0,1,2.5-4.19,9.91,9.91,0,0,1,.66-.9c-.81.91,0,.06.15-.16q.82-1,1.74-2a41.25,41.25,0,0,1,3.3-3c1-.82-.86.61.16-.14.41-.29.81-.59,1.22-.87.62-.43,1.25-.83,1.89-1.22a18.67,18.67,0,0,1,4.32-2.24c-.14,0-1,.41-.16.07l1.4-.53q1.05-.37,2.13-.69a19,19,0,0,1,4.75-1c-1.34,0-.14,0,.15,0l1.12-.1c.87-.06,1.74-.08,2.62-.08a5,5,0,0,0,0-10Z" transform="translate(-34.89 -48.04)"></path> <path class="cls-4" d="M644.51,189.16c-1.88,23.18-26.22,38-45.44,46.72-15.4,7-31.8,11.67-48.27,15.25a409.18,409.18,0,0,1-60.46,8.17,553.27,553.27,0,0,1-139-8.75c-37.7-7.19-75.91-18.07-109.44-37.19-12-6.84-23.59-14.88-32.92-25.16-6.79-7.49-12.64-16.87-13.84-26.89-2.72-22.79,17.56-39.23,35.73-49,14.08-7.57,29.35-12.79,44.78-16.84a369,369,0,0,1,57.83-10c45.95-4.5,92.74-2.61,138.32,4.61,39.47,6.26,79.33,16.39,115.21,34.38,13.18,6.62,26.06,14.38,37,24.34,8.09,7.36,15.57,16.24,18.89,26.85a35.53,35.53,0,0,1,1.6,13.52c-.25,3.49,5.19,3.48,5.44,0,1.8-25-19.91-44.56-38.81-57.12-14.37-9.54-30.09-16.95-46.12-23.22A411.31,411.31,0,0,0,505.46,91,558.71,558.71,0,0,0,363,78c-39.17,1.45-79.58,6.6-116.27,21-13.37,5.26-26.44,11.84-37.49,21.13-8.39,7-15.66,16.09-18.51,26.84-6.25,23.6,11,44.33,28.45,57.82,13,10.06,27.58,17.92,42.58,24.52a374.49,374.49,0,0,0,57,19.45c45.64,11.82,93.18,17.18,140.3,17,41.09-.19,83.28-4.35,122.45-17.35,14.35-4.77,28.59-10.8,41.09-19.4,9.47-6.52,18.45-14.77,23.41-25.33A41.78,41.78,0,0,0,650,189.16C650.23,185.66,644.79,185.68,644.51,189.16Z" transform="translate(-34.89 -48.04)"></path> <g> <path class="cls-2" d="M1084.81,229.87h-103a4.88,4.88,0,0,1-4.88-4.88h0a4.88,4.88,0,0,1,4.88-4.88h103a4.88,4.88,0,0,1,4.88,4.88h0A4.88,4.88,0,0,1,1084.81,229.87Z" transform="translate(-34.89 -48.04)"></path> <path class="cls-2" d="M1187.91,253.47H981.76a4.89,4.89,0,0,1-4.88-4.88h0a4.89,4.89,0,0,1,4.88-4.89h206.15a4.88,4.88,0,0,1,4.88,4.89h0A4.88,4.88,0,0,1,1187.91,253.47Z" transform="translate(-34.89 -48.04)"></path> <path class="cls-2" d="M1187.91,277.07H981.76a4.89,4.89,0,0,1-4.88-4.88h0a4.89,4.89,0,0,1,4.88-4.89h206.15a4.88,4.88,0,0,1,4.88,4.89h0A4.88,4.88,0,0,1,1187.91,277.07Z" transform="translate(-34.89 -48.04)"></path> <path class="cls-2" d="M1187.91,300.67H981.76a4.89,4.89,0,0,1-4.88-4.89h0a4.89,4.89,0,0,1,4.88-4.88h206.15a4.88,4.88,0,0,1,4.88,4.88h0A4.88,4.88,0,0,1,1187.91,300.67Z" transform="translate(-34.89 -48.04)"></path> </g> <g> <path class="cls-2" d="M1084.09,325h-103a4.87,4.87,0,0,1-4.88-4.88h0a4.87,4.87,0,0,1,4.88-4.88h103a4.87,4.87,0,0,1,4.88,4.88h0A4.87,4.87,0,0,1,1084.09,325Z" transform="translate(-34.89 -48.04)"></path> <path class="cls-2" d="M1187.2,348.62H981.05a4.87,4.87,0,0,1-4.88-4.88h0a4.87,4.87,0,0,1,4.88-4.88H1187.2a4.88,4.88,0,0,1,4.88,4.88h0A4.88,4.88,0,0,1,1187.2,348.62Z" transform="translate(-34.89 -48.04)"></path> <path class="cls-2" d="M1187.2,372.22H981.05a4.88,4.88,0,0,1-4.88-4.88h0a4.87,4.87,0,0,1,4.88-4.88H1187.2a4.88,4.88,0,0,1,4.88,4.88h0A4.89,4.89,0,0,1,1187.2,372.22Z" transform="translate(-34.89 -48.04)"></path> <path class="cls-2" d="M1187.2,395.82H981.05a4.88,4.88,0,0,1-4.88-4.88h0a4.88,4.88,0,0,1,4.88-4.89H1187.2a4.89,4.89,0,0,1,4.88,4.89h0A4.89,4.89,0,0,1,1187.2,395.82Z" transform="translate(-34.89 -48.04)"></path> </g> <path class="cls-2" d="M1286.69,287.19a173,173,0,0,0-38.91,36.47c-2.86,3.68-5.61,7.43-8.18,11.32-2.95,4.47-5.6,10.11-2.15,15.14a19.09,19.09,0,0,0,5.74,5.06c2.11,1.36,4.24,2.69,6.38,4q6.23,3.84,12.58,7.44,14.37,8.14,29.36,15.08c2.36,1.1,5.49.75,6.84-1.79,1.16-2.21.74-5.67-1.8-6.84a395.93,395.93,0,0,1-48.71-26.79c-.42-.28-.84-.56-1.25-.85-.11-.07-.55-.48-.1-.06s-.09-.11-.21-.22l-.4-.39c-.58-.55.2.08.1.16s-.26-.44-.28-.47c-.26-.36.16.85,0,0,0,.23,0,1,.06.12,0-.14.13-.74,0-.14s.26-.72.33-.93c-.31.91.15-.25.32-.55.31-.56.65-1.11,1-1.64q3.33-5.16,7.06-10l.51-.68c-.11.15-.59.75,0,0,.31-.39.61-.78.92-1.16.66-.83,1.32-1.66,2-2.47,1.35-1.64,2.73-3.24,4.13-4.82q4.15-4.67,8.63-9,5-4.86,10.42-9.29c.87-.72,1.75-1.43,2.64-2.12l.66-.53c.62-.49-.92.7.16-.12l1.35-1c1.92-1.44,3.87-2.83,5.85-4.19,2.16-1.48,3.33-4.46,1.8-6.84-1.38-2.14-4.54-3.38-6.84-1.79Z" transform="translate(-34.89 -48.04)"></path> <path class="cls-2" d="M1351.72,271.9q-8.81,24.33-16,49.17t-12.81,50.1q-3.15,14.26-5.78,28.64c-.47,2.56.7,5.51,3.49,6.15,2.45.56,5.65-.74,6.15-3.49q4.66-25.44,11-50.54t14.21-49.72q4.47-13.92,9.45-27.65a5,5,0,0,0-3.49-6.15,5.13,5.13,0,0,0-6.15,3.49Z" transform="translate(-34.89 -48.04)"></path> <path class="cls-7" d="M1325.24,165.59c1,4.54,3.81,8.89,8.6,10,4,.94,8.78-.15,11.51-3.38a11,11,0,0,0,2.69-6.8,11.75,11.75,0,0,0-1.63-6.2,11.42,11.42,0,0,0-4.44-4.39,11,11,0,0,0-7.57-1,11.64,11.64,0,0,0-6.5,4.31,12,12,0,0,0-2,3.73,9.45,9.45,0,0,0-.45,3.77,5.43,5.43,0,0,0,1.47,3.54,5,5,0,0,0,7.07,0,4.89,4.89,0,0,0,1.46-3.54,6.28,6.28,0,0,1,0-1.37l-.18,1.33a6.89,6.89,0,0,1,.4-1.48l-.5,1.2a7.39,7.39,0,0,1,1-1.63l-.78,1a7.88,7.88,0,0,1,1.22-1.23l-1,.79a7.36,7.36,0,0,1,1.62-1l-1.19.5a6.83,6.83,0,0,1,1.47-.41l-1.33.18a6.11,6.11,0,0,1,1.54,0l-1.33-.18a5.75,5.75,0,0,1,1.35.37l-1.19-.51a6.62,6.62,0,0,1,1.31.77l-1-.79a7.44,7.44,0,0,1,1.19,1.19l-.78-1a7.48,7.48,0,0,1,.94,1.59l-.5-1.19a7.29,7.29,0,0,1,.5,1.77l-.18-1.33a6.75,6.75,0,0,1,0,1.68l.18-1.33a5.83,5.83,0,0,1-.4,1.47l.5-1.2a5.8,5.8,0,0,1-.68,1.15l.78-1a6.4,6.4,0,0,1-1,1l1-.79a7.27,7.27,0,0,1-1.4.81l1.19-.5a7.51,7.51,0,0,1-1.86.49l1.33-.17a7.57,7.57,0,0,1-1.78,0l1.33.18a6.51,6.51,0,0,1-1.69-.46l1.19.5a6.07,6.07,0,0,1-1.13-.66l1,.78a6.61,6.61,0,0,1-1.09-1.09l.79,1a8.82,8.82,0,0,1-1.09-1.91l.51,1.2a17,17,0,0,1-.77-2.52,5,5,0,0,0-6.15-3.49,5.11,5.11,0,0,0-3.49,6.15Z" transform="translate(-34.89 -48.04)"></path> <path class="cls-7" d="M1385.79,155.39a13.12,13.12,0,0,0-3.47,5.38,11.35,11.35,0,0,0-.58,2.63,10.78,10.78,0,0,0-.1,2.66,11.43,11.43,0,0,0,2.42,6.4,10.87,10.87,0,0,0,5.33,3.7,12.36,12.36,0,0,0,6,.23,11.18,11.18,0,0,0,5.16-2.59,9.48,9.48,0,0,0,1.86-2.23,8.68,8.68,0,0,0,.61-1.31,7.2,7.2,0,0,0,.51-1.48,10.18,10.18,0,0,0-1.17-7.1,11.06,11.06,0,0,0-4.69-4.37,9.94,9.94,0,0,0-4.29-1,9.36,9.36,0,0,0-4.3,1.15,5,5,0,1,0,5.05,8.64,3.84,3.84,0,0,1,.35-.18l-1.19.51a4.19,4.19,0,0,1,1-.27l-1.33.18a5.57,5.57,0,0,1,1,0l-1.33-.18a5,5,0,0,1,1.21.33l-1.19-.5a6.42,6.42,0,0,1,1.34.78l-1-.78a7.41,7.41,0,0,1,1.11,1.13l-.78-1a6.53,6.53,0,0,1,.74,1.25l-.51-1.2a5.62,5.62,0,0,1,.39,1.37l-.18-1.32a4.92,4.92,0,0,1,0,1.15l.18-1.33a5.14,5.14,0,0,1-.28,1l.51-1.2a5.18,5.18,0,0,1-.61,1.07l.78-1a5.51,5.51,0,0,1-.93.94l1-.78a6.35,6.35,0,0,1-1.36.79l1.19-.5a7.46,7.46,0,0,1-1.68.46l1.33-.18a7.44,7.44,0,0,1-2,0l1.33.18a6.75,6.75,0,0,1-1.69-.47l1.2.51a6.62,6.62,0,0,1-1.18-.69l1,.78a6.21,6.21,0,0,1-1-1l.79,1a6.41,6.41,0,0,1-.85-1.45l.5,1.19a7.73,7.73,0,0,1-.48-1.77l.18,1.33a9,9,0,0,1,0-2.14l-.18,1.33a9.08,9.08,0,0,1,.6-2.23l-.51,1.2a9,9,0,0,1,1.09-1.87l-.78,1a8.83,8.83,0,0,1,1-1,5,5,0,0,0-3.54-8.53,5.51,5.51,0,0,0-3.53,1.46Z" transform="translate(-34.89 -48.04)"></path> <path class="cls-7" d="M1436.13,165.91a5.38,5.38,0,0,0-.22.9,9.14,9.14,0,0,0,.86,6.19,11.06,11.06,0,0,0,1.67,2.45,10.43,10.43,0,0,0,2.28,1.91,9.5,9.5,0,0,0,11.94-1.28,11.08,11.08,0,0,0,2.65-10.55,9.08,9.08,0,0,0-1.16-2.58,10.62,10.62,0,0,0-2.78-2.81,9.62,9.62,0,0,0-2.59-1.23,10.89,10.89,0,0,0-2.88-.46,11.46,11.46,0,0,0-3.09.36A11.14,11.14,0,0,0,1440,160a13.25,13.25,0,0,0-1.72,1.25,5.39,5.39,0,0,0-.7.65,11.79,11.79,0,0,0-1.27,1.64,12.51,12.51,0,0,0-.93,2,3.75,3.75,0,0,0-.09,2,3.66,3.66,0,0,0,.6,1.86,5,5,0,0,0,6.84,1.8l1-.78a4.94,4.94,0,0,0,1.28-2.21l0-.1-.51,1.19a5.17,5.17,0,0,1,.6-1l-.78,1a5.29,5.29,0,0,1,1-1l-1,.79a6.13,6.13,0,0,1,1.38-.8l-1.19.5a6.68,6.68,0,0,1,1.66-.45l-1.33.18a6.51,6.51,0,0,1,1.59,0l-1.32-.18a5.85,5.85,0,0,1,1.42.38l-1.2-.5a5.19,5.19,0,0,1,1.09.64l-1-.78a4.77,4.77,0,0,1,.74.75l-.78-1a4.9,4.9,0,0,1,.62,1.06l-.5-1.19a5.86,5.86,0,0,1,.37,1.38l-.18-1.33a6.78,6.78,0,0,1,0,1.56l.17-1.33a6.33,6.33,0,0,1-.44,1.6l.51-1.19a6.41,6.41,0,0,1-.73,1.24l.78-1a5.12,5.12,0,0,1-.93.93l1-.78a5.54,5.54,0,0,1-1,.56l1.19-.51a4.34,4.34,0,0,1-1.07.29l1.33-.18a4.35,4.35,0,0,1-1.14,0l1.33.18a5.14,5.14,0,0,1-1.22-.34l1.2.51a6.05,6.05,0,0,1-1.21-.7l1,.78a6.7,6.7,0,0,1-1.16-1.16l.78,1a6.27,6.27,0,0,1-.7-1.2l.5,1.19a5.57,5.57,0,0,1-.34-1.21l.18,1.33a4.75,4.75,0,0,1,0-1.13l-.17,1.33a4,4,0,0,1,.22-.9,5,5,0,0,0-3.5-6.15,5,5,0,0,0-3.85.5,5.59,5.59,0,0,0-2.3,3Z" transform="translate(-34.89 -48.04)"></path> <path class="cls-2" d="M1385.39,386.74a173.9,173.9,0,0,0,42.46-32.62q4.51-4.75,8.65-9.85a24,24,0,0,0,4.38-7,10.22,10.22,0,0,0-.92-8.54,20,20,0,0,0-5-5.08q-3.17-2.49-6.36-4.94-5.76-4.41-11.67-8.6-13.46-9.53-27.65-17.94a5,5,0,1,0-5,8.64q12,7.09,23.42,15,5.68,3.91,11.22,8c1.88,1.39,3.74,2.8,5.6,4.22l.23.18.42.33,1.29,1,2.71,2.14a27.06,27.06,0,0,1,2.1,1.9c.67.69-.46-.58.11.17s0-.19,0-.22c.13.12.2,1.16.16.45s0,.06,0,.15c.18-1.14.08-.35,0-.14s-.16.53-.26.78c0-.11.38-.66.07-.24s-.49.88-.77,1.29c-.16.24-.34.46-.5.7.26-.38.3-.37,0,0q-4,4.95-8.31,9.59A168.75,168.75,0,0,1,1403.29,363c-.44.35-.88.7-1.33,1,.76-.58.16-.12,0,0l-.84.64c-1,.72-1.93,1.43-2.9,2.13q-2.84,2.06-5.74,4-5.92,3.9-12.15,7.3a5,5,0,0,0-1.79,6.84,5.11,5.11,0,0,0,6.84,1.8Z" transform="translate(-34.89 -48.04)"></path> <path class="cls-4" d="M1311.71,534.8c8-4.59,17.65-5.55,26.83-4.12,12,1.88,23.34,6.92,33.81,12.94,13.58,7.81,26,17.49,37.66,28a386.38,386.38,0,0,1,39,41.07c29,35,53.24,74.2,72.66,115.28a472.38,472.38,0,0,1,24.77,63.3c5.62,18.3,10.09,37.1,12.16,56.15,1.63,15,2,30.43-1.15,45.2-2.3,10.72-6.66,21.4-14.9,28.74-7,6.18-15.9,8.79-25.14,8.64-11-.18-22.07-4-32.1-8.82-13.31-6.46-25.57-15-37-24.43a347.41,347.41,0,0,1-38.95-38.06c-29.42-33.24-54-70.83-74.28-110.28-19.86-38.7-36.22-80.29-43.26-123.39-2.58-15.79-3.85-32-2.09-48,1.28-11.56,4.39-23.63,11.55-33a36,36,0,0,1,10.38-9.18c3-1.77.28-6.47-2.75-4.7-23,13.42-26.22,44.78-25.27,68.7.74,18.74,4.17,37.38,8.88,55.51a441,441,0,0,0,22,63.14,559.15,559.15,0,0,0,72.21,122.38c22.49,28.91,48.4,56.68,79.36,76.67,11.21,7.24,23.41,13.57,36.42,16.83,10,2.51,20.93,3.16,30.79-.39,24.4-8.8,31.11-37,31.84-60.17.55-17.72-1.89-35.52-5.58-52.82a397.35,397.35,0,0,0-18.85-61.53,557.89,557.89,0,0,0-69.23-125.65c-22.58-30.85-48.51-60.29-79.58-82.87-11.44-8.31-23.77-15.7-37.1-20.54-10.42-3.79-21.74-5.9-32.77-4A40.13,40.13,0,0,0,1309,530.1C1305.92,531.84,1308.66,536.54,1311.71,534.8Z" transform="translate(-34.89 -48.04)"></path> <polygon class="cls-8" points="119.31 342.81 114.99 372.14 140.88 363.51 119.31 342.81"></polygon> <circle class="cls-9" cx="273.51" cy="470.69" r="6.09"></circle> <rect class="cls-10" x="282.34" y="314.36" width="19.71" height="19.71" transform="translate(-157.85 141.5) rotate(-30)"></rect> <polygon class="cls-9" points="644.71 15.72 641.64 36.61 660.07 30.46 644.71 15.72"></polygon> <circle class="cls-11" cx="684.8" cy="213.58" r="5.82"></circle> <g> <line class="cls-12" x1="827.39" y1="112.16" x2="837.01" y2="139.62"></line> <line class="cls-12" x1="819.89" y1="131.78" x2="844.89" y2="121.33"></line> </g> <polygon class="cls-8" points="693.4 864.33 690.37 884.93 708.54 878.87 693.4 864.33"></polygon> <circle class="cls-9" cx="449.88" cy="874.63" r="6.09"></circle> <rect class="cls-10" x="481.09" y="792.4" width="19.71" height="19.71" transform="translate(-370.24 304.92) rotate(-30)"></rect> <circle class="cls-13" cx="1147.52" cy="863.25" r="5.82"></circle> <path class="cls-14" d="M1334.26,822.77a12.5,12.5,0,1,1-8-13.71,12.71,12.71,0,0,1,8,13.71c-.25,1.58,2.16,2.25,2.41.67a15,15,0,1,0-14.48,12.32,15.21,15.21,0,0,0,14.48-12.32C1337,821.86,1334.55,821.19,1334.26,822.77Z" transform="translate(-34.89 -48.04)"></path> <circle class="cls-9" cx="1309.28" cy="508.28" r="6.09"></circle> <rect class="cls-10" x="1318.09" y="913.3" width="19.71" height="19.71" transform="matrix(0.87, -0.5, 0.5, 0.87, -318.56, 739.62)"></rect> <polygon class="cls-8" points="1442.47 484.29 1438.16 513.62 1464.04 504.99 1442.47 484.29"></polygon> <rect class="cls-10" x="1604.66" y="759.19" width="19.71" height="19.71" transform="translate(-203.11 862.25) rotate(-30)"></rect> </g> <g id="Layer_5" data-name="Layer 5"> <ellipse class="cls-15" cx="433.79" cy="128.6" rx="163.75" ry="64.25" transform="translate(-53.28 96.16) rotate(-18.49)"></ellipse> </g> <g id="Layer_2" data-name="Layer 2"> <g> <path class="cls-16" d="M579.55,232c-9.86-14.6-30.44-22.25-36.08-33.33-2.72-5.35-26-65.67-36.51-84C490.65,86,394,121,380.42,151c-5,11,26.63,57.28,32,86.46,6.1,33.23,9.37,147.08,73.83,135.42,0,0,16.73,9.75,28.23-.82,0,0,14.5,9.67,30.37-2.05,0,0,15.31,19.6,21.58,28.59s23,29,35.46,16.73c7.21-7.1-.24-31.86-5.75-42.14,1.67,0,3.2-1.1,4.45-3.62,7.3-14.65,5-31.19-1.07-48.29S607,272.56,579.55,232Z" transform="translate(-34.89 -48.04)"></path> <path d="M581.71,230.74c-7.56-11.05-19.48-17.15-29.43-25.65-2.9-2.48-5.54-5.17-7.12-8.68l-.57-1.31c-.1-.22-.19-.45-.28-.67s-.28-.64,0,0l-.26-.62q-.9-2.15-1.78-4.3c-7.93-19.32-15.65-38.73-24.2-57.79-1.88-4.19-3.8-8.37-5.85-12.48-1.55-3.12-3.06-6.4-5.38-9-4.75-5.42-12.18-7.49-19.09-8.31-9.14-1.08-18.52,0-27.49,1.79a171.58,171.58,0,0,0-30.1,9,168.44,168.44,0,0,0-27.88,13.87c-7.21,4.54-14.4,9.81-19.75,16.52-1.93,2.42-4.22,5.37-4.89,8.46-.72,3.32.17,6.9,1.13,10.08,3,10.14,8.09,19.73,12.64,29.23,5.36,11.18,10.84,22.37,14.93,34.09a91.18,91.18,0,0,1,3.85,14.32c.23,1.35.44,2.71.64,4.07.11.73.22,1.46.32,2.19.05.33.09.67.14,1s0,.4.08.6.14,1,.05.37c2.23,16.62,4.1,33.28,7.33,49.75,3.51,17.95,8.29,36.36,17.59,52.26a62,62,0,0,0,15.74,18.39A41.53,41.53,0,0,0,474,376.11a51.52,51.52,0,0,0,12.88-.8l-1.93-.26c9.59,5.56,22.62,6.55,31.26-1.2l-3,.39a26.39,26.39,0,0,0,10.17,3.68,30.31,30.31,0,0,0,22.72-5.73l-3-.39c4,5.11,7.84,10.11,11.81,15.35,5.18,6.84,9.9,14.16,15.55,20.63s14.1,14.59,23.49,13.91a14.66,14.66,0,0,0,11.29-6.59c2.13-3.55,2.32-8.11,2.08-12.14A73.19,73.19,0,0,0,604,386.33,80.81,80.81,0,0,0,598.28,372l-2.16,3.76c6-.41,8.18-7.58,9.6-12.44a51.61,51.61,0,0,0,1.75-18.22,86.5,86.5,0,0,0-3.73-18.92c-.74-2.42-1.7-4.78-2.36-7.22-.16-.6-.3-1.21-.42-1.81-.07-.36-.14-.71-.19-1.06,0-.12-.17-1.11-.11-.67-.91-6.89-.4-13.95-.41-20.87a129.8,129.8,0,0,0-2.56-27.11,106.14,106.14,0,0,0-16-36.65c-1.78-2.66-6.12-.16-4.32,2.52a103.2,103.2,0,0,1,14.46,31.21,110.92,110.92,0,0,1,3.36,26.22c.14,7-.29,14,.11,21a42.89,42.89,0,0,0,1.24,8.59c.61,2.25,1.49,4.44,2.19,6.67.94,3,1.77,6.12,2.42,9.23a58.34,58.34,0,0,1,1.07,19.58,42.84,42.84,0,0,1-2.31,9.14c-.62,1.65-1.83,5.71-3.81,5.85a2.53,2.53,0,0,0-2.16,3.76,76.79,76.79,0,0,1,8,25.11c.53,3.8.81,7.92-.36,11.48a6.59,6.59,0,0,1-.82,1.73c-.09.13-.18.27-.28.4.07-.09.27-.31-.05.05a12.71,12.71,0,0,1-1.19,1.13,10.07,10.07,0,0,1-4.89,2.28c-3.66.52-7.43-1.28-10.52-3.34a50.7,50.7,0,0,1-9.75-8.93c-5.22-5.93-9.55-12.68-14.31-19q-6.53-8.61-13.17-17.13a2.49,2.49,0,0,0-3-.39c-5.68,4.13-12.52,6.4-19.55,5.11a20.83,20.83,0,0,1-8.3-3.06,2.54,2.54,0,0,0-3,.39c-4.75,4.27-11.14,4.91-17.16,3.47a31.75,31.75,0,0,1-3.33-1c-.52-.18-1-.37-1.55-.57s-.41-.16-1.11-.47c-1.3-.6-2.48-1.51-4-1.28a50.67,50.67,0,0,1-12.84.5c-.74-.08-.52-.05-1.11-.14s-1-.16-1.48-.26c-1-.19-1.94-.41-2.89-.67a37.66,37.66,0,0,1-5.08-1.81c-15.05-6.88-23.7-22.83-29.33-37.91-6.71-18-10.18-37.12-12.91-56.08-1.13-7.85-2.08-15.72-3.14-23.87-1-7.65-2-15.25-4.31-22.65-3.79-12.19-9.35-23.81-14.84-35.3-4.78-10-10.1-20-13.58-30.54a40.58,40.58,0,0,1-1.47-5.53l-.09-.61c-.11-.66,0,.55,0-.11,0-.37-.07-.73-.08-1.1s0-.67,0-1c0-.16,0-.32,0-.48,0-.43-.18.58,0-.07.07-.22.13-.45.18-.67s.26-.64-.06.1c.07-.18.16-.35.24-.53.4-.77.8-1.54,1.26-2.29a28.77,28.77,0,0,1,2.86-3.93c5.76-6.78,12.94-11.78,20.54-16.31a169.65,169.65,0,0,1,29-13.63,159.29,159.29,0,0,1,31-8.09c8.21-1.2,17.41-1.66,25.24.36q1.31.33,2.58.78c.41.14.81.29,1.22.45l.18.08.58.25a22.59,22.59,0,0,1,2.17,1.16c.34.2.67.42,1,.64l.48.34c.45.32.15.11.19.15a17.66,17.66,0,0,1,1.63,1.49c.27.27.51.56.77.85.07.08.46.59.08.09l.45.61a43.63,43.63,0,0,1,2.46,4.37c4.63,8.88,8.59,18.11,12.53,27.31,4.44,10.37,8.73,20.81,13,31.26,2.86,7,5.59,14.05,8.65,20.95a27.59,27.59,0,0,0,7.21,9.27c4.85,4.31,10.32,7.87,15.5,11.76s10.28,8.21,14,13.59C579.2,235.9,583.54,233.4,581.71,230.74Z" transform="translate(-34.89 -48.04)"></path> </g> <g id="Layer_3" data-name="Layer 3"> <g> <g> <rect class="cls-17" x="306.61" y="323.51" width="805.35" height="81.27" rx="40.63" transform="translate(-104.37 145.19) rotate(-14.8)"></rect> <path d="M1069.05,308.63l-21.68,5.73-58.5,15.45L903.4,352.39l-102.27,27-109.94,29-107.12,28.3-95.22,25.15-73.12,19.32-41.2,10.88c-1.85.49-3.69,1-5.55,1.47a38.2,38.2,0,0,1-46.4-47.68c4-13.66,15-23.06,28.47-26.62l11.17-2.95L412.5,403,492.27,382l99.34-26.24L700.68,326.9l109-28.78L908.37,272l79.14-20.91L1037.43,238l10.82-2.86c14.33-3.76,29.36-.13,39.48,11a38.21,38.21,0,0,1-18.68,62.51c-3,.84-1.73,5.52,1.29,4.68,25.78-7.18,39.34-36.16,27.71-60.45-8.94-18.65-30.29-27.76-50-22.73-9,2.3-18,4.75-26.93,7.12l-63.74,16.83-89.87,23.74-105.9,28L649.85,335.31,542.22,363.74,449.4,388.26l-67.5,17.83q-16.15,4.26-32.3,8.53c-13.5,3.59-24.71,12.48-30.13,25.55-10.05,24.24,4.65,52.72,30.3,58.45,12.82,2.87,25.22-1.63,37.48-4.87l55.59-14.68,84.69-22.37,103-27.2,111.25-29.39L851,371.24l97.38-25.72,74.78-19.76,41.74-11,5.4-1.43C1073.36,312.51,1072.08,307.83,1069.05,308.63Z" transform="translate(-34.89 -48.04)"></path> </g> <g> <g> <path d="M369.06,450.57l-1.72-6.51,1.77-.47,3.8,14.4-1.77.47-1.65-6.26-7.72,2,1.65,6.26-1.77.47-3.81-14.41,1.77-.46,1.73,6.51Z" transform="translate(-34.89 -48.04)"></path> <path d="M377.91,445.06a5.6,5.6,0,0,1,2.33-.18,4.44,4.44,0,0,1,1.88.72,5,5,0,0,1,1.41,1.49,7.59,7.59,0,0,1,.9,2.13,7.74,7.74,0,0,1,.27,2.29,4.75,4.75,0,0,1-.5,2,4.49,4.49,0,0,1-1.3,1.56,6.52,6.52,0,0,1-4.47,1.18,4.7,4.7,0,0,1-1.89-.71,4.77,4.77,0,0,1-1.41-1.48,7.59,7.59,0,0,1-.9-2.13,7.42,7.42,0,0,1-.27-2.29,4.92,4.92,0,0,1,.5-2,4.43,4.43,0,0,1,1.31-1.57A6,6,0,0,1,377.91,445.06Zm2.45,9.46a3.48,3.48,0,0,0,1.44-.71,3,3,0,0,0,.84-1.12,3.9,3.9,0,0,0,.28-1.42,6.15,6.15,0,0,0-.22-1.6,5.74,5.74,0,0,0-.6-1.48,3.65,3.65,0,0,0-.94-1.11,3.06,3.06,0,0,0-1.29-.56,3.65,3.65,0,0,0-1.59.09,3.56,3.56,0,0,0-1.43.71,3,3,0,0,0-.83,1.12,3.68,3.68,0,0,0-.27,1.43,5.5,5.5,0,0,0,.21,1.58,6.35,6.35,0,0,0,.6,1.5,3.71,3.71,0,0,0,.94,1.09,3,3,0,0,0,1.28.57A3.61,3.61,0,0,0,380.36,454.52Z" transform="translate(-34.89 -48.04)"></path> <path d="M387.43,444a3.28,3.28,0,0,1,1-1.39,4,4,0,0,1,1.57-.78,3.43,3.43,0,0,1,1.94,0,3,3,0,0,1,1.37,1,4,4,0,0,1,1-1.63,3.83,3.83,0,0,1,1.78-1,3.67,3.67,0,0,1,1.59-.11,2.76,2.76,0,0,1,1.23.55,3.57,3.57,0,0,1,.89,1.06,5.78,5.78,0,0,1,.58,1.46l1.86,7-1.73.45-1.63-6.15a9.42,9.42,0,0,0-.34-1.07,3.16,3.16,0,0,0-.52-1,2,2,0,0,0-.81-.59,1.89,1.89,0,0,0-1.18,0,2.1,2.1,0,0,0-1.06.61,2.45,2.45,0,0,0-.52,1,3.76,3.76,0,0,0-.1,1.22,6.29,6.29,0,0,0,.19,1.24l1.55,5.84-1.73.46-1.64-6.17c-.09-.34-.19-.7-.32-1.06a3.12,3.12,0,0,0-.5-1,1.91,1.91,0,0,0-.78-.6,1.82,1.82,0,0,0-1.16,0,2.24,2.24,0,0,0-1.13.65,2.67,2.67,0,0,0-.55,1,3.62,3.62,0,0,0-.11,1.24,7.58,7.58,0,0,0,.2,1.22l1.54,5.82-1.73.46-2.83-10.74,1.67-.44Z" transform="translate(-34.89 -48.04)"></path> <path d="M405,444.47a4.7,4.7,0,0,0,.65,1.24,3.34,3.34,0,0,0,.92.88,2.87,2.87,0,0,0,1.19.43,3.55,3.55,0,0,0,1.46-.11,5.35,5.35,0,0,0,.79-.28,3.39,3.39,0,0,0,.72-.46,2.47,2.47,0,0,0,.53-.63,1.78,1.78,0,0,0,.24-.8l1.78-.47a3.72,3.72,0,0,1-.27,1.51,4,4,0,0,1-.79,1.21,4.81,4.81,0,0,1-1.19.89,6.25,6.25,0,0,1-1.45.57,5.78,5.78,0,0,1-2.33.18,4.41,4.41,0,0,1-1.88-.71,4.89,4.89,0,0,1-1.4-1.49,8.22,8.22,0,0,1-.89-2.13,7.13,7.13,0,0,1-.24-2.3,5.17,5.17,0,0,1,.5-2,4.56,4.56,0,0,1,1.25-1.55,5.54,5.54,0,0,1,2.07-1,4.76,4.76,0,0,1,2.36-.07,4.42,4.42,0,0,1,1.86.93,5.49,5.49,0,0,1,1.27,1.57,6.42,6.42,0,0,1,.67,1.72c0,.13.06.25.08.37s0,.25.07.38Zm5.86-3.16a3.35,3.35,0,0,0-1.44-2A3,3,0,0,0,407,439a3.5,3.5,0,0,0-1.26.59,2.75,2.75,0,0,0-.78.93,3.35,3.35,0,0,0-.35,1.15,4.31,4.31,0,0,0,0,1.24Z" transform="translate(-34.89 -48.04)"></path> </g> <g> <path d="M513.33,420.9l-2-2.8L504.24,420l-.32,3.4-1.92.5,1.55-15.82,2.55-.67,9.14,13Zm-8.1-11.61-.83,8.93,6-1.57Z" transform="translate(-34.89 -48.04)"></path> <path d="M516.81,420l-3.8-14.4,1.73-.46,1.39,5.26a3.63,3.63,0,0,1,1.18-1.68,4.69,4.69,0,0,1,1.91-1,4.89,4.89,0,0,1,2.22-.13,4.26,4.26,0,0,1,1.78.77,5,5,0,0,1,1.31,1.52,8.32,8.32,0,0,1,.85,2.09,8.49,8.49,0,0,1,.29,2.23,4.86,4.86,0,0,1-.41,2,4.22,4.22,0,0,1-1.19,1.55,5.31,5.31,0,0,1-2,1l-.23.06a4.63,4.63,0,0,1-2,.12,4,4,0,0,1-1.61-.69l.26,1.32Zm4.68-2.74a3.19,3.19,0,0,0,1.4-.71,2.81,2.81,0,0,0,.75-1.11,4,4,0,0,0,.22-1.4,7.55,7.55,0,0,0-.21-1.58,7.33,7.33,0,0,0-.58-1.49,3.5,3.5,0,0,0-.89-1.1,2.79,2.79,0,0,0-1.24-.58,3.33,3.33,0,0,0-1.58.08,2.87,2.87,0,0,0-.91.41,3.25,3.25,0,0,0-.72.66,3.79,3.79,0,0,0-.48.79,4.17,4.17,0,0,0-.32,1.94,5.76,5.76,0,0,0,.16,1.05c.1.35.22.71.36,1.07a3.12,3.12,0,0,0,.59.94,3.26,3.26,0,0,0,3.45,1Z" transform="translate(-34.89 -48.04)"></path> <path d="M531,404.62a5.92,5.92,0,0,1,2.32-.18,4.49,4.49,0,0,1,1.88.73,4.83,4.83,0,0,1,1.42,1.49,7.41,7.41,0,0,1,.9,2.12,7.8,7.8,0,0,1,.27,2.3,4.75,4.75,0,0,1-.5,2,4.49,4.49,0,0,1-1.3,1.56,6.67,6.67,0,0,1-4.47,1.18,4.73,4.73,0,0,1-1.89-.71,4.91,4.91,0,0,1-1.42-1.48,8.23,8.23,0,0,1-.9-2.13,7.43,7.43,0,0,1-.26-2.29,5,5,0,0,1,.49-2,4.57,4.57,0,0,1,1.32-1.57A6.15,6.15,0,0,1,531,404.62Zm2.45,9.47a3.67,3.67,0,0,0,1.44-.71,3,3,0,0,0,.83-1.13,3.62,3.62,0,0,0,.29-1.41,6.15,6.15,0,0,0-.22-1.6,6,6,0,0,0-.6-1.49,3.89,3.89,0,0,0-.94-1.1,3.12,3.12,0,0,0-1.29-.56,3.7,3.7,0,0,0-1.6.09,3.51,3.51,0,0,0-1.42.71,2.86,2.86,0,0,0-.83,1.12,3.86,3.86,0,0,0-.28,1.42A5.91,5.91,0,0,0,529,411a5.6,5.6,0,0,0,.6,1.5,3.69,3.69,0,0,0,.94,1.09,2.93,2.93,0,0,0,1.27.57A3.65,3.65,0,0,0,533.43,414.09Z" transform="translate(-34.89 -48.04)"></path> <path d="M545.35,410.94a2.65,2.65,0,0,0,1.92-1.46,4.16,4.16,0,0,0,0-2.65l-1.57-6,1.73-.46,1.6,6.05a5.11,5.11,0,0,1-.22,3.94,4.77,4.77,0,0,1-3.08,2.08,4.67,4.67,0,0,1-3.68-.29,5.25,5.25,0,0,1-2.11-3.33l-1.6-6.05,1.74-.46,1.57,6a4.08,4.08,0,0,0,1.35,2.3A2.6,2.6,0,0,0,545.35,410.94Z" transform="translate(-34.89 -48.04)"></path> <path d="M552.85,399l3.3-.88.4,1.53-3.3.87,1.48,5.59a6.05,6.05,0,0,0,.28.85,2.21,2.21,0,0,0,.38.64,1.28,1.28,0,0,0,.58.35,1.9,1.9,0,0,0,.85,0,2,2,0,0,0,.78-.38,2.31,2.31,0,0,0,.5-.55l1.09,1.07a3.52,3.52,0,0,1-.93.92,4.35,4.35,0,0,1-1.22.51,3.83,3.83,0,0,1-1.53.14,2.87,2.87,0,0,1-1.2-.48,2.9,2.9,0,0,1-.76-1,8,8,0,0,1-.5-1.39L551.52,401l-1.75.46-.41-1.52,1.76-.47-.85-3.22,1.73-.45Z" transform="translate(-34.89 -48.04)"></path> </g> <g> <path d="M646.69,371.81a6.87,6.87,0,0,0-1.12.41,3.42,3.42,0,0,0-1,.63,2.18,2.18,0,0,0-.59.9,2.32,2.32,0,0,0,.78,2.39,2.85,2.85,0,0,0,1.24.48,6.91,6.91,0,0,0,1.13.08l1.2,0,1.2-.05a9.1,9.1,0,0,1,1.17,0,5,5,0,0,1,2.31.7,3,3,0,0,1,1.3,1.9,4.41,4.41,0,0,1,.12,2.13,3.86,3.86,0,0,1-.78,1.6,4.86,4.86,0,0,1-1.43,1.17,8.28,8.28,0,0,1-1.91.76,9.82,9.82,0,0,1-2,.32,5.7,5.7,0,0,1-1.9-.22,4.57,4.57,0,0,1-1.64-.87,4.9,4.9,0,0,1-1.26-1.63l1.85-.49a2.8,2.8,0,0,0,.93,1,3.44,3.44,0,0,0,1.17.46,4.25,4.25,0,0,0,1.29.05,7.85,7.85,0,0,0,1.3-.23,5.81,5.81,0,0,0,1.16-.45,3.21,3.21,0,0,0,.91-.69,2.31,2.31,0,0,0,.53-.92,2.15,2.15,0,0,0,0-1.15,1.87,1.87,0,0,0-.88-1.29,3.44,3.44,0,0,0-1.55-.36,11.17,11.17,0,0,0-1.29,0l-1.33.07c-.45,0-.89,0-1.33,0a6.75,6.75,0,0,1-1.24-.17,3.42,3.42,0,0,1-1.68-.83,3.63,3.63,0,0,1-1.09-1.88,3.92,3.92,0,0,1-.06-2A3.66,3.66,0,0,1,643,372a5,5,0,0,1,1.42-1.1,8.81,8.81,0,0,1,1.83-.7,12,12,0,0,1,1.51-.26,4.77,4.77,0,0,1,1.36.07,3.74,3.74,0,0,1,3.08,2.74l-1.74.46a2.36,2.36,0,0,0-.65-1,2.48,2.48,0,0,0-.91-.5,3.09,3.09,0,0,0-1.06-.13A7,7,0,0,0,646.69,371.81Z" transform="translate(-34.89 -48.04)"></path> <path d="M658.1,377.6a4.68,4.68,0,0,0,.64,1.24,3.49,3.49,0,0,0,.92.88,3,3,0,0,0,1.19.44,3.79,3.79,0,0,0,1.47-.12,4.32,4.32,0,0,0,.78-.28,2.92,2.92,0,0,0,.72-.45,2.28,2.28,0,0,0,.53-.63,2,2,0,0,0,.25-.81l1.77-.47a3.72,3.72,0,0,1-.27,1.51,3.78,3.78,0,0,1-.79,1.21,4.72,4.72,0,0,1-1.19.9,6.82,6.82,0,0,1-1.44.56,5.66,5.66,0,0,1-2.34.18,4.46,4.46,0,0,1-1.88-.71,4.82,4.82,0,0,1-1.39-1.48,7.89,7.89,0,0,1-.89-2.13,7.18,7.18,0,0,1-.25-2.3,5.36,5.36,0,0,1,.51-2,4.44,4.44,0,0,1,1.25-1.55,5.46,5.46,0,0,1,2.07-1,4.62,4.62,0,0,1,2.35-.08,4.42,4.42,0,0,1,1.86.93,5.66,5.66,0,0,1,1.28,1.57,6.78,6.78,0,0,1,.66,1.73l.09.37.06.37Zm5.85-3.16a3.3,3.3,0,0,0-1.44-2,2.94,2.94,0,0,0-2.4-.28,3.35,3.35,0,0,0-1.26.59,2.85,2.85,0,0,0-.78.93,3.44,3.44,0,0,0-.36,1.15,4.37,4.37,0,0,0,0,1.25Z" transform="translate(-34.89 -48.04)"></path> <path d="M669.68,379.6l-2.84-10.73,1.67-.44.52,1.64a3.69,3.69,0,0,1,1.15-1.76,5,5,0,0,1,2-1l.56-.14.42,1.63-.63.16a4,4,0,0,0-1.54.75,3,3,0,0,0-.87,1.15,3.68,3.68,0,0,0-.27,1.43,6.4,6.4,0,0,0,.21,1.6l1.39,5.24Z" transform="translate(-34.89 -48.04)"></path> <path d="M673.22,367.18l1.95-.51,5.78,8.17.92-9.95,2-.52-1.3,11.83-2.36.63Z" transform="translate(-34.89 -48.04)"></path> <path d="M685.32,359.78a1.22,1.22,0,0,1,.92.09,1.22,1.22,0,0,1,.44,1.66,1.27,1.27,0,0,1-.75.55,1.14,1.14,0,0,1-1.47-.85,1.16,1.16,0,0,1,.1-.92A1.25,1.25,0,0,1,685.32,359.78Zm3,14.89-2.84-10.73,1.73-.46,2.84,10.74Z" transform="translate(-34.89 -48.04)"></path> <path d="M697.56,372.37a6,6,0,0,1-2.33.18,4.31,4.31,0,0,1-1.85-.73,5,5,0,0,1-1.37-1.49,7.64,7.64,0,0,1-.89-2.1,7.23,7.23,0,0,1-.24-2.24,5.22,5.22,0,0,1,.5-2,4.75,4.75,0,0,1,1.27-1.61,5.76,5.76,0,0,1,2.21-1.05,6,6,0,0,1,1.49-.21,4.45,4.45,0,0,1,1.34.24,3.71,3.71,0,0,1,1.23.73,4.3,4.3,0,0,1,1,1.33l-1.77.47a2.39,2.39,0,0,0-1.31-1,3,3,0,0,0-1.65.05,3.38,3.38,0,0,0-1.45.74,3,3,0,0,0-.83,1.17,3.66,3.66,0,0,0-.24,1.42,5.65,5.65,0,0,0,.21,1.53,5.88,5.88,0,0,0,.59,1.46,3.78,3.78,0,0,0,.92,1.09,3,3,0,0,0,1.25.59,3.37,3.37,0,0,0,1.59-.09,3.91,3.91,0,0,0,.83-.3,2.89,2.89,0,0,0,.7-.48,1.91,1.91,0,0,0,.48-.68,2.19,2.19,0,0,0,.18-.9l1.8-.47a3.91,3.91,0,0,1-.21,1.59,3.84,3.84,0,0,1-.76,1.27,4.72,4.72,0,0,1-1.19.93A6.63,6.63,0,0,1,697.56,372.37Z" transform="translate(-34.89 -48.04)"></path> <path d="M704.3,365.4a4.86,4.86,0,0,0,.65,1.24,3.66,3.66,0,0,0,.92.88,2.87,2.87,0,0,0,1.19.43,3.55,3.55,0,0,0,1.46-.11,5.43,5.43,0,0,0,.79-.29,3.35,3.35,0,0,0,.72-.45,2.47,2.47,0,0,0,.53-.63,1.82,1.82,0,0,0,.24-.8l1.78-.47a3.72,3.72,0,0,1-.27,1.51,4.08,4.08,0,0,1-.79,1.21,4.63,4.63,0,0,1-1.19.89,7.29,7.29,0,0,1-1.45.57,6,6,0,0,1-2.33.18,4.42,4.42,0,0,1-1.88-.72,4.85,4.85,0,0,1-1.4-1.48,8.22,8.22,0,0,1-.89-2.13,7.13,7.13,0,0,1-.24-2.3,5.22,5.22,0,0,1,.5-2,4.65,4.65,0,0,1,1.25-1.55,5.54,5.54,0,0,1,2.07-1,4.77,4.77,0,0,1,2.36-.08,4.55,4.55,0,0,1,1.86.94,5.7,5.7,0,0,1,1.28,1.57,6.72,6.72,0,0,1,.66,1.72c0,.12.06.25.08.37s0,.25.07.38Zm5.86-3.16a3.4,3.4,0,0,0-1.44-2,3,3,0,0,0-2.41-.28,3.69,3.69,0,0,0-1.26.6,2.84,2.84,0,0,0-.78.92,3.49,3.49,0,0,0-.35,1.15,4.37,4.37,0,0,0,0,1.25Z" transform="translate(-34.89 -48.04)"></path> <path d="M717.25,357.07c-.24.07-.48.15-.73.25a3.11,3.11,0,0,0-.68.4,1.72,1.72,0,0,0-.49.61,1.29,1.29,0,0,0-.07.86,1.21,1.21,0,0,0,.8.9,3.78,3.78,0,0,0,1.49.15c.24,0,.51,0,.79-.05l.84-.07.8,0h.64a2.61,2.61,0,0,1,2.65,2.11,2.84,2.84,0,0,1-.75,2.9,4.41,4.41,0,0,1-1.23.85,9.47,9.47,0,0,1-1.48.55,8.43,8.43,0,0,1-1.53.25,4.71,4.71,0,0,1-1.51-.14,3.64,3.64,0,0,1-1.3-.66,3.14,3.14,0,0,1-1-1.31l1.75-.46a1.75,1.75,0,0,0,.72.64,3,3,0,0,0,.86.25,3.75,3.75,0,0,0,.81,0,4.47,4.47,0,0,0,.82-.15q.33-.09.75-.24a3.26,3.26,0,0,0,.76-.41,1.69,1.69,0,0,0,.53-.63,1.32,1.32,0,0,0,0-.93,1.11,1.11,0,0,0-.64-.81,2.76,2.76,0,0,0-1.21-.16l-1.06.07c-.36,0-.72.06-1.09.07a9.73,9.73,0,0,1-1.08,0,4,4,0,0,1-1-.17,2.63,2.63,0,0,1-1.16-.7,2.83,2.83,0,0,1-.73-1.35,3.14,3.14,0,0,1,0-1.59,3,3,0,0,1,.69-1.19,4.08,4.08,0,0,1,1.17-.85,6.84,6.84,0,0,1,1.42-.53,4.56,4.56,0,0,1,2.82,0,3.16,3.16,0,0,1,1.18.74,3.39,3.39,0,0,1,.72,1.09l-1.61.43a1.55,1.55,0,0,0-1-.75A3.43,3.43,0,0,0,717.25,357.07Z" transform="translate(-34.89 -48.04)"></path> </g> <g> <path d="M812.23,328.09a4.87,4.87,0,0,0-2.07,1,4.4,4.4,0,0,0-1.15,1.66,5.28,5.28,0,0,0-.36,2,8.48,8.48,0,0,0,.3,2.22,9.12,9.12,0,0,0,.88,2.19,5.42,5.42,0,0,0,1.37,1.61,4.4,4.4,0,0,0,1.83.85,5.68,5.68,0,0,0,4.7-1.43,3,3,0,0,0,.9-2l1.94-.51a5.17,5.17,0,0,1-1.22,3.39,6.83,6.83,0,0,1-3.63,2.1,7.45,7.45,0,0,1-3.06.22,5.92,5.92,0,0,1-2.47-1,6.6,6.6,0,0,1-1.85-2,10.53,10.53,0,0,1-1.19-2.85,10.18,10.18,0,0,1-.36-3,6.66,6.66,0,0,1,.62-2.66,6.1,6.1,0,0,1,1.67-2.1,7.4,7.4,0,0,1,2.79-1.33,7.63,7.63,0,0,1,2.2-.28,5.75,5.75,0,0,1,1.86.37,4.56,4.56,0,0,1,1.48.94,5.33,5.33,0,0,1,1.08,1.43l-1.8.47a3,3,0,0,0-1.76-1.34A4.78,4.78,0,0,0,812.23,328.09Z" transform="translate(-34.89 -48.04)"></path> <path d="M825.64,326.79a5.61,5.61,0,0,1,2.33-.18,4.72,4.72,0,0,1,1.88.72,5.19,5.19,0,0,1,1.42,1.49,7.9,7.9,0,0,1,.9,2.13,7.43,7.43,0,0,1,.26,2.29,4.83,4.83,0,0,1-.5,2,4.55,4.55,0,0,1-1.3,1.55,5.85,5.85,0,0,1-2.13,1,5.65,5.65,0,0,1-2.34.18,4.56,4.56,0,0,1-1.89-.71,4.88,4.88,0,0,1-1.41-1.48,7.41,7.41,0,0,1-.9-2.12,7.84,7.84,0,0,1-.27-2.3,4.83,4.83,0,0,1,.5-2,4.39,4.39,0,0,1,1.32-1.57A5.84,5.84,0,0,1,825.64,326.79Zm2.46,9.46a3.61,3.61,0,0,0,1.43-.7,3,3,0,0,0,.84-1.13,3.62,3.62,0,0,0,.28-1.41,6.1,6.1,0,0,0-.22-1.6,5.81,5.81,0,0,0-.6-1.49,3.5,3.5,0,0,0-.94-1.1,2.92,2.92,0,0,0-1.28-.57,4.09,4.09,0,0,0-3,.8,3,3,0,0,0-.82,1.12,3.54,3.54,0,0,0-.28,1.43,6.44,6.44,0,0,0,.21,1.59,6.71,6.71,0,0,0,.6,1.5,3.72,3.72,0,0,0,1,1.09,3,3,0,0,0,1.27.56A3.38,3.38,0,0,0,828.1,336.25Z" transform="translate(-34.89 -48.04)"></path> <path d="M835.9,335.69,833.07,325l1.67-.44.51,1.6a3.1,3.1,0,0,1,.46-.95,4.77,4.77,0,0,1,.72-.77,3.89,3.89,0,0,1,.9-.59,5.91,5.91,0,0,1,1-.37,4.81,4.81,0,0,1,2.06-.14,3.31,3.31,0,0,1,1.54.71A4.25,4.25,0,0,1,843,325.4a8.83,8.83,0,0,1,.72,1.89l1.57,5.93-1.74.46-1.44-5.46a11.41,11.41,0,0,0-.47-1.43,4.06,4.06,0,0,0-.69-1.13,2.32,2.32,0,0,0-1-.66,2.57,2.57,0,0,0-1.45,0,3.08,3.08,0,0,0-1.37.8,3.69,3.69,0,0,0-.79,1.19,4.17,4.17,0,0,0-.24,1.64,9.38,9.38,0,0,0,.27,1.67l1.3,4.91Z" transform="translate(-34.89 -48.04)"></path> <path d="M847.82,321.06l3.3-.87.4,1.53-3.3.87,1.48,5.58a5.65,5.65,0,0,0,.28.85,2.09,2.09,0,0,0,.38.64,1.22,1.22,0,0,0,.57.35,1.69,1.69,0,0,0,.86,0,2,2,0,0,0,.78-.38,2.28,2.28,0,0,0,.5-.54l1.09,1.06a3.41,3.41,0,0,1-.94.92,3.92,3.92,0,0,1-1.21.52,3.81,3.81,0,0,1-1.53.13,2.63,2.63,0,0,1-1.2-.48,2.74,2.74,0,0,1-.76-1,8.11,8.11,0,0,1-.5-1.4l-1.53-5.8-1.75.46-.41-1.53,1.76-.46-.85-3.22,1.73-.46Z" transform="translate(-34.89 -48.04)"></path> <path d="M862.72,327.15a3.3,3.3,0,0,1-.59,1,4.52,4.52,0,0,1-1.71,1.17,6.76,6.76,0,0,1-.93.31,5.49,5.49,0,0,1-1.48.2,4,4,0,0,1-1.37-.27,3,3,0,0,1-1.12-.8,3,3,0,0,1-.68-1.3,3.24,3.24,0,0,1-.07-1.62,2.87,2.87,0,0,1,.64-1.25,3.63,3.63,0,0,1,1.17-.89,8.47,8.47,0,0,1,1.54-.57l3.16-.83a3.74,3.74,0,0,0-1.17-2,2.49,2.49,0,0,0-2.22-.32,3.89,3.89,0,0,0-1.43.69,1.66,1.66,0,0,0-.65,1.17l-1.85.49a2.72,2.72,0,0,1,.24-1.4,3.66,3.66,0,0,1,.79-1.13,5.12,5.12,0,0,1,1.15-.83,6.13,6.13,0,0,1,1.34-.53,4.87,4.87,0,0,1,2.14-.14,3.75,3.75,0,0,1,2.73,2.06,10.07,10.07,0,0,1,.75,2l1.53,5.81-1.45.38Zm-3-2.95-1.12.31a6.35,6.35,0,0,0-1.2.46,1.84,1.84,0,0,0-.82.76,1.54,1.54,0,0,0-.08,1.11,1.62,1.62,0,0,0,.39.75,1.82,1.82,0,0,0,.65.42,2.13,2.13,0,0,0,.8.13,3.26,3.26,0,0,0,.87-.12,3.75,3.75,0,0,0,2.21-1.38,2.78,2.78,0,0,0,.34-2.41l-.14-.53Z" transform="translate(-34.89 -48.04)"></path> <path d="M871.94,326.31a6,6,0,0,1-2.33.18,4.15,4.15,0,0,1-1.85-.74,5,5,0,0,1-1.38-1.49,7.73,7.73,0,0,1-.88-2.09,7.26,7.26,0,0,1-.24-2.24,5.31,5.31,0,0,1,.5-2,4.6,4.6,0,0,1,1.27-1.6,5.76,5.76,0,0,1,2.21-1.05,6,6,0,0,1,1.49-.21,4.45,4.45,0,0,1,1.34.24,3.55,3.55,0,0,1,1.23.73,4.3,4.3,0,0,1,1,1.33l-1.77.47a2.34,2.34,0,0,0-1.31-1,3,3,0,0,0-1.65.05,3.38,3.38,0,0,0-1.45.74,2.93,2.93,0,0,0-.83,1.17,3.66,3.66,0,0,0-.24,1.42,6.06,6.06,0,0,0,.2,1.53,5.67,5.67,0,0,0,.6,1.45,3.83,3.83,0,0,0,.92,1.1,2.82,2.82,0,0,0,1.25.58,3.36,3.36,0,0,0,1.59-.08,4.12,4.12,0,0,0,.83-.3,2.89,2.89,0,0,0,.7-.48,2.14,2.14,0,0,0,.48-.69,2.11,2.11,0,0,0,.18-.89l1.79-.48a3.87,3.87,0,0,1-.2,1.59,3.65,3.65,0,0,1-.76,1.27,4.54,4.54,0,0,1-1.19.94A6.63,6.63,0,0,1,871.94,326.31Z" transform="translate(-34.89 -48.04)"></path> <path d="M878.46,313l3.3-.88.4,1.53-3.29.87,1.47,5.59a6.05,6.05,0,0,0,.28.85,2.09,2.09,0,0,0,.38.64,1.28,1.28,0,0,0,.58.35,1.76,1.76,0,0,0,.85,0,2,2,0,0,0,.78-.38,2.14,2.14,0,0,0,.5-.55L884.8,322a3.25,3.25,0,0,1-.93.92,4.53,4.53,0,0,1-1.22.52,4,4,0,0,1-1.53.13,2.87,2.87,0,0,1-1.2-.48,2.9,2.9,0,0,1-.76-1,8,8,0,0,1-.49-1.39L877.13,315l-1.75.46-.4-1.52,1.75-.47-.85-3.22,1.73-.45Z" transform="translate(-34.89 -48.04)"></path> </g> <g> <rect class="cls-4" x="939" y="260.12" width="135.91" height="48.64" rx="24.32" transform="translate(-74.14 218.57) rotate(-14.8)"></rect> <g> <path class="cls-17" d="M975.81,285.38a5.75,5.75,0,0,0-.93.33,3.13,3.13,0,0,0-.82.53,2,2,0,0,0-.52.77,1.68,1.68,0,0,0,0,1,1.57,1.57,0,0,0,.91,1.14,4.18,4.18,0,0,0,1.54.3h1.23c.41,0,.79,0,1.14,0a12.56,12.56,0,0,1,1.74,0,4.9,4.9,0,0,1,1.52.35,3.33,3.33,0,0,1,1.19.86,3.7,3.7,0,0,1,.77,1.55,4.45,4.45,0,0,1,.11,2.09,4.08,4.08,0,0,1-.78,1.64,4.85,4.85,0,0,1-1.46,1.21,8.1,8.1,0,0,1-2,.79,9.45,9.45,0,0,1-2.19.33,5.7,5.7,0,0,1-2-.28,4.61,4.61,0,0,1-1.68-1,4.84,4.84,0,0,1-1.19-1.78l2.45-.65a2.43,2.43,0,0,0,.79.88,3,3,0,0,0,1,.43,3.83,3.83,0,0,0,1.12.08,5.59,5.59,0,0,0,1.11-.19,7.24,7.24,0,0,0,1.08-.38,2.81,2.81,0,0,0,.83-.56,1.93,1.93,0,0,0,.48-.75,1.9,1.9,0,0,0,0-1,1.58,1.58,0,0,0-.75-1.08,2.79,2.79,0,0,0-1.28-.25c-.71,0-1.42,0-2.14,0a13.25,13.25,0,0,1-2.1,0,7.2,7.2,0,0,1-1.26-.23,4.31,4.31,0,0,1-1.09-.5,3.16,3.16,0,0,1-.86-.85,4,4,0,0,1-.58-1.3,4.09,4.09,0,0,1-.07-2.1,3.76,3.76,0,0,1,.83-1.61A5,5,0,0,1,973.4,284a8.55,8.55,0,0,1,3.82-1,5.39,5.39,0,0,1,1.82.29,3.86,3.86,0,0,1,1.48,1,4.61,4.61,0,0,1,1,1.74l-2.33.61a2.22,2.22,0,0,0-.57-.82,2.29,2.29,0,0,0-.79-.44,3,3,0,0,0-1-.12A6.09,6.09,0,0,0,975.81,285.38Z" transform="translate(-34.89 -48.04)"></path> <path class="cls-17" d="M984.33,280.23a1.51,1.51,0,0,1,1.15.11,1.41,1.41,0,0,1,.7,1,1.46,1.46,0,0,1-.14,1.15,1.57,1.57,0,0,1-.95.66,1.55,1.55,0,0,1-1.19-.1,1.44,1.44,0,0,1-.68-.93,1.49,1.49,0,0,1,.13-1.17A1.55,1.55,0,0,1,984.33,280.23Zm2.83,15.51L984.33,285l2.32-.61,2.83,10.74Z" transform="translate(-34.89 -48.04)"></path> <path class="cls-17" d="M1001.86,289.83c.13.61.27,1.21.43,1.8a7.28,7.28,0,0,1,.24,1.88,4.6,4.6,0,0,1-1.09,3.06,5.93,5.93,0,0,1-3,1.7,6.7,6.7,0,0,1-1.75.24,4.49,4.49,0,0,1-1.61-.25,4,4,0,0,1-1.38-.8,3.77,3.77,0,0,1-1-1.44l2.42-.64a1.63,1.63,0,0,0,1.16.87,3.43,3.43,0,0,0,1.65-.05,3.09,3.09,0,0,0,1.47-.76,2.41,2.41,0,0,0,.62-1.22,4.07,4.07,0,0,0,0-1.52c-.08-.55-.21-1.13-.36-1.73a3.14,3.14,0,0,1-1,1.51,5.23,5.23,0,0,1-1.91.92,5.67,5.67,0,0,1-2.41.15,4.43,4.43,0,0,1-1.81-.8,5.2,5.2,0,0,1-1.33-1.5,7.29,7.29,0,0,1-.84-2,7.7,7.7,0,0,1-.27-2.33,5.34,5.34,0,0,1,.47-2,4.62,4.62,0,0,1,1.26-1.6,5.4,5.4,0,0,1,2.07-1,4.84,4.84,0,0,1,2-.14,4,4,0,0,1,1.72.71l-.15-1.33,2.07-.55Zm-7.16-5.5a3.35,3.35,0,0,0-1.27.62,2.65,2.65,0,0,0-.72,1,3.13,3.13,0,0,0-.24,1.25,5.67,5.67,0,0,0,.72,2.73,3.3,3.3,0,0,0,.83.94,2.63,2.63,0,0,0,1.13.5,3.07,3.07,0,0,0,1.4-.07,2.94,2.94,0,0,0,1.28-.67,2.88,2.88,0,0,0,.71-1.05,3.59,3.59,0,0,0,.25-1.27,4.82,4.82,0,0,0-.16-1.36,4.94,4.94,0,0,0-.53-1.27,3.09,3.09,0,0,0-.85-.94,2.77,2.77,0,0,0-1.14-.48A3.46,3.46,0,0,0,994.7,284.33Z" transform="translate(-34.89 -48.04)"></path> <path class="cls-17" d="M1004.88,291.06l-2.83-10.74,2.22-.59.52,1.46a3.75,3.75,0,0,1,1.14-1.64,4.52,4.52,0,0,1,1.78-.92,4.44,4.44,0,0,1,2-.12,3.56,3.56,0,0,1,1.56.72,4.41,4.41,0,0,1,1.14,1.4,9.22,9.22,0,0,1,.74,1.94l1.56,5.89-2.33.61-1.46-5.54a9.28,9.28,0,0,0-.43-1.26,3,3,0,0,0-.64-.95,1.88,1.88,0,0,0-.93-.53,2.66,2.66,0,0,0-1.3.06,2.62,2.62,0,0,0-1.86,1.82,4,4,0,0,0-.13,1.34,6.75,6.75,0,0,0,.21,1.32l1.35,5.11Z" transform="translate(-34.89 -48.04)"></path> <path class="cls-17" d="M1031.15,268.71l2.11,8a10.43,10.43,0,0,1,.36,2.74,5.71,5.71,0,0,1-.5,2.37,4.84,4.84,0,0,1-1.48,1.85,8.25,8.25,0,0,1-5.48,1.45,5.09,5.09,0,0,1-2.21-.87,5.7,5.7,0,0,1-1.61-1.79,10.09,10.09,0,0,1-1-2.59l-2.11-8,2.36-.63,2.13,8.05a8.07,8.07,0,0,0,.63,1.65,4.13,4.13,0,0,0,1,1.23,3.18,3.18,0,0,0,1.37.66,4.49,4.49,0,0,0,3.45-.91,3,3,0,0,0,.85-1.26,4,4,0,0,0,.22-1.56,7.58,7.58,0,0,0-.27-1.72l-2.12-8.05Z" transform="translate(-34.89 -48.04)"></path> <path class="cls-17" d="M1038.89,286.54,1035,271.63l2.2-.58.53,1.49a4.14,4.14,0,0,1,1.21-1.69,4.7,4.7,0,0,1,1.86-1,5,5,0,0,1,2.08-.12,4.52,4.52,0,0,1,1.79.71A5.06,5.06,0,0,1,1046,272a8.44,8.44,0,0,1,.92,2.21,8.24,8.24,0,0,1,.28,2.31,5.37,5.37,0,0,1-.44,2,4.24,4.24,0,0,1-1.19,1.54,5.07,5.07,0,0,1-2,1,6.3,6.3,0,0,1-2,.19,4.15,4.15,0,0,1-1.82-.58l1.41,5.34Zm3.76-7.46a3,3,0,0,0,1.23-.62,2.56,2.56,0,0,0,.71-1,3.08,3.08,0,0,0,.24-1.24,4.73,4.73,0,0,0-.19-1.41,5.07,5.07,0,0,0-.53-1.33,3.41,3.41,0,0,0-.82-1,2.59,2.59,0,0,0-1.11-.49,3.14,3.14,0,0,0-1.41.09,2.87,2.87,0,0,0-1.23.63,3.29,3.29,0,0,0-.74,1,3.23,3.23,0,0,0-.28,1.26,4.51,4.51,0,0,0,.15,1.37,4.07,4.07,0,0,0,1.43,2.28A2.86,2.86,0,0,0,1042.65,279.08Z" transform="translate(-34.89 -48.04)"></path> </g> </g> </g> </g> </g> <path d="M548.44,370.54a467.62,467.62,0,0,1-31.83-62.19q-3.84-9.14-7.28-18.41a2.56,2.56,0,0,0-3.07-1.75,2.53,2.53,0,0,0-1.75,3.08,476.75,476.75,0,0,0,29.55,64.47q4.85,8.77,10.06,17.33c1.67,2.74,6,.23,4.32-2.53Z" transform="translate(-34.89 -48.04)"></path> <path d="M516.64,371c-11.86-12.12-19.17-27.71-25.15-43.38-1.73-4.55-3.37-9.13-5-13.72a2.57,2.57,0,0,0-3.08-1.75,2.52,2.52,0,0,0-1.74,3.08c5.84,16.45,11.84,33.25,21.88,47.68a89.56,89.56,0,0,0,9.56,11.63c2.25,2.3,5.79-1.24,3.53-3.54Z" transform="translate(-34.89 -48.04)"></path> <path d="M486.54,370.58C474.83,360.43,468.29,346,464,331.42c-1.25-4.28-2.32-8.6-3.29-12.94-.7-3.14-5.52-1.82-4.82,1.32,3.46,15.53,8.27,31.47,17.93,44.37a63,63,0,0,0,9.15,9.95,2.57,2.57,0,0,0,3.54,0,2.54,2.54,0,0,0,0-3.54Z" transform="translate(-34.89 -48.04)"></path> <path d="M589.54,356.27a362.2,362.2,0,0,1-31.71-71.39q-3.37-10.58-6.11-21.33c-.79-3.12-5.61-1.8-4.82,1.33a367.51,367.51,0,0,0,27.67,74.2q5,10,10.66,19.71c1.61,2.79,5.93.27,4.31-2.52Z" transform="translate(-34.89 -48.04)"></path> </g> <g id="Layer_4" data-name="Layer 4"> <g> <path class="cls-16" d="M522.43,327.5S548,385.81,572.3,402.23c14.84,10,31.18,10.35,34.76,2.38,5-11-14.39-37.06-21.63-50.49s-17-34-17-34" transform="translate(-34.89 -48.04)"></path> <path d="M520.27,328.76c3.64,8.32,7.77,16.45,12.08,24.44,7.85,14.58,16.54,29.24,27.78,41.5a57.49,57.49,0,0,0,21.45,15.19,36.81,36.81,0,0,0,14.9,2.78c3.92-.18,8.22-1.24,11-4.23,5.09-5.5,2.49-14,0-20.06-3.47-8.43-8.27-16.25-13-24-4.55-7.43-8.74-15-12.68-22.74q-5.4-10.69-10.55-21.53l-.59-1.23a2.52,2.52,0,0,0-3.42-.89,2.55,2.55,0,0,0-.89,3.42q3.69,7.79,7.52,15.51c3.95,8,7.88,16,12.46,23.7,4.45,7.42,9.16,14.69,13.16,22.37a67.06,67.06,0,0,1,4.68,10.78c.27.85.51,1.7.72,2.56.09.41.18.82.26,1.23,0,.16,0,.32.08.48s.1.74.05.28a16.73,16.73,0,0,1,.13,2.24c0,.31,0,.63,0,.94,0,.15-.08.63,0,.05,0,.19-.07.39-.11.58a7.62,7.62,0,0,1-.24.94l-.12.36c-.2.59.31-.49-.06.13-.17.29-.32.59-.5.88-.06.1-.37.48-.08.12a5.47,5.47,0,0,1-.45.51,4.66,4.66,0,0,1-1.54,1.16,7,7,0,0,1-2,.82c-3.79,1.13-8.21.69-12.21-.33a46.42,46.42,0,0,1-14.85-6.91,54.25,54.25,0,0,1-7.24-6.25,124.31,124.31,0,0,1-14.46-18.14c-4.61-6.81-8.84-13.89-12.82-21.08-5-9-9.67-18.23-13.87-27.64-.07-.15-.14-.31-.2-.46a2.52,2.52,0,0,0-3.42-.9,2.56,2.56,0,0,0-.9,3.42Z" transform="translate(-34.89 -48.04)"></path> </g> </g> <g id="Layer_10" data-name="Layer 10"> <g> <path class="cls-4" d="M347.16,899.28l-.68.56c-.1.08-.71.57-.34.28-.46.36-.94.7-1.42,1q-1.46,1-3,1.86a30.79,30.79,0,0,1-6.14,2.69,47.14,47.14,0,0,1-14.92,2.39c-12.65.22-25.11-3-37-7.43-15.48-5.7-30.11-13.64-44-22.45a400.81,400.81,0,0,1-47.49-35.64A540,540,0,0,1,143.87,795a563.63,563.63,0,0,1-44.45-56.22,458.92,458.92,0,0,1-33-55.45,287.88,287.88,0,0,1-20.05-50.58c-3.84-13.69-6.52-28-5.88-42.25A62.71,62.71,0,0,1,43.21,574,38.44,38.44,0,0,1,46,567.14c.57-1.1,1.19-2.18,1.86-3.22.31-.48.62-.95,1-1.42s.82-1.12.9-1.22a32.94,32.94,0,0,1,10.52-8.89c1-.57,2.11-1.09,3.2-1.56l.41-.17.84-.33c.57-.21,1.14-.41,1.72-.6a47.83,47.83,0,0,1,7.3-1.73,68.31,68.31,0,0,1,16.09-.19,104.72,104.72,0,0,1,18.57,3.81c14.92,4.37,29.06,11.15,42.5,18.88A361.05,361.05,0,0,1,198,603.2a513.3,513.3,0,0,1,48.21,44.7,573.52,573.52,0,0,1,46.18,54.91,493.41,493.41,0,0,1,36.14,56.29,329.48,329.48,0,0,1,23.29,52c4.86,14.38,8.67,29.39,9.43,44.61.57,11.24-.51,23-5.6,32.74a34.16,34.16,0,0,1-8.51,10.79c-2.66,2.29,1.2,6.12,3.85,3.85,8.23-7.09,12.83-17.38,14.65-27.93,2.37-13.71.93-27.83-1.89-41.36-3.62-17.32-9.76-34.06-17-50.2a418.15,418.15,0,0,0-30.53-55.81,555.26,555.26,0,0,0-43-57.89,559.2,559.2,0,0,0-49-51.22,442,442,0,0,0-49.16-39.37c-14.55-10-29.86-19-46.09-26-12.93-5.55-26.54-10-40.63-11.16-10.75-.89-22.07.38-31.56,5.83-9.3,5.33-15.62,14.28-18.85,24.39-3.93,12.3-3.62,25.66-1.89,38.32,2.24,16.49,7.21,32.56,13.32,48A382.62,382.62,0,0,0,77,714,530.77,530.77,0,0,0,117.1,771.7a572.5,572.5,0,0,0,48.3,53.66,481.08,481.08,0,0,0,49.38,42.36,314.58,314.58,0,0,0,47.12,29.39c13.34,6.62,27.47,12.28,42.19,14.93,11.18,2,23.2,2.47,34-1.47A42,42,0,0,0,351,903.13C353.68,900.86,349.82,897,347.16,899.28Z" transform="translate(-34.89 -48.04)"></path> <ellipse class="cls-18" cx="230.21" cy="711.93" rx="61.36" ry="156.37" transform="translate(-183.54 18.68) rotate(-12.5)"></ellipse> <g> <g> <path class="cls-16" d="M637.35,605.73c.45-21.35-31.3-19.43-44.54-17.46s-43.45,4.8-43.45,4.8c-2.88-23.9-23.62-28.67-23.62-28.67-.25-19-22.92-25.73-22.92-25.73-43.64-67-147.4,25.49-182,47.92-30.37,19.69-103.51,44-103.51,44C184.4,656,205.87,756.52,238.36,770.44c0,0,132.78-38.49,145.9-42.34,14.56-4.28,50.5,14.87,71.71,11.39,58.94-9.66,75.68-48.16,95.95-57.09s36.85-20.75,43.75-39.51c1.18-3.22.83-5.45-.53-7C608.88,632.19,637.1,618.06,637.35,605.73Z" transform="translate(-34.89 -48.04)"></path> <path d="M639.85,605.73a18.14,18.14,0,0,0-9.59-16.58c-6.22-3.43-13.66-4.33-20.65-4.49a116.17,116.17,0,0,0-19,1.42c-8,1.13-16.15,2-24.24,2.8q-8.5.89-17,1.69l2.5,2.5c-1.26-9.89-5.6-18.88-13.58-25a32.17,32.17,0,0,0-11.88-6l1.84,2.41c-.34-13.89-12.08-24.38-24.75-28.14l1.49,1.15c-8.25-12.56-20.39-21.81-35.41-24.32s-30.28.87-44.32,6c-16.05,5.92-31.14,14.27-45.59,23.37-13.5,8.5-26.47,17.8-39.36,27.2-10.25,7.48-20.37,15.06-31.6,21.06-16.38,8.75-33.67,15.83-51,22.54q-18.92,7.35-38.14,13.92c-.94.32-1.91.59-2.82,1-2.15.87-4.06,3.07-5.56,4.8A47.7,47.7,0,0,0,202,650.57c-4.61,15.25-4.31,31.92-2.22,47.56,2.19,16.44,6.6,32.81,13.95,47.72a78.94,78.94,0,0,0,11.46,17.59,43.62,43.62,0,0,0,6.61,6.06c1.81,1.33,4.91,3.75,7.25,3.34a44.13,44.13,0,0,0,4.74-1.37L255.71,768,293.87,757,338.36,744,374,733.7l9.72-2.84c5.75-1.68,11.66-.53,17.39.79,9.65,2.22,19.06,5.36,28.68,7.71,9,2.2,18.33,4,27.56,2.43a127.05,127.05,0,0,0,55.46-23.43,198.16,198.16,0,0,0,17.59-15.16c4.52-4.31,8.92-8.78,13.73-12.78,5.21-4.32,11.34-6.71,17.42-9.83,9.69-5,19-11.25,26.18-19.56A56.63,56.63,0,0,0,596,648.57c2.19-4.6,4.56-9.94.94-14.43l-1.1,4.18a101.56,101.56,0,0,0,27.45-12.56c6.84-4.39,16.23-11,16.59-20,.13-3.22-4.87-3.22-5,0s-2.45,6-4.59,8.2a55.7,55.7,0,0,1-10.92,8.4,97.33,97.33,0,0,1-24.86,11.17,2.54,2.54,0,0,0-1.11,4.18c1.37,1.69-.07,4.56-.77,6.23a49.32,49.32,0,0,1-3.47,6.79,55.28,55.28,0,0,1-8.78,10.86c-7.34,7.11-16.27,12.38-25.46,16.74a75.51,75.51,0,0,0-8.3,4.14,58,58,0,0,0-6,4.45c-4.41,3.66-8.46,7.73-12.6,11.7-10.7,10.27-22,19.7-35.3,26.52a120.89,120.89,0,0,1-27.29,9.95,68.33,68.33,0,0,1-14,2.34,59.73,59.73,0,0,1-12.08-1.08c-9.17-1.66-18.1-4.44-27.06-6.94-7.39-2.06-15.15-4.4-22.89-4.41-3.49,0-6.65,1-9.95,1.93l-11,3.19Q331,741,293.58,751.83l-55,15.93-.91.27,1.92.25c-5.89-2.57-10.5-7.37-14.23-12.53a97.76,97.76,0,0,1-11.59-22.14,155.16,155.16,0,0,1-10.42-56c.09-14.84,2.27-33.11,13.93-43.7.28-.26.59-.5.87-.76a2.85,2.85,0,0,0,.38-.31c.63-.77-.37.4-.58.23,0,0,.2-.07.23-.08a8.55,8.55,0,0,0,1.35-.45l6.08-2.09q11.07-3.85,22.05-8c19.78-7.4,39.54-15.21,58.41-24.73a169.46,169.46,0,0,0,20.49-12c5.81-4,11.49-8.23,17.2-12.4,15-10.93,30.13-21.7,46.07-31.21,16.11-9.61,33.27-18.41,51.65-22.68,15.41-3.58,32.11-3.3,45.51,6a49.19,49.19,0,0,1,9.21,8.5,66.22,66.22,0,0,1,4,5.38,4.62,4.62,0,0,0,2.57,2c5.64,2,11.8,5.58,15.88,10.67a20.54,20.54,0,0,1,4.52,12.43,2.53,2.53,0,0,0,1.83,2.41,26.16,26.16,0,0,1,9.7,4.8c6.94,5.09,11,13,12.09,21.46.16,1.24,1,2.64,2.5,2.5,12.4-1.16,24.79-2.4,37.14-4s25.21-3.81,37.29.15c6.59,2.17,11.13,6.75,11.06,14C634.82,608.94,639.82,609,639.85,605.73Z" transform="translate(-34.89 -48.04)"></path> </g> <g> <g> <path class="cls-6" d="M804,618.2V790a7.28,7.28,0,0,1-7.41,7.15H559.54a7.28,7.28,0,0,1-7.4-7.15V618.2a7.28,7.28,0,0,1,7.4-7.16H796.62A7.29,7.29,0,0,1,804,618.2Z" transform="translate(-34.89 -48.04)"></path> <path d="M801.53,618.2V788.79a5.9,5.9,0,0,1-1,4,5.5,5.5,0,0,1-4.59,1.84H559.87c-2.73,0-5.17-1.76-5.23-4.65,0-.63,0-1.25,0-1.88V623.58c0-2.52-.64-6.45,1.21-8.44s5-1.6,7.53-1.6H796.29c2.73,0,5.17,1.75,5.24,4.66.08,3.21,5.08,3.22,5,0a10,10,0,0,0-10.07-9.66H563c-4,0-7.83-.1-10.81,3.18s-2.56,7.41-2.56,11.49V788.33c0,.78,0,1.56,0,2.34a10,10,0,0,0,10.07,9c2.31,0,4.62,0,6.93,0H796.13a10.34,10.34,0,0,0,8.54-4.06,10.57,10.57,0,0,0,1.86-6.56V618.2C806.53,615,801.53,615,801.53,618.2Z" transform="translate(-34.89 -48.04)"></path> </g> <g> <path class="cls-19" d="M804,731.73v64.51a7.41,7.41,0,0,1-7.41,7.41H559.54a7.4,7.4,0,0,1-7.4-7.41V734.17s40.46-69.74,69.14-69.74c35.75,0,56.1,81.38,73.86,81.38s40.91-56,64.43-56C773.66,689.83,791.77,713.08,804,731.73Z" transform="translate(-34.89 -48.04)"></path> <path d="M801.53,731.73v60.43c0,1.35,0,2.7,0,4.05a5,5,0,0,1-5,4.94c-1.81,0-3.62,0-5.43,0H562.19c-2.73,0-5.61.2-7.06-2.76-.7-1.43-.49-3.23-.49-4.79V734.17l-.34,1.26c3.23-5.57,6.75-11,10.34-16.3A252.49,252.49,0,0,1,588.83,688c2.34-2.52,4.75-5,7.27-7.32q1.77-1.63,3.61-3.2c1.21-1,2.3-1.9,3.3-2.65a56.64,56.64,0,0,1,7.39-4.75c.57-.3,1.14-.58,1.73-.86l.86-.38c.38-.17-.55.21.07,0l.57-.22a27.63,27.63,0,0,1,3.48-1.11c.55-.13,1.1-.24,1.66-.34l.46-.07c-.07,0-.58.06-.12,0L620,667a22.5,22.5,0,0,1,3.67.08l.39.05c.65.07-.38-.06,0,0s.59.09.88.15c.65.12,1.3.27,1.94.44s1.15.34,1.71.54c.29.09.57.2.85.31l.47.18c.5.2-.39-.18.15.06a37.59,37.59,0,0,1,6.68,3.92c.1.08.92.7.54.4l.69.55c.58.48,1.15,1,1.71,1.46,1.09,1,2.15,2,3.17,3a97.24,97.24,0,0,1,11.39,14.44c3.69,5.52,7.07,11.25,10.35,17,3.15,5.53,6.19,11.11,9.38,16.61a122.15,122.15,0,0,0,8.54,13.26c2.33,3,5,6.28,8.58,7.88,4.05,1.83,8.34.61,12-1.67,4.95-3.11,9-7.64,12.71-12.07,4.65-5.51,9-11.28,13.43-16.92a140.44,140.44,0,0,1,14.13-15.91,40.28,40.28,0,0,1,6.88-5.37,25.92,25.92,0,0,1,3.58-1.87c-.52.22.45-.17.57-.21s.51-.19.77-.27q1-.3,2-.51c.14,0,1-.16.64-.12a5.81,5.81,0,0,0,.64-.06,15.14,15.14,0,0,1,2.13,0c.16,0,1,.12.57.06.41.06.83.15,1.24.24a22.24,22.24,0,0,1,2.4.75,35,35,0,0,1,9.29,5.85c7.5,6.24,13.78,14,19.55,21.79,2.87,3.9,5.62,7.89,8.29,11.94,1.76,2.68,6.09.18,4.32-2.52-6.85-10.4-14.23-20.67-23-29.55a60.47,60.47,0,0,0-12.77-10.28c-3.62-2.06-7.79-3.6-12-3.27-7.5.58-13.87,5.41-19.14,10.41-6.42,6.09-11.86,13.16-17.28,20.12-5.11,6.56-10.12,13.35-16.1,19.14-.59.57-1.19,1.13-1.8,1.67l-1,.83-.48.39-.14.11a22.73,22.73,0,0,1-3.77,2.37c-.17.08-1,.43-.33.16-.3.12-.61.23-.92.33l-.75.21c-.25.06-1.38.19-.54.13-.48,0-.95,0-1.44,0-.73,0,.51.15,0,0-.2,0-.41-.08-.61-.14l-.61-.2c-.57-.17.53.29,0,0s-.84-.42-1.24-.68c-.21-.13-.41-.28-.62-.42-.63-.43.19.19-.17-.12s-.88-.75-1.31-1.15a32.32,32.32,0,0,1-2.44-2.65l-.54-.65c-.11-.14-.79-1-.37-.47-.44-.58-.88-1.18-1.31-1.78a195.16,195.16,0,0,1-10.8-17.8c-7.88-14.05-15.54-28.69-26.43-40.7-4.76-5.25-10.32-9.95-16.94-12.62a25.6,25.6,0,0,0-18.61-.31c-7,2.64-13.2,7.3-18.75,12.29a162.24,162.24,0,0,0-17.4,18.72A323,323,0,0,0,552.32,729c-1.07,1.74-2.68,3.64-2.68,5.76v55.65c0,4.74-.63,10,3.51,13.37,2.51,2.07,5.3,2.36,8.33,2.36h234.7a10.13,10.13,0,0,0,10.35-10.23c0-4.09,0-8.18,0-12.26V731.73C806.53,728.51,801.53,728.51,801.53,731.73Z" transform="translate(-34.89 -48.04)"></path> </g> <g> <path class="cls-19" d="M771.69,650.9a16.41,16.41,0,1,1-16.41-16.4A16.41,16.41,0,0,1,771.69,650.9Z" transform="translate(-34.89 -48.04)"></path> <path d="M769.19,650.9a13.9,13.9,0,1,1-11.31-13.67,14,14,0,0,1,11.31,13.67c0,3.22,5,3.23,5,0a19.18,19.18,0,0,0-12.55-17.8,18.9,18.9,0,1,0,12.55,17.8C774.22,647.68,769.22,647.68,769.19,650.9Z" transform="translate(-34.89 -48.04)"></path> </g> </g> <path d="M507.19,537.86a42.74,42.74,0,0,0-23.66-3,41.82,41.82,0,0,0-28.08,18.44c-1.77,2.7,2.56,5.2,4.32,2.52a36.57,36.57,0,0,1,44.9-13.65,2.58,2.58,0,0,0,3.42-.89,2.52,2.52,0,0,0-.9-3.42Z" transform="translate(-34.89 -48.04)"></path> <path d="M529,563a30,30,0,0,0-11.55-2.59,36.86,36.86,0,0,0-12,1.1c-6.79,1.87-12.68,6-17.92,10.55-3,2.63-5.81,5.46-8.6,8.31-2.25,2.31,1.28,5.84,3.54,3.54,5.68-5.81,11.54-11.77,18.87-15.47a28.71,28.71,0,0,1,11.83-3.09c4.38-.17,9.32,0,13.33,2a2.56,2.56,0,0,0,3.42-.89A2.51,2.51,0,0,0,529,563Z" transform="translate(-34.89 -48.04)"></path> <g> <path class="cls-16" d="M504.17,681.51s13.42-17.27,22.46-23.46,85.57-22,112.71-40.33c11.38-7.68,3.5-27.36-3.34-30.23-16.83-7.08-50.59-.1-74.43,4.38s-45.57-5-60.51,11.11c-13.8,14.86-21.93,25.3-21.93,25.3" transform="translate(-34.89 -48.04)"></path> <path d="M505.94,683.28c2.22-2.86,4.56-5.64,6.94-8.38a102.88,102.88,0,0,1,13.62-13.67,18,18,0,0,1,3.13-2l.77-.34c.36-.17-.62.25-.09,0l.47-.2c.69-.27,1.38-.53,2.08-.78,3.73-1.35,7.53-2.5,11.32-3.64,11-3.3,22.11-6.36,33.14-9.64,12.28-3.65,24.53-7.48,36.51-12,5.48-2.08,10.91-4.31,16.19-6.86,2.23-1.08,4.44-2.22,6.59-3.46a30.65,30.65,0,0,0,6.3-4.33c4.55-4.44,5.31-11.08,4.17-17.06-1-5-3.4-10.7-7.43-14.05a18.11,18.11,0,0,0-7.32-3.27,55.44,55.44,0,0,0-9.76-1.47A123.87,123.87,0,0,0,600,583c-8.24.92-16.43,2.27-24.59,3.75-7.71,1.4-15.42,3.27-23.26,3.77s-15.54,0-23.32,0c-7.13.08-14.39.84-20.86,4.06a31.06,31.06,0,0,0-8.72,6.59c-3.19,3.4-6.3,6.88-9.38,10.37-3.79,4.31-7.51,8.67-11.11,13.13-.48.59-1,1.19-1.44,1.8a2.58,2.58,0,0,0,0,3.54,2.53,2.53,0,0,0,3.54,0c6.7-8.6,14-16.77,21.42-24.76a28.34,28.34,0,0,1,8.21-6.35,31.56,31.56,0,0,1,9.16-2.74c7-1.12,14.22-.59,21.28-.49,3.94.06,7.89,0,11.82-.24A105.24,105.24,0,0,0,565,593.75c7.64-1.44,15.27-2.89,23-4.11a210.34,210.34,0,0,1,23.21-2.55c6.59-.3,13.31-.26,19.66,1.34a31.78,31.78,0,0,1,4,1.27c.52.2-.19-.16.35.16.18.1.36.2.53.31s.35.24.53.36c-.44-.32.1.11.24.24a13.29,13.29,0,0,1,1.11,1.14,6.68,6.68,0,0,1,.81,1,24.43,24.43,0,0,1,1.9,3.29c2.14,4.45,3.23,10.21,1.31,15l-.24.5c-.14.28-.29.55-.45.82a7.37,7.37,0,0,1-1.07,1.45,12.42,12.42,0,0,1-2.75,2.21c-1.92,1.24-3.91,2.38-5.93,3.44a148.59,148.59,0,0,1-14.29,6.51c-11.6,4.65-23.51,8.48-35.46,12.11-11.2,3.4-22.47,6.55-33.7,9.83-4.24,1.24-8.47,2.48-12.66,3.86a60,60,0,0,0-8.51,3.27,24.26,24.26,0,0,0-4.37,3.11,84.73,84.73,0,0,0-6.83,6.44c-3.91,4.06-7.6,8.34-11.15,12.71-.61.76-1.21,1.51-1.81,2.28a2.57,2.57,0,0,0,0,3.53,2.53,2.53,0,0,0,3.54,0Z" transform="translate(-34.89 -48.04)"></path> </g> </g> <path d="M523.29,606.2a13.62,13.62,0,0,0,3.41,12.12,2.52,2.52,0,0,0,3.53,0,2.55,2.55,0,0,0,0-3.54l-.4-.44a1.45,1.45,0,0,0-.19-.23c.07.07.31.42.12.15a12.16,12.16,0,0,1-.69-1.07c-.1-.17-.19-.35-.28-.53s-.31-.69-.15-.31-.08-.22-.12-.33-.14-.43-.21-.64c-.11-.39-.19-.78-.26-1.17,0-.1,0-.2,0-.29,0,.09.06.56,0,.22s0-.4,0-.6a10.76,10.76,0,0,1,0-1.27c0-.12.09-.77,0-.34s0,.05,0,0,.05-.25.07-.37a2.5,2.5,0,1,0-4.82-1.33Z" transform="translate(-34.89 -48.04)"></path> <path d="M531.9,609.44l1.93,4.82a1.94,1.94,0,0,0,.45.85,1.8,1.8,0,0,0,.7.64,2.53,2.53,0,0,0,1.92.26,2.59,2.59,0,0,0,1.5-1.15,2.43,2.43,0,0,0,.25-1.93l-1.93-4.82a1.83,1.83,0,0,0-.44-.85,1.91,1.91,0,0,0-.71-.64,2.48,2.48,0,0,0-1.92-.25,2.51,2.51,0,0,0-1.5,1.15,2.44,2.44,0,0,0-.25,1.92Z" transform="translate(-34.89 -48.04)"></path> <path d="M586.71,597l.87,2.92a2.58,2.58,0,0,0,1.14,1.49,1.86,1.86,0,0,0,.93.3,2,2,0,0,0,1,0,2.5,2.5,0,0,0,1.75-3.08l-.87-2.92a2.56,2.56,0,0,0-1.15-1.49,1.71,1.71,0,0,0-.93-.3,2,2,0,0,0-1,0A2.55,2.55,0,0,0,587,595a2.6,2.6,0,0,0-.25,1.93Z" transform="translate(-34.89 -48.04)"></path> </g> <path d="M549.4,357.2l8.86-4.86a2.5,2.5,0,0,0-2.53-4.32l-8.85,4.86a2.5,2.5,0,1,0,2.52,4.32Z" transform="translate(-34.89 -48.04)"></path> <path d="M554.38,364.71l5-3.83a1.87,1.87,0,0,0,.7-.64,1.83,1.83,0,0,0,.44-.85,2.5,2.5,0,0,0-.25-1.93,2.53,2.53,0,0,0-1.49-1.15,2.45,2.45,0,0,0-1.93.26l-5,3.82a2.87,2.87,0,0,0-1.15,1.5,2.53,2.53,0,0,0,.26,1.92,2.46,2.46,0,0,0,1.49,1.15,2.41,2.41,0,0,0,1.93-.25Z" transform="translate(-34.89 -48.04)"></path> <path d="M583.12,386.37a.57.57,0,0,1-.08-.13l.25.6a.83.83,0,0,1,0-.15l.09.66a.43.43,0,0,1,0-.16l-.09.66a.6.6,0,0,1,.06-.19l-.26.59a2.39,2.39,0,0,1,.13-.21l-.39.51a1.21,1.21,0,0,1,.19-.2l-.5.39a1.32,1.32,0,0,1,.2-.12l-.6.26a.76.76,0,0,1,.2-.06l-.67.09a.49.49,0,0,1,.17,0l-.66-.09.14,0-.6-.25a.37.37,0,0,1,.12.07,1.85,1.85,0,0,0,.93.29,1.89,1.89,0,0,0,1,0,1.94,1.94,0,0,0,.85-.45,1.87,1.87,0,0,0,.64-.7l.25-.6a2.5,2.5,0,0,0,0-1.33l-.25-.59a2.48,2.48,0,0,0-.89-.9l-.1-.06a4.19,4.19,0,0,0-.69-.29h-.08c-.17,0-.5-.08-.67-.09h-.11a6.46,6.46,0,0,0-.75.11l-.1,0-.06,0-.63.27-.1.06,0,0c-.18.13-.37.27-.54.41l-.09.08-.07.08c-.16.19-.31.38-.45.58l-.06.1a5.93,5.93,0,0,0-.29.69.3.3,0,0,0,0,.1.11.11,0,0,1,0,.05v0c0,.22-.07.47-.09.69a.21.21,0,0,0,0,.11,4,4,0,0,0,.1.77,3.83,3.83,0,0,0,.29.7l.07.11a2.8,2.8,0,0,0,1.49,1.15,1.89,1.89,0,0,0,1,0,1.85,1.85,0,0,0,.93-.29l.51-.4a2.5,2.5,0,0,0,.64-1.1l.09-.66a2.57,2.57,0,0,0-.34-1.27Z" transform="translate(-34.89 -48.04)"></path> </g> <g id="Layer_12" data-name="Layer 12"> <g> <ellipse class="cls-20" cx="1505.46" cy="725.66" rx="146.46" ry="57.47" transform="translate(41.61 1544.27) rotate(-56.97)"></ellipse> <g> <g> <path class="cls-21" d="M1273,626.66s-8.82,3.81-28.7,9.18-74-11.65-74-11.65,50.91,12.1,68.7,6.49S1287.3,619.19,1273,626.66Z" transform="translate(-34.89 -48.04)"></path> <path d="M1271.83,624.73c.94-.41-.1,0-.48.18-.91.37-1.82.71-2.74,1.05-3.81,1.4-7.68,2.67-11.55,3.87-2.92.9-5.86,1.76-8.8,2.59a68.61,68.61,0,0,1-6.91,1.77c-.91.15-.8.13-1.76.23s-1.78.15-2.66.18c-1.83.08-3.65.06-5.48,0a157.66,157.66,0,0,1-25.19-3.46c-7.89-1.61-15.71-3.53-23.48-5.64-4-1.09-8-2.22-12-3.46l-1.18,4.31a339.12,339.12,0,0,0,38.48,6.84c8.47,1,17.25,1.85,25.75.78,4.18-.52,8.09-1.91,12.13-3q7.76-2.13,15.62-3.75c4.38-.89,8.39-1.82,12.7-1.81l.82,0c.74,0-.37-.15.24.05a2.17,2.17,0,0,0,.24.07c-.23,0-.51-.24-.66-.39a1.87,1.87,0,0,1-.3-2.14l-.07.12c.48-1,.21-.06.06-.11s-.23.21-.25.22c-.23.22.43-.26-.1.07-.81.51-1.62,1-2.47,1.45-2.55,1.33-.29,5.19,2.26,3.86A14.33,14.33,0,0,0,1278,626a2.83,2.83,0,0,0-.32-4.44,6.37,6.37,0,0,0-3.47-.67,40.62,40.62,0,0,0-5.39.51,197.21,197.21,0,0,0-30.44,7.11c-.72.22-1.44.41-2.18.57l-1.19.23-.62.1-.47.07a57.49,57.49,0,0,1-5.87.41,123.23,123.23,0,0,1-13.72-.55c-9.35-.83-18.61-2.31-27.84-4.05-5.22-1-10.44-2-15.62-3.27a2.24,2.24,0,0,0-1.18,4.31c10.87,3.42,22,6.26,33.12,8.62a187.32,187.32,0,0,0,26.22,4,63.48,63.48,0,0,0,11-.08c4.92-.55,9.67-2.15,14.39-3.55a175.59,175.59,0,0,0,19.69-6.71,2.27,2.27,0,0,0,.8-3.06A2.29,2.29,0,0,0,1271.83,624.73Z" transform="translate(-34.89 -48.04)"></path> </g> <g> <path class="cls-22" d="M1182.41,679.24a46.43,46.43,0,0,0,36.73,16.12c24-.74,38.23-9.67,38.23-9.67s-21.32,7.45-39.54,5.9C1197.17,689.82,1189.15,683.18,1182.41,679.24Z" transform="translate(-34.89 -48.04)"></path> <path d="M1180.48,680.37c5.18,6.75,13.12,11.7,21,14.52s16.54,3.09,25,2.2a91.88,91.88,0,0,0,22.33-5.05,52.38,52.38,0,0,0,9.66-4.42c2.06-1.29.77-5-1.72-4.09a112,112,0,0,1-25.89,5.64c-12.28,1.18-25.53-.36-36.66-5.7-3.72-1.78-7.13-4.07-10.69-6.16-2.48-1.46-4.74,2.41-2.25,3.86,3.15,1.85,6.18,3.89,9.45,5.55a62.4,62.4,0,0,0,15.42,5.41,80,80,0,0,0,21.88,1.74,116.45,116.45,0,0,0,19.73-3.12c3.43-.83,6.86-1.74,10.2-2.9l-1.73-4.09c-.58.36-1.19.69-1.8,1s-1.41.71-2.13,1l-1.31.59c-.62.27-.55.24-1.28.53a86.55,86.55,0,0,1-19.68,5.25c-8.08,1.2-16.43,1.56-24.36-.66a44.1,44.1,0,0,1-8.8-3.53c-1.27-.68-2.5-1.42-3.71-2.21q-.78-.51-1.53-1l-.77-.56c-.33-.24-.38-.29-.54-.41a45,45,0,0,1-4.65-4.19c-.42-.44-.84-.89-1.24-1.36-.18-.22-.83-1.05-.1-.1a2.31,2.31,0,0,0-3-.8A2.25,2.25,0,0,0,1180.48,680.37Z" transform="translate(-34.89 -48.04)"></path> </g> <g> <path class="cls-22" d="M1192.54,712.93s8,13.92,23.75,13.83a44.68,44.68,0,0,0,26.06-8.34s-13.94,4.55-26,3.22C1202.58,720.13,1197.1,715.63,1192.54,712.93Z" transform="translate(-34.89 -48.04)"></path> <path d="M1190.61,714.06a31.54,31.54,0,0,0,13.55,12.23c10.32,4.81,22.75,2.69,32.73-2a34.75,34.75,0,0,0,7-4.26c1.76-1.42-.14-4.4-2.17-3.74-13.07,4.25-28.41,5.15-41-1.09-2.47-1.23-4.75-2.76-7.11-4.17s-4.73,2.39-2.26,3.86c2.15,1.28,4.21,2.67,6.43,3.82a44.58,44.58,0,0,0,10.16,3.79c9.34,2.27,18.76,1.88,28.11-.12a70.1,70.1,0,0,0,6.84-1.78l-2.18-3.73c-.18.14.63-.46.08-.07-.36.26-.72.52-1.09.76a37.6,37.6,0,0,1-3.74,2.18,44,44,0,0,1-13.27,4.31c-5.23.85-10.66.79-15.6-1.27a27,27,0,0,1-9.19-6.47q-.82-.87-1.59-1.8l-.33-.41-.21-.26.11.14c-.18-.25-.37-.49-.54-.74a16.34,16.34,0,0,1-.93-1.41C1193,709.31,1189.17,711.56,1190.61,714.06Z" transform="translate(-34.89 -48.04)"></path> </g> <g> <path class="cls-22" d="M1202.8,744.27s6.58,11.49,19.61,11.42a36.91,36.91,0,0,0,21.52-6.89s-11.5,3.75-21.5,2.66C1211.09,750.21,1206.57,746.5,1202.8,744.27Z" transform="translate(-34.89 -48.04)"></path> <path d="M1200.87,745.4a26.37,26.37,0,0,0,11.23,10.18c8.66,4.1,19.08,2.36,27.49-1.6a29.89,29.89,0,0,0,5.93-3.6c1.76-1.42-.14-4.4-2.18-3.74-10.69,3.47-23.24,4.24-33.52-.85-2-1-3.93-2.29-5.89-3.45-2.47-1.48-4.73,2.38-2.25,3.86,1.77,1,3.48,2.21,5.31,3.16a38.22,38.22,0,0,0,8.41,3.15,51.84,51.84,0,0,0,23.28,0,54,54,0,0,0,5.85-1.51l-2.18-3.73c-.08.07.6-.43.14-.11l-.86.6a31.62,31.62,0,0,1-3,1.78,36.78,36.78,0,0,1-11,3.56,23.13,23.13,0,0,1-12.58-1,21.89,21.89,0,0,1-7.53-5.31c-.45-.48-.89-1-1.32-1.49-.1-.13-.64-.83-.27-.34l-.42-.57a13.53,13.53,0,0,1-.78-1.19C1203.3,740.65,1199.43,742.9,1200.87,745.4Z" transform="translate(-34.89 -48.04)"></path> </g> <g> <path class="cls-16" d="M1547.2,649.07c-3.46-.67-119.49-24-122.87-25.94-12-6.88-54.89-29.58-69.81-33.06-67.36-15.67-104.32,11-130.27,10.45s-49.47,3-66.13,16.48c-2.86,2.32-3.6,4.41-2.92,6.29-16.44-2.38-53.43-1.62-59.85,9-11.11,18.38,23.54,29.68,38.57,33.38s48.49,13.57,48.49,13.57c-8.85,22,10.78,34.58,10.78,34.58-9.23,16.67,11.49,31.73,11.49,31.73,10.71,63,153.6,14.28,217.93,4.13,5.63-.88,65.68,30.61,69.93,28.17C1541.51,749.68,1569.81,653.44,1547.2,649.07Z" transform="translate(-34.89 -48.04)"></path> <path d="M1547.8,646.91c-17.87-3.46-35.69-7.19-53.51-10.85-22-4.51-44.1-8.64-65.86-14.07-.94-.23-1.87-.5-2.81-.75-.42-.11-.72-.34-.12,0-.88-.48-1.74-1-2.61-1.48-6-3.32-12-6.52-18-9.66-14.11-7.32-28.45-14.78-43.42-20.21-8.6-3.12-17.87-4.5-26.91-5.63a171.81,171.81,0,0,0-30.84-1.1c-16.45.91-32.45,4.47-48.28,8.86-6,1.67-12.07,3.45-18.2,4.77s-12.13,1.44-18.48,1.46c-20.46.08-42.7,2.74-59.65,15.23-3.36,2.47-7.44,5.71-6,10.41l2.75-2.75a141.09,141.09,0,0,0-40.42.32c-10.1,1.53-23.76,4.77-24.4,17.26-.6,11.89,13.64,18.88,22.78,22.72,11.14,4.68,23,7.17,34.58,10.37q16.79,4.65,33.49,9.6l-1.56-2.75c-3.53,9-3,18.82,2.18,27.06a33.15,33.15,0,0,0,9.62,10l-.8-3.06c-6.93,13,1.6,27,12.29,34.79l-1-1.33c2.24,12.83,10.75,22.34,22.6,27.35,14.06,5.94,30.17,6.41,45.2,5.78,19.21-.8,38.32-3.85,57.19-7.43,19.25-3.66,38.34-8.05,57.46-12.31,8.34-1.85,16.68-3.69,25.06-5.34,3.69-.72,7.39-1.41,11.1-2l1.64-.27c.52-.07.35,0,.3,0a17.59,17.59,0,0,1,2.34.63,169.64,169.64,0,0,1,17.41,7.27c7.71,3.49,15.38,7.07,23.09,10.55,6.43,2.91,12.89,5.88,19.54,8.27a21.69,21.69,0,0,0,6,1.56c2.82.15,5.52-2.35,7.7-3.87,15.47-10.8,27.31-26.4,36.54-42.67,8.92-15.72,16-32.95,19.68-50.69a77.07,77.07,0,0,0,1.92-20.13c-.29-4.56-1.18-9.71-4.47-13.15a9.7,9.7,0,0,0-5-2.77c-2.81-.57-4,3.74-1.19,4.32a5.58,5.58,0,0,1,3.52,2.21,13.71,13.71,0,0,1,2.21,5.75c1.16,6,.44,12.64-.59,18.69-3.12,18.33-10.27,36.16-19.3,52.35-9.48,17-21.9,33.71-38.6,44.22l-1.42.87c-.24.14-1.47,1-.61.43-.11.07.45.09-.16,0s.2.09-.55-.08c-.46-.1-.92-.21-1.39-.34a72.62,72.62,0,0,1-7.68-2.79c-7.64-3.09-15.12-6.58-22.6-10-7.7-3.54-15.38-7.13-23.17-10.47-2.82-1.21-5.66-2.42-8.56-3.45a14.31,14.31,0,0,0-5-1.16c-3.65.12-7.53,1.24-11.11,1.92q-6.33,1.21-12.64,2.56c-9.24,2-18.46,4.05-27.68,6.11-20.28,4.54-40.59,9-61.11,12.37-18.82,3.08-38.09,5.46-57.19,4.33-13.33-.79-28.7-3.37-38.34-13.5a28.59,28.59,0,0,1-5-7.26,29,29,0,0,1-1.67-4.32c-.48-1.55-.54-3.51-1.21-5a3.68,3.68,0,0,0-1.07-1.18c-.33-.29.37.3,0,0l-.59-.47c-1.13-.95-2.23-1.95-3.27-3a32.7,32.7,0,0,1-7.36-10.56,16.79,16.79,0,0,1,.66-14.54,2.29,2.29,0,0,0-.8-3.06A14.77,14.77,0,0,1,1192,710a31.38,31.38,0,0,1-5.42-6.2c-4.83-7.39-5.14-15.85-2-24a2.26,2.26,0,0,0-1.56-2.75q-12.84-3.8-25.72-7.43c-11.13-3.14-22.54-5.61-33.53-9.25a89.29,89.29,0,0,1-16.31-7c-4.28-2.43-9-5.6-11.15-10.25a10.07,10.07,0,0,1,2.42-11.41c3.62-3.16,9-4.34,13.62-5.27a121.22,121.22,0,0,1,22.42-2.07,129,129,0,0,1,19.84,1c1.59.23,3.29-1,2.75-2.75-.64-2.15,2-3.86,3.45-5a57.13,57.13,0,0,1,6-4,67.71,67.71,0,0,1,13.48-5.92c10.16-3.26,20.84-4.57,31.47-5,7.45-.28,14.86.29,22.25-.92a164.89,164.89,0,0,0,17.14-4.09c14.73-4.08,29.47-8.05,44.72-9.6a168.09,168.09,0,0,1,29-.46c10.38.72,21.15,2.07,31.16,5a140.33,140.33,0,0,1,18.45,7.34c7.64,3.48,15.18,7.2,22.67,11q9.87,5,19.62,10.33c2.74,1.5,5.43,3.45,8.46,4.31,7.27,2.05,14.77,3.45,22.16,5q18.75,4,37.54,7.87,30.06,6.19,60.15,12.23l1.55.31C1549.42,651.77,1550.62,647.46,1547.8,646.91Z" transform="translate(-34.89 -48.04)"></path> </g> </g> <g> <rect class="cls-1" x="1078.05" y="494.64" width="39.29" height="220.26" rx="7.24" transform="translate(153.94 1419.66) rotate(-72.37)"></rect> <path d="M1190.3,652.85l-7.08-2.25-18.84-6L1137.26,636l-32-10.15L1072,615.26l-31.29-10-25.52-8.11-16.62-5.28-3.78-1.21c-3.06-1-5-3.74-4-7,1.14-3.83,2.43-7.63,3.64-11.44,1.28-4,2.48-8.08,3.84-12.07,1.1-3.23,4.27-4.32,7.32-3.35l3.66,1.16,16.24,5.16,25.51,8.11,31.09,9.88,33.29,10.59L1147.52,602l27.18,8.64,19.13,6.08c2.46.78,4.94,1.5,7.38,2.34a5.44,5.44,0,0,1,3.38,6.83c-.39,1.33-.84,2.65-1.26,4l-4.91,15.44c-.43,1.36-.84,2.73-1.3,4.09a5.44,5.44,0,0,1-6.82,3.5c-2.32-.67-3.31,2.95-1,3.62a9.21,9.21,0,0,0,10.82-4.6,31.45,31.45,0,0,0,1.47-4.22l4.92-15.48c.53-1.68,1.08-3.37,1.61-5.06a9.32,9.32,0,0,0-1.67-8.88A10.93,10.93,0,0,0,1201,615l-12.55-4-23.21-7.38L1135,594l-33.59-10.67-33.29-10.58-29.35-9.33-21.68-6.9-10.54-3.35A9.27,9.27,0,0,0,995.13,558a38.91,38.91,0,0,0-1.37,4.07l-2.37,7.44c-1.37,4.33-2.78,8.66-4.13,13a9.28,9.28,0,0,0,6.13,11.71c3.12,1,6.25,2,9.37,3l20.94,6.65,28.85,9.17,33.11,10.53,33.7,10.71L1150,644l23.94,7.61,13.59,4.32,1.77.56C1191.61,657.2,1192.6,653.58,1190.3,652.85Z" transform="translate(-34.89 -48.04)"></path> </g> <g> <path class="cls-16" d="M1277.75,620.47c-17.48,9.51-38.12,11.64-58,10.45s-39.4-5.49-59.13-8.1-59.14-6.17-65.39,9.51c-2.37,6-2.59,12,2.17,16.33,10.23,9.22,27.26,14.27,40.7,17.31a334.29,334.29,0,0,1,40.65,11.92c7.07,2.6,15.12,6.8,22.18,9.42,18.12,6.72,36.5,4.54,55.16-.48" transform="translate(-34.89 -48.04)"></path> <path d="M1276.62,618.54c-25.07,13.54-54.81,11.44-82,7.31-22.56-3.43-45.21-8.12-68.15-7.52-8.55.23-18,1-25.65,5.13a16.56,16.56,0,0,0-7.18,7c-2.49,5.17-3.44,11.93-.16,17a24.11,24.11,0,0,0,6.46,6.07,57.55,57.55,0,0,0,7.43,4.46,104.12,104.12,0,0,0,17.41,6.82c5.89,1.78,11.89,3.07,17.87,4.52q10.6,2.58,21,5.82a194.88,194.88,0,0,1,19.92,7.1c6.31,2.74,12.5,5.87,19,8,14,4.62,29,4.12,43.28,1.26,3.62-.72,7.22-1.59,10.79-2.55,2.77-.74,1.59-5.06-1.19-4.31-13.63,3.65-28,6.08-42.06,3.68a82.71,82.71,0,0,1-19.79-6.49c-6.15-2.74-12.25-5.45-18.61-7.67q-10.18-3.56-20.59-6.42c-6.39-1.77-12.84-3.22-19.28-4.78-11.23-2.73-22.8-6.26-32.39-12.91-2.16-1.5-4.53-3.18-5.84-5.51a10.86,10.86,0,0,1-.83-7.46,24.8,24.8,0,0,1,1.2-4c.25-.63-.19.39.09-.2.08-.18.17-.36.26-.53a10.47,10.47,0,0,1,.6-1,15.39,15.39,0,0,1,2.75-2.78,27,27,0,0,1,9.77-4,71.29,71.29,0,0,1,12.86-1.65c21.64-1.08,43.19,3,64.45,6.42,27,4.3,55.9,7.61,82-2.84a85.51,85.51,0,0,0,8.79-4.09c2.53-1.37.27-5.23-2.26-3.86Z" transform="translate(-34.89 -48.04)"></path> </g> <path d="M1193.74,717.42c6.75,4.13,13.43,8.75,21.34,10.25a38.54,38.54,0,0,0,20.65-1.72,37.84,37.84,0,0,0,10.43-6,2.24,2.24,0,0,0,0-3.16,2.29,2.29,0,0,0-3.16,0,33.54,33.54,0,0,1-22.37,7.05A31.5,31.5,0,0,1,1209,721.1c-4.55-2.09-8.76-4.93-13-7.54-2.47-1.5-4.71,2.36-2.26,3.86Z" transform="translate(-34.89 -48.04)"></path> <path d="M1203.34,748.27a40.85,40.85,0,0,0,44.21.94c2.42-1.53.18-5.4-2.26-3.86a36.46,36.46,0,0,1-39.7-.94,2.23,2.23,0,1,0-2.25,3.86Z" transform="translate(-34.89 -48.04)"></path> </g> </g> </svg> 