<svg width="405.000000" height="93.099121" viewBox="0 0 405 93.0991" fill="none" xmlns="http://www.w3.org/2000/svg" xmlns:xlink="http://www.w3.org/1999/xlink">
	<defs/>
	<path id="Rectangle 16 copy" d="M0 0L12 0L12 92L0 92L0 0Z" fill="#F16D7F" fill-opacity="1.000000" fill-rule="evenodd"/>
	<path id="THE BRAND OF LUXERIOUS FASHION" d="M56.296 18.6591L46.12 18.6591L46.12 47.6751L38.896 47.6751L38.896 18.6591L28.72 18.6591L28.72 12.8511L56.296 12.8511L56.296 18.6591ZM90.4488 12.8511L90.4488 47.6751L83.2008 47.6751L83.2008 32.6751L67.8647 32.6751L67.8647 47.6751L60.6167 47.6751L60.6167 12.8511L67.8647 12.8511L67.8647 27.6351L83.2008 27.6351L83.2008 12.8511L90.4488 12.8511ZM104.99 18.4911L104.99 27.4431L116.606 27.4431L116.606 32.8911L104.99 32.8911L104.99 42.0351L119.918 42.0351L119.918 47.6751L97.7418 47.6751L97.7418 12.8511L119.918 12.8511L119.918 18.4911L104.99 18.4911ZM150.063 42.1551C151.215 42.1551 152.159 42.0191 152.895 41.7471C153.647 41.4591 154.247 41.0831 154.695 40.6191C155.143 40.1551 155.455 39.6271 155.631 39.0351C155.807 38.4271 155.895 37.8031 155.895 37.1631C155.895 36.4591 155.791 35.8271 155.583 35.2671C155.375 34.7071 155.039 34.2351 154.575 33.8511C154.111 33.4511 153.503 33.1471 152.751 32.9391C152.015 32.7311 151.103 32.6271 150.015 32.6271L143.895 32.6271L143.895 42.1551L150.063 42.1551ZM143.895 18.3231L143.895 27.7311L148.623 27.7311C149.631 27.7311 150.527 27.6511 151.311 27.4911C152.095 27.3151 152.751 27.0431 153.279 26.6751C153.807 26.3071 154.207 25.8271 154.479 25.2351C154.767 24.6271 154.911 23.8991 154.911 23.0511C154.911 22.1871 154.791 21.4511 154.551 20.8431C154.327 20.2351 153.975 19.7471 153.495 19.3791C153.015 19.0111 152.407 18.7471 151.671 18.5871C150.935 18.4111 150.063 18.3231 149.055 18.3231L143.895 18.3231ZM149.055 12.8511C151.391 12.8511 153.383 13.0751 155.031 13.5231C156.695 13.9551 158.047 14.5791 159.087 15.3951C160.143 16.1951 160.911 17.1711 161.391 18.3231C161.871 19.4751 162.111 20.7631 162.111 22.1871C162.111 22.9871 161.991 23.7551 161.751 24.4911C161.527 25.2271 161.167 25.9231 160.671 26.5791C160.191 27.2191 159.567 27.8031 158.799 28.3311C158.031 28.8591 157.119 29.3071 156.063 29.6751C158.431 30.2351 160.183 31.1471 161.319 32.4111C162.455 33.6751 163.023 35.3151 163.023 37.3311C163.023 38.8031 162.735 40.1711 162.159 41.4351C161.599 42.6991 160.775 43.7951 159.687 44.7231C158.599 45.6511 157.255 46.3791 155.655 46.9071C154.071 47.4191 152.247 47.6751 150.183 47.6751L136.695 47.6751L136.695 12.8511L149.055 12.8511ZM179.419 29.3391C180.587 29.3391 181.595 29.1951 182.443 28.9071C183.291 28.6031 183.987 28.1951 184.531 27.6831C185.075 27.1551 185.475 26.5391 185.731 25.8351C185.987 25.1311 186.115 24.3631 186.115 23.5311C186.115 21.8831 185.563 20.6031 184.459 19.6911C183.371 18.7791 181.707 18.3231 179.467 18.3231L175.723 18.3231L175.723 29.3391L179.419 29.3391ZM196.291 47.6751L189.787 47.6751C188.571 47.6751 187.691 47.2111 187.147 46.2831L180.523 35.6031C180.251 35.1871 179.947 34.8831 179.611 34.6911C179.291 34.4991 178.811 34.4031 178.171 34.4031L175.723 34.4031L175.723 47.6751L168.523 47.6751L168.523 12.8511L179.467 12.8511C181.899 12.8511 183.979 13.1071 185.707 13.6191C187.435 14.1151 188.851 14.8111 189.955 15.7071C191.059 16.6031 191.867 17.6751 192.379 18.9231C192.891 20.1551 193.147 21.5151 193.147 23.0031C193.147 24.1551 192.979 25.2511 192.643 26.2911C192.323 27.3151 191.851 28.2511 191.227 29.0991C190.603 29.9471 189.835 30.6991 188.923 31.3551C188.011 32.0111 186.971 32.5391 185.803 32.9391C186.267 33.1951 186.699 33.5071 187.099 33.8751C187.499 34.2271 187.859 34.6511 188.179 35.1471L196.291 47.6751ZM218.079 34.4511L214.311 23.7951C214.087 23.2351 213.847 22.5791 213.591 21.8271C213.351 21.0751 213.119 20.2591 212.895 19.3791C212.671 20.2751 212.431 21.1071 212.175 21.8751C211.935 22.6271 211.703 23.2831 211.479 23.8431L207.735 34.4511L218.079 34.4511ZM230.175 47.6751L224.583 47.6751C223.959 47.6751 223.447 47.5311 223.047 47.2431C222.663 46.9391 222.375 46.5551 222.183 46.0911L219.831 39.4431L205.959 39.4431L203.607 46.0911C203.447 46.4911 203.167 46.8591 202.767 47.1951C202.367 47.5151 201.863 47.6751 201.255 47.6751L195.615 47.6751L209.223 12.8511L216.591 12.8511L230.175 47.6751ZM263.23 12.8511L263.23 47.6751L259.51 47.6751C258.95 47.6751 258.478 47.5871 258.094 47.4111C257.71 47.2191 257.334 46.8991 256.966 46.4511L239.614 24.3711C239.662 24.9311 239.694 25.4831 239.71 26.0271C239.742 26.5711 239.758 27.0751 239.758 27.5391L239.758 47.6751L233.398 47.6751L233.398 12.8511L237.19 12.8511C237.494 12.8511 237.75 12.8671 237.958 12.8991C238.182 12.9151 238.382 12.9711 238.558 13.0671C238.734 13.1471 238.902 13.2591 239.062 13.4031C239.222 13.5471 239.398 13.7391 239.59 13.9791L257.062 36.1551C256.998 35.5471 256.95 34.9631 256.918 34.4031C256.886 33.8271 256.87 33.2831 256.87 32.7711L256.87 12.8511L263.23 12.8511ZM301.747 30.2511C301.747 32.7951 301.315 35.1391 300.451 37.2831C299.603 39.4111 298.395 41.2431 296.827 42.7791C295.275 44.3151 293.403 45.5151 291.211 46.3791C289.019 47.2431 286.587 47.6751 283.915 47.6751L270.523 47.6751L270.523 12.8511L283.915 12.8511C286.587 12.8511 289.019 13.2831 291.211 14.1471C293.403 15.0111 295.275 16.2191 296.827 17.7711C298.395 19.3071 299.603 21.1391 300.451 23.2671C301.315 25.3951 301.747 27.7231 301.747 30.2511ZM294.355 30.2511C294.355 28.4271 294.115 26.7871 293.635 25.3311C293.155 23.8751 292.467 22.6431 291.571 21.6351C290.675 20.6271 289.579 19.8511 288.283 19.3071C287.003 18.7631 285.547 18.4911 283.915 18.4911L277.771 18.4911L277.771 42.0351L283.915 42.0351C285.547 42.0351 287.003 41.7711 288.283 41.2431C289.579 40.6991 290.675 39.9231 291.571 38.9151C292.467 37.8911 293.155 36.6511 293.635 35.1951C294.115 33.7391 294.355 32.0911 294.355 30.2511ZM52.64 74.1071C52.64 75.8031 52.3573 77.3765 51.792 78.8271C51.2373 80.2671 50.448 81.5151 49.424 82.5711C48.4 83.6271 47.168 84.4538 45.728 85.0511C44.288 85.6378 42.688 85.9311 40.928 85.9311C39.1787 85.9311 37.584 85.6378 36.144 85.0511C34.704 84.4538 33.4667 83.6271 32.432 82.5711C31.408 81.5151 30.6133 80.2671 30.048 78.8271C29.4827 77.3765 29.2 75.8031 29.2 74.1071C29.2 72.4111 29.4827 70.8431 30.048 69.4031C30.6133 67.9525 31.408 66.6991 32.432 65.6431C33.4667 64.5871 34.704 63.7658 36.144 63.1791C37.584 62.5818 39.1787 62.2831 40.928 62.2831C42.1013 62.2831 43.2053 62.4218 44.24 62.6991C45.2747 62.9658 46.224 63.3498 47.088 63.8511C47.952 64.3418 48.7253 64.9445 49.408 65.6591C50.1013 66.3631 50.688 67.1525 51.168 68.0271C51.648 68.9018 52.0107 69.8511 52.256 70.8751C52.512 71.8991 52.64 72.9765 52.64 74.1071ZM48.24 74.1071C48.24 72.8378 48.0693 71.7018 47.728 70.6991C47.3867 69.6858 46.9013 68.8271 46.272 68.1231C45.6427 67.4191 44.8747 66.8805 43.968 66.5071C43.072 66.1338 42.0587 65.9471 40.928 65.9471C39.7973 65.9471 38.7787 66.1338 37.872 66.5071C36.976 66.8805 36.208 67.4191 35.568 68.1231C34.9387 68.8271 34.4533 69.6858 34.112 70.6991C33.7707 71.7018 33.6 72.8378 33.6 74.1071C33.6 75.3765 33.7707 76.5178 34.112 77.5311C34.4533 78.5338 34.9387 79.3871 35.568 80.0911C36.208 80.7845 36.976 81.3178 37.872 81.6911C38.7787 82.0645 39.7973 82.2511 40.928 82.2511C42.0587 82.2511 43.072 82.0645 43.968 81.6911C44.8747 81.3178 45.6427 80.7845 46.272 80.0911C46.9013 79.3871 47.3867 78.5338 47.728 77.5311C48.0693 76.5178 48.24 75.3765 48.24 74.1071ZM60.7397 65.9631L60.7397 72.8111L69.4118 72.8111L69.4118 76.2511L60.7397 76.2511L60.7397 85.6751L56.4198 85.6751L56.4198 62.5391L71.0117 62.5391L71.0117 65.9631L60.7397 65.9631ZM95.0967 82.1231L95.0967 85.6751L81.5448 85.6751L81.5448 62.5391L85.8488 62.5391L85.8488 82.1231L95.0967 82.1231ZM106.857 82.2031C107.689 82.2031 108.43 82.0645 109.081 81.7871C109.742 81.5098 110.297 81.1205 110.745 80.6191C111.193 80.1178 111.534 79.5098 111.769 78.7951C112.014 78.0805 112.137 77.2805 112.137 76.3951L112.137 62.5391L116.441 62.5391L116.441 76.3951C116.441 77.7711 116.217 79.0458 115.769 80.2191C115.331 81.3818 114.697 82.3898 113.865 83.2431C113.043 84.0858 112.041 84.7471 110.857 85.2271C109.673 85.6965 108.339 85.9311 106.857 85.9311C105.363 85.9311 104.025 85.6965 102.841 85.2271C101.657 84.7471 100.649 84.0858 99.8167 83.2431C98.9954 82.3898 98.3607 81.3818 97.9128 80.2191C97.4754 79.0458 97.2568 77.7711 97.2568 76.3951L97.2568 62.5391L101.561 62.5391L101.561 76.3791C101.561 77.2645 101.678 78.0645 101.913 78.7791C102.158 79.4938 102.505 80.1071 102.953 80.6191C103.411 81.1205 103.966 81.5098 104.617 81.7871C105.278 82.0645 106.025 82.2031 106.857 82.2031ZM140.095 85.6751L135.807 85.6751C135.508 85.6751 135.268 85.6005 135.087 85.4511C134.916 85.3018 134.777 85.1311 134.671 84.9391L129.311 76.0591C129.225 76.3258 129.124 76.5551 129.007 76.7471L123.871 84.9391C123.743 85.1205 123.593 85.2911 123.423 85.4511C123.263 85.6005 123.049 85.6751 122.783 85.6751L118.767 85.6751L126.447 73.7711L119.071 62.5391L123.359 62.5391C123.657 62.5391 123.871 62.5818 123.999 62.6671C124.137 62.7418 124.265 62.8698 124.383 63.0511L129.647 71.5311C129.753 71.2645 129.881 70.9978 130.031 70.7311L134.863 63.1311C134.98 62.9285 135.108 62.7791 135.247 62.6831C135.385 62.5871 135.561 62.5391 135.775 62.5391L139.887 62.5391L132.447 73.5951L140.095 85.6751ZM147.083 65.9631L147.083 72.3791L155.18 72.3791L155.18 75.6911L147.083 75.6911L147.083 82.2351L157.355 82.2351L157.355 85.6751L142.764 85.6751L142.764 62.5391L157.355 62.5391L157.355 65.9631L147.083 65.9631ZM168.162 73.5471C168.972 73.5471 169.676 73.4458 170.274 73.2431C170.882 73.0405 171.378 72.7631 171.762 72.4111C172.156 72.0485 172.45 71.6218 172.642 71.1311C172.834 70.6405 172.93 70.1018 172.93 69.5151C172.93 68.3418 172.54 67.4405 171.762 66.8111C170.994 66.1818 169.815 65.8671 168.226 65.8671L165.474 65.8671L165.474 73.5471L168.162 73.5471ZM179.234 85.6751L175.346 85.6751C174.61 85.6751 174.076 85.3871 173.746 84.8111L168.882 77.4031C168.7 77.1258 168.498 76.9285 168.274 76.8111C168.06 76.6938 167.74 76.6351 167.314 76.6351L165.474 76.6351L165.474 85.6751L161.17 85.6751L161.17 62.5391L168.226 62.5391C169.794 62.5391 171.138 62.7045 172.258 63.0351C173.388 63.3551 174.311 63.8085 175.026 64.3951C175.751 64.9818 176.284 65.6858 176.626 66.5071C176.967 67.3178 177.138 68.2138 177.138 69.1951C177.138 69.9738 177.02 70.7098 176.786 71.4031C176.562 72.0965 176.231 72.7258 175.794 73.2911C175.367 73.8565 174.834 74.3525 174.194 74.7791C173.564 75.2058 172.844 75.5418 172.034 75.7871C172.311 75.9471 172.567 76.1391 172.802 76.3631C173.036 76.5765 173.25 76.8325 173.442 77.1311L179.234 85.6751ZM186.052 85.6751L181.732 85.6751L181.732 62.5391L186.052 62.5391L186.052 85.6751ZM213.296 74.1071C213.296 75.8031 213.014 77.3765 212.448 78.8271C211.894 80.2671 211.104 81.5151 210.08 82.5711C209.056 83.6271 207.824 84.4538 206.384 85.0511C204.944 85.6378 203.344 85.9311 201.584 85.9311C199.835 85.9311 198.24 85.6378 196.8 85.0511C195.36 84.4538 194.123 83.6271 193.088 82.5711C192.064 81.5151 191.27 80.2671 190.704 78.8271C190.139 77.3765 189.856 75.8031 189.856 74.1071C189.856 72.4111 190.139 70.8431 190.704 69.4031C191.27 67.9525 192.064 66.6991 193.088 65.6431C194.123 64.5871 195.36 63.7658 196.8 63.1791C198.24 62.5818 199.835 62.2831 201.584 62.2831C202.758 62.2831 203.862 62.4218 204.896 62.6991C205.931 62.9658 206.88 63.3498 207.744 63.8511C208.608 64.3418 209.382 64.9445 210.064 65.6591C210.758 66.3631 211.344 67.1525 211.824 68.0271C212.304 68.9018 212.667 69.8511 212.912 70.8751C213.168 71.8991 213.296 72.9765 213.296 74.1071ZM208.896 74.1071C208.896 72.8378 208.726 71.7018 208.384 70.6991C208.043 69.6858 207.558 68.8271 206.928 68.1231C206.299 67.4191 205.531 66.8805 204.624 66.5071C203.728 66.1338 202.715 65.9471 201.584 65.9471C200.454 65.9471 199.435 66.1338 198.528 66.5071C197.632 66.8805 196.864 67.4191 196.224 68.1231C195.595 68.8271 195.11 69.6858 194.768 70.6991C194.427 71.7018 194.256 72.8378 194.256 74.1071C194.256 75.3765 194.427 76.5178 194.768 77.5311C195.11 78.5338 195.595 79.3871 196.224 80.0911C196.864 80.7845 197.632 81.3178 198.528 81.6911C199.435 82.0645 200.454 82.2511 201.584 82.2511C202.715 82.2511 203.728 82.0645 204.624 81.6911C205.531 81.3178 206.299 80.7845 206.928 80.0911C207.558 79.3871 208.043 78.5338 208.384 77.5311C208.726 76.5178 208.896 75.3765 208.896 74.1071ZM226.388 82.2031C227.22 82.2031 227.961 82.0645 228.612 81.7871C229.273 81.5098 229.828 81.1205 230.276 80.6191C230.724 80.1178 231.065 79.5098 231.3 78.7951C231.545 78.0805 231.668 77.2805 231.668 76.3951L231.668 62.5391L235.972 62.5391L235.972 76.3951C235.972 77.7711 235.748 79.0458 235.3 80.2191C234.863 81.3818 234.228 82.3898 233.396 83.2431C232.575 84.0858 231.572 84.7471 230.388 85.2271C229.204 85.6965 227.871 85.9311 226.388 85.9311C224.895 85.9311 223.556 85.6965 222.372 85.2271C221.188 84.7471 220.18 84.0858 219.348 83.2431C218.527 82.3898 217.892 81.3818 217.444 80.2191C217.007 79.0458 216.788 77.7711 216.788 76.3951L216.788 62.5391L221.092 62.5391L221.092 76.3791C221.092 77.2645 221.209 78.0645 221.444 78.7791C221.689 79.4938 222.036 80.1071 222.484 80.6191C222.943 81.1205 223.497 81.5098 224.148 81.7871C224.809 82.0645 225.556 82.2031 226.388 82.2031ZM253.146 66.7471C253.018 66.9711 252.879 67.1365 252.73 67.2431C252.591 67.3391 252.415 67.3871 252.202 67.3871C251.978 67.3871 251.733 67.3071 251.466 67.1471C251.21 66.9765 250.901 66.7898 250.538 66.5871C250.175 66.3845 249.749 66.2031 249.258 66.0431C248.778 65.8725 248.207 65.7871 247.546 65.7871C246.949 65.7871 246.426 65.8618 245.978 66.0111C245.53 66.1498 245.151 66.3471 244.842 66.6031C244.543 66.8591 244.319 67.1685 244.17 67.5311C244.021 67.8831 243.946 68.2725 243.946 68.6991C243.946 69.2431 244.095 69.6965 244.394 70.0591C244.703 70.4218 245.109 70.7311 245.61 70.9871C246.111 71.2431 246.682 71.4725 247.322 71.6751C247.962 71.8778 248.618 72.0965 249.29 72.3311C249.962 72.5551 250.618 72.8218 251.258 73.1311C251.898 73.4298 252.469 73.8138 252.97 74.2831C253.471 74.7418 253.871 75.3071 254.17 75.9791C254.479 76.6511 254.634 77.4671 254.634 78.4271C254.634 79.4725 254.453 80.4538 254.09 81.3711C253.738 82.2778 253.215 83.0725 252.522 83.7551C251.839 84.4271 251.002 84.9605 250.01 85.3551C249.018 85.7391 247.882 85.9311 246.602 85.9311C245.866 85.9311 245.141 85.8565 244.426 85.7071C243.711 85.5685 243.023 85.3658 242.362 85.0991C241.711 84.8325 241.098 84.5125 240.522 84.1391C239.946 83.7658 239.434 83.3498 238.986 82.8911L240.25 80.8271C240.357 80.6778 240.495 80.5551 240.666 80.4591C240.837 80.3525 241.018 80.2991 241.21 80.2991C241.477 80.2991 241.765 80.4111 242.074 80.6351C242.383 80.8485 242.751 81.0885 243.178 81.3551C243.605 81.6218 244.101 81.8671 244.666 82.0911C245.242 82.3045 245.93 82.4111 246.73 82.4111C247.957 82.4111 248.906 82.1231 249.578 81.5471C250.25 80.9605 250.586 80.1231 250.586 79.0351C250.586 78.4271 250.431 77.9311 250.122 77.5471C249.823 77.1631 249.423 76.8431 248.922 76.5871C248.421 76.3205 247.85 76.0965 247.21 75.9151C246.57 75.7338 245.919 75.5365 245.258 75.3231C244.597 75.1098 243.946 74.8538 243.306 74.5551C242.666 74.2565 242.095 73.8671 241.594 73.3871C241.093 72.9071 240.687 72.3098 240.378 71.5951C240.079 70.8698 239.93 69.9791 239.93 68.9231C239.93 68.0805 240.095 67.2591 240.426 66.4591C240.767 65.6591 241.258 64.9498 241.898 64.3311C242.538 63.7125 243.327 63.2165 244.266 62.8431C245.205 62.4698 246.282 62.2831 247.498 62.2831C248.863 62.2831 250.122 62.4965 251.274 62.9231C252.426 63.3498 253.407 63.9471 254.218 64.7151L253.146 66.7471Z" fill="#222222" fill-opacity="1.000000" fill-rule="evenodd"/>
	<path id="THE BRAND OF LUXERIOUS FASHION" d="M270.49 65.9631L270.49 72.8111L279.162 72.8111L279.162 76.2511L270.49 76.2511L270.49 85.6751L266.17 85.6751L266.17 62.5391L280.762 62.5391L280.762 65.9631L270.49 65.9631ZM294.612 76.9391L291.797 69.2431C291.658 68.9018 291.514 68.4965 291.365 68.0271C291.215 67.5578 291.066 67.0511 290.917 66.5071C290.778 67.0511 290.634 67.5631 290.484 68.0431C290.335 68.5125 290.191 68.9231 290.052 69.2751L287.253 76.9391L294.612 76.9391ZM302.212 85.6751L298.884 85.6751C298.511 85.6751 298.207 85.5845 297.973 85.4031C297.738 85.2111 297.562 84.9765 297.444 84.6991L295.716 79.9791L286.133 79.9791L284.405 84.6991C284.319 84.9445 284.154 85.1685 283.909 85.3711C283.663 85.5738 283.359 85.6751 282.997 85.6751L279.637 85.6751L288.741 62.5391L293.125 62.5391L302.212 85.6751ZM316.927 66.7471C316.799 66.9711 316.661 67.1365 316.511 67.2431C316.373 67.3391 316.197 67.3871 315.983 67.3871C315.759 67.3871 315.514 67.3071 315.247 67.1471C314.991 66.9765 314.682 66.7898 314.319 66.5871C313.957 66.3845 313.53 66.2031 313.039 66.0431C312.559 65.8725 311.989 65.7871 311.327 65.7871C310.73 65.7871 310.207 65.8618 309.759 66.0111C309.311 66.1498 308.933 66.3471 308.623 66.6031C308.325 66.8591 308.101 67.1685 307.951 67.5311C307.802 67.8831 307.727 68.2725 307.727 68.6991C307.727 69.2431 307.877 69.6965 308.175 70.0591C308.485 70.4218 308.89 70.7311 309.391 70.9871C309.893 71.2431 310.463 71.4725 311.103 71.6751C311.743 71.8778 312.399 72.0965 313.071 72.3311C313.743 72.5551 314.399 72.8218 315.039 73.1311C315.679 73.4298 316.25 73.8138 316.751 74.2831C317.253 74.7418 317.653 75.3071 317.951 75.9791C318.261 76.6511 318.415 77.4671 318.415 78.4271C318.415 79.4725 318.234 80.4538 317.871 81.3711C317.519 82.2778 316.997 83.0725 316.303 83.7551C315.621 84.4271 314.783 84.9605 313.791 85.3551C312.799 85.7391 311.663 85.9311 310.383 85.9311C309.647 85.9311 308.922 85.8565 308.207 85.7071C307.493 85.5685 306.805 85.3658 306.143 85.0991C305.493 84.8325 304.879 84.5125 304.303 84.1391C303.727 83.7658 303.215 83.3498 302.767 82.8911L304.031 80.8271C304.138 80.6778 304.277 80.5551 304.447 80.4591C304.618 80.3525 304.799 80.2991 304.991 80.2991C305.258 80.2991 305.546 80.4111 305.855 80.6351C306.165 80.8485 306.533 81.0885 306.959 81.3551C307.386 81.6218 307.882 81.8671 308.447 82.0911C309.023 82.3045 309.711 82.4111 310.511 82.4111C311.738 82.4111 312.687 82.1231 313.359 81.5471C314.031 80.9605 314.367 80.1231 314.367 79.0351C314.367 78.4271 314.213 77.9311 313.903 77.5471C313.605 77.1631 313.205 76.8431 312.703 76.5871C312.202 76.3205 311.631 76.0965 310.991 75.9151C310.351 75.7338 309.701 75.5365 309.039 75.3231C308.378 75.1098 307.727 74.8538 307.087 74.5551C306.447 74.2565 305.877 73.8671 305.375 73.3871C304.874 72.9071 304.469 72.3098 304.159 71.5951C303.861 70.8698 303.711 69.9791 303.711 68.9231C303.711 68.0805 303.877 67.2591 304.207 66.4591C304.549 65.6591 305.039 64.9498 305.679 64.3311C306.319 63.7125 307.109 63.2165 308.047 62.8431C308.986 62.4698 310.063 62.2831 311.279 62.2831C312.645 62.2831 313.903 62.4965 315.055 62.9231C316.207 63.3498 317.189 63.9471 317.999 64.7151L316.927 66.7471ZM341.674 62.5391L341.674 85.6751L337.354 85.6751L337.354 75.5631L326.49 75.5631L326.49 85.6751L322.17 85.6751L322.17 62.5391L326.49 62.5391L326.49 72.4911L337.354 72.4911L337.354 62.5391L341.674 62.5391ZM351.146 85.6751L346.826 85.6751L346.826 62.5391L351.146 62.5391L351.146 85.6751ZM378.39 74.1071C378.39 75.8031 378.107 77.3765 377.542 78.8271C376.987 80.2671 376.198 81.5151 375.174 82.5711C374.15 83.6271 372.918 84.4538 371.478 85.0511C370.038 85.6378 368.438 85.9311 366.678 85.9311C364.929 85.9311 363.334 85.6378 361.894 85.0511C360.454 84.4538 359.217 83.6271 358.182 82.5711C357.158 81.5151 356.363 80.2671 355.798 78.8271C355.233 77.3765 354.95 75.8031 354.95 74.1071C354.95 72.4111 355.233 70.8431 355.798 69.4031C356.363 67.9525 357.158 66.6991 358.182 65.6431C359.217 64.5871 360.454 63.7658 361.894 63.1791C363.334 62.5818 364.929 62.2831 366.678 62.2831C367.851 62.2831 368.955 62.4218 369.99 62.6991C371.025 62.9658 371.974 63.3498 372.838 63.8511C373.702 64.3418 374.475 64.9445 375.158 65.6591C375.851 66.3631 376.438 67.1525 376.918 68.0271C377.398 68.9018 377.761 69.8511 378.006 70.8751C378.262 71.8991 378.39 72.9765 378.39 74.1071ZM373.99 74.1071C373.99 72.8378 373.819 71.7018 373.478 70.6991C373.137 69.6858 372.651 68.8271 372.022 68.1231C371.393 67.4191 370.625 66.8805 369.718 66.5071C368.822 66.1338 367.809 65.9471 366.678 65.9471C365.547 65.9471 364.529 66.1338 363.622 66.5071C362.726 66.8805 361.958 67.4191 361.318 68.1231C360.689 68.8271 360.203 69.6858 359.862 70.6991C359.521 71.7018 359.35 72.8378 359.35 74.1071C359.35 75.3765 359.521 76.5178 359.862 77.5311C360.203 78.5338 360.689 79.3871 361.318 80.0911C361.958 80.7845 362.726 81.3178 363.622 81.6911C364.529 82.0645 365.547 82.2511 366.678 82.2511C367.809 82.2511 368.822 82.0645 369.718 81.6911C370.625 81.3178 371.393 80.7845 372.022 80.0911C372.651 79.3871 373.137 78.5338 373.478 77.5311C373.819 76.5178 373.99 75.3765 373.99 74.1071ZM401.674 62.5391L401.674 85.6751L399.466 85.6751C399.124 85.6751 398.836 85.6218 398.602 85.5151C398.378 85.3978 398.159 85.2058 397.946 84.9391L385.866 69.5151C385.93 70.2191 385.962 70.8698 385.962 71.4671L385.962 85.6751L382.17 85.6751L382.17 62.5391L384.426 62.5391C384.607 62.5391 384.762 62.5498 384.89 62.5711C385.028 62.5818 385.146 62.6138 385.242 62.6671C385.348 62.7098 385.45 62.7791 385.546 62.8751C385.642 62.9605 385.748 63.0778 385.866 63.2271L397.994 78.7151C397.962 78.3418 397.935 77.9738 397.914 77.6111C397.892 77.2485 397.882 76.9125 397.882 76.6031L397.882 62.5391L401.674 62.5391Z" fill="#F16D7F" fill-opacity="1.000000" fill-rule="evenodd"/>
</svg>
