<svg width="372.953796" height="73.080078" viewBox="0 0 372.954 73.0801" fill="none" xmlns="http://www.w3.org/2000/svg" xmlns:xlink="http://www.w3.org/1999/xlink">
	<desc>
			Created with Pixso.
	</desc>
	<defs/>
	<path id="THE BRAND OF LUXERIOUS FASHION" d="M27.576 5.80804L17.4 5.80804L17.4 34.824L10.176 34.824L10.176 5.80804L2.93255e-05 5.80804L2.93255e-05 4.57764e-05L27.576 4.57764e-05L27.576 5.80804ZM61.7288 4.57764e-05L61.7288 34.824L54.4808 34.824L54.4808 19.824L39.1448 19.824L39.1448 34.824L31.8968 34.824L31.8968 4.57764e-05L39.1448 4.57764e-05L39.1448 14.784L54.4808 14.784L54.4808 4.57764e-05L61.7288 4.57764e-05ZM76.2698 5.64005L76.2698 14.592L87.8858 14.592L87.8858 20.04L76.2698 20.04L76.2698 29.184L91.1978 29.184L91.1978 34.824L69.0218 34.824L69.0218 4.57764e-05L91.1978 4.57764e-05L91.1978 5.64005L76.2698 5.64005ZM121.343 29.304C122.495 29.304 123.439 29.168 124.175 28.896C124.927 28.608 125.527 28.232 125.975 27.768C126.423 27.304 126.735 26.776 126.911 26.184C127.087 25.576 127.175 24.952 127.175 24.312C127.175 23.608 127.071 22.976 126.863 22.416C126.655 21.856 126.319 21.384 125.855 21C125.391 20.6 124.783 20.296 124.031 20.088C123.295 19.88 122.383 19.776 121.295 19.776L115.175 19.776L115.175 29.304L121.343 29.304ZM115.175 5.47205L115.175 14.88L119.903 14.88C120.911 14.88 121.807 14.8 122.591 14.64C123.375 14.464 124.031 14.192 124.559 13.824C125.087 13.456 125.487 12.976 125.759 12.384C126.047 11.776 126.191 11.048 126.191 10.2C126.191 9.33605 126.071 8.60004 125.831 7.99205C125.607 7.38405 125.255 6.89605 124.775 6.52805C124.295 6.16005 123.687 5.89605 122.951 5.73605C122.215 5.56005 121.343 5.47205 120.335 5.47205L115.175 5.47205ZM120.335 4.57764e-05C122.671 4.57764e-05 124.663 0.224045 126.311 0.672047C127.975 1.10405 129.327 1.72805 130.367 2.54405C131.423 3.34405 132.191 4.32005 132.671 5.47205C133.151 6.62405 133.391 7.91205 133.391 9.33605C133.391 10.136 133.271 10.904 133.031 11.64C132.807 12.376 132.447 13.072 131.951 13.728C131.471 14.368 130.847 14.952 130.079 15.48C129.311 16.008 128.399 16.456 127.343 16.824C129.711 17.384 131.463 18.296 132.599 19.56C133.735 20.824 134.303 22.464 134.303 24.48C134.303 25.952 134.015 27.32 133.439 28.584C132.879 29.848 132.055 30.944 130.967 31.872C129.879 32.8 128.535 33.528 126.935 34.056C125.351 34.568 123.527 34.824 121.463 34.824L107.975 34.824L107.975 4.57764e-05L120.335 4.57764e-05ZM150.699 16.488C151.867 16.488 152.875 16.344 153.723 16.056C154.571 15.752 155.267 15.344 155.811 14.832C156.355 14.304 156.755 13.688 157.011 12.984C157.267 12.28 157.395 11.512 157.395 10.68C157.395 9.03205 156.843 7.75205 155.739 6.84005C154.651 5.92805 152.987 5.47205 150.747 5.47205L147.003 5.47205L147.003 16.488L150.699 16.488ZM167.571 34.824L161.067 34.824C159.851 34.824 158.971 34.36 158.427 33.432L151.803 22.752C151.531 22.336 151.227 22.032 150.891 21.84C150.571 21.648 150.091 21.552 149.451 21.552L147.003 21.552L147.003 34.824L139.803 34.824L139.803 4.57764e-05L150.747 4.57764e-05C153.179 4.57764e-05 155.259 0.256046 156.987 0.768047C158.715 1.26405 160.131 1.96004 161.235 2.85605C162.339 3.75205 163.147 4.82405 163.659 6.07204C164.171 7.30404 164.427 8.66405 164.427 10.152C164.427 11.304 164.259 12.4 163.923 13.44C163.603 14.464 163.131 15.4 162.507 16.248C161.883 17.096 161.115 17.848 160.203 18.504C159.291 19.16 158.251 19.688 157.083 20.088C157.547 20.344 157.979 20.656 158.379 21.024C158.779 21.376 159.139 21.8 159.459 22.296L167.571 34.824ZM189.359 21.6L185.591 10.944C185.367 10.384 185.127 9.72805 184.871 8.97605C184.631 8.22405 184.399 7.40805 184.175 6.52805C183.951 7.42405 183.711 8.25605 183.455 9.02405C183.215 9.77605 182.983 10.432 182.759 10.992L179.015 21.6L189.359 21.6ZM201.455 34.824L195.863 34.824C195.239 34.824 194.727 34.68 194.327 34.392C193.943 34.088 193.655 33.704 193.463 33.24L191.111 26.592L177.239 26.592L174.887 33.24C174.727 33.64 174.447 34.008 174.047 34.344C173.647 34.664 173.143 34.824 172.535 34.824L166.895 34.824L180.503 4.57764e-05L187.871 4.57764e-05L201.455 34.824ZM234.51 4.57764e-05L234.51 34.824L230.79 34.824C230.23 34.824 229.758 34.736 229.374 34.56C228.99 34.368 228.614 34.048 228.246 33.6L210.894 11.52C210.942 12.08 210.974 12.632 210.99 13.176C211.022 13.72 211.038 14.224 211.038 14.688L211.038 34.824L204.678 34.824L204.678 4.57764e-05L208.47 4.57764e-05C208.774 4.57764e-05 209.03 0.0160446 209.238 0.0480461C209.462 0.064045 209.662 0.120045 209.838 0.216045C210.014 0.296047 210.182 0.408047 210.342 0.552044C210.502 0.696045 210.678 0.888046 210.87 1.12805L228.342 23.304C228.278 22.696 228.23 22.112 228.198 21.552C228.166 20.976 228.15 20.432 228.15 19.92L228.15 4.57764e-05L234.51 4.57764e-05ZM273.027 17.4C273.027 19.944 272.595 22.288 271.731 24.432C270.883 26.56 269.675 28.392 268.107 29.928C266.555 31.464 264.683 32.664 262.491 33.528C260.299 34.392 257.867 34.824 255.195 34.824L241.803 34.824L241.803 4.57764e-05L255.195 4.57764e-05C257.867 4.57764e-05 260.299 0.432045 262.491 1.29605C264.683 2.16005 266.555 3.36805 268.107 4.92005C269.675 6.45605 270.883 8.28804 271.731 10.416C272.595 12.544 273.027 14.872 273.027 17.4ZM265.635 17.4C265.635 15.576 265.395 13.936 264.915 12.48C264.435 11.024 263.747 9.79205 262.851 8.78405C261.955 7.77605 260.859 7.00005 259.563 6.45605C258.283 5.91204 256.827 5.64005 255.195 5.64005L249.051 5.64005L249.051 29.184L255.195 29.184C256.827 29.184 258.283 28.92 259.563 28.392C260.859 27.848 261.955 27.072 262.851 26.064C263.747 25.04 264.435 23.8 264.915 22.344C265.395 20.888 265.635 19.24 265.635 17.4ZM23.92 61.2561C23.92 62.952 23.6374 64.5254 23.072 65.9761C22.5174 67.4161 21.728 68.664 20.704 69.72C19.68 70.7761 18.448 71.6027 17.008 72.2001C15.568 72.7867 13.968 73.08 12.208 73.08C10.4587 73.08 8.86403 72.7867 7.42403 72.2001C5.98403 71.6027 4.7467 70.7761 3.71203 69.72C2.68803 68.664 1.89336 67.4161 1.32803 65.9761C0.762696 64.5254 0.480029 62.952 0.480029 61.2561C0.480029 59.5601 0.762696 57.9921 1.32803 56.552C1.89336 55.1014 2.68803 53.8481 3.71203 52.7921C4.7467 51.7361 5.98403 50.9147 7.42403 50.328C8.86403 49.7307 10.4587 49.4321 12.208 49.4321C13.3814 49.4321 14.4854 49.5707 15.52 49.848C16.5547 50.1147 17.504 50.4987 18.368 51C19.232 51.4907 20.0054 52.0934 20.688 52.8081C21.3814 53.5121 21.968 54.3014 22.448 55.176C22.928 56.0507 23.2907 57.0001 23.536 58.024C23.792 59.048 23.92 60.1254 23.92 61.2561ZM19.52 61.2561C19.52 59.9867 19.3494 58.8507 19.008 57.8481C18.6667 56.8347 18.1814 55.9761 17.552 55.272C16.9227 54.5681 16.1547 54.0294 15.248 53.6561C14.352 53.2827 13.3387 53.0961 12.208 53.0961C11.0774 53.0961 10.0587 53.2827 9.15203 53.6561C8.25603 54.0294 7.48803 54.5681 6.84803 55.272C6.2187 55.9761 5.73336 56.8347 5.39203 57.8481C5.0507 58.8507 4.88003 59.9867 4.88003 61.2561C4.88003 62.5254 5.0507 63.6667 5.39203 64.6801C5.73336 65.6827 6.2187 66.536 6.84803 67.2401C7.48803 67.9334 8.25603 68.4667 9.15203 68.84C10.0587 69.2134 11.0774 69.4 12.208 69.4C13.3387 69.4 14.352 69.2134 15.248 68.84C16.1547 68.4667 16.9227 67.9334 17.552 67.2401C18.1814 66.536 18.6667 65.6827 19.008 64.6801C19.3494 63.6667 19.52 62.5254 19.52 61.2561ZM32.0198 53.112L32.0198 59.9601L40.6918 59.9601L40.6918 63.4L32.0198 63.4L32.0198 72.8241L27.6998 72.8241L27.6998 49.688L42.2918 49.688L42.2918 53.112L32.0198 53.112ZM66.3768 69.272L66.3768 72.8241L52.8248 72.8241L52.8248 49.688L57.1288 49.688L57.1288 69.272L66.3768 69.272ZM78.1368 69.3521C78.9688 69.3521 79.7101 69.2134 80.3608 68.9361C81.0221 68.6587 81.5768 68.2694 82.0248 67.7681C82.4728 67.2667 82.8141 66.6587 83.0488 65.9441C83.2941 65.2294 83.4168 64.4294 83.4168 63.5441L83.4168 49.688L87.7208 49.688L87.7208 63.5441C87.7208 64.9201 87.4968 66.1947 87.0488 67.368C86.6115 68.5307 85.9768 69.5387 85.1448 70.3921C84.3234 71.2347 83.3208 71.896 82.1368 72.3761C80.9528 72.8454 79.6194 73.08 78.1368 73.08C76.6434 73.08 75.3048 72.8454 74.1208 72.3761C72.9368 71.896 71.9288 71.2347 71.0968 70.3921C70.2754 69.5387 69.6408 68.5307 69.1928 67.368C68.7554 66.1947 68.5368 64.9201 68.5368 63.5441L68.5368 49.688L72.8408 49.688L72.8408 63.5281C72.8408 64.4134 72.9581 65.2134 73.1928 65.928C73.4381 66.6427 73.7848 67.2561 74.2328 67.7681C74.6914 68.2694 75.2461 68.6587 75.8968 68.9361C76.5581 69.2134 77.3048 69.3521 78.1368 69.3521ZM111.375 72.8241L107.087 72.8241C106.788 72.8241 106.548 72.7494 106.367 72.6001C106.196 72.4507 106.057 72.2801 105.951 72.0881L100.591 63.2081C100.505 63.4747 100.404 63.704 100.287 63.896L95.1508 72.0881C95.0228 72.2694 94.8734 72.44 94.7028 72.6001C94.5428 72.7494 94.3294 72.8241 94.0628 72.8241L90.0468 72.8241L97.7268 60.9201L90.3508 49.688L94.6388 49.688C94.9374 49.688 95.1508 49.7307 95.2788 49.816C95.4174 49.8907 95.5454 50.0187 95.6628 50.2001L100.927 58.6801C101.033 58.4134 101.161 58.1467 101.311 57.8801L106.143 50.2801C106.26 50.0774 106.388 49.928 106.527 49.8321C106.665 49.736 106.841 49.688 107.055 49.688L111.167 49.688L103.727 60.744L111.375 72.8241ZM118.364 53.112L118.364 59.5281L126.46 59.5281L126.46 62.84L118.364 62.84L118.364 69.384L128.636 69.384L128.636 72.8241L114.044 72.8241L114.044 49.688L128.636 49.688L128.636 53.112L118.364 53.112ZM139.442 60.6961C140.252 60.6961 140.956 60.5947 141.554 60.3921C142.162 60.1894 142.658 59.912 143.042 59.5601C143.436 59.1974 143.73 58.7707 143.922 58.2801C144.114 57.7894 144.21 57.2507 144.21 56.664C144.21 55.4907 143.82 54.5894 143.042 53.9601C142.274 53.3307 141.095 53.0161 139.506 53.0161L136.754 53.0161L136.754 60.6961L139.442 60.6961ZM150.514 72.8241L146.626 72.8241C145.89 72.8241 145.356 72.536 145.026 71.9601L140.162 64.552C139.98 64.2747 139.778 64.0774 139.554 63.9601C139.34 63.8427 139.02 63.784 138.594 63.784L136.754 63.784L136.754 72.8241L132.45 72.8241L132.45 49.688L139.506 49.688C141.074 49.688 142.418 49.8534 143.538 50.1841C144.668 50.5041 145.591 50.9574 146.306 51.5441C147.031 52.1307 147.564 52.8347 147.906 53.6561C148.247 54.4667 148.418 55.3627 148.418 56.344C148.418 57.1227 148.3 57.8587 148.066 58.552C147.842 59.2454 147.511 59.8747 147.074 60.44C146.647 61.0054 146.114 61.5014 145.474 61.928C144.844 62.3547 144.124 62.6907 143.314 62.9361C143.591 63.0961 143.847 63.288 144.082 63.5121C144.316 63.7254 144.53 63.9814 144.722 64.2801L150.514 72.8241ZM157.332 72.8241L153.012 72.8241L153.012 49.688L157.332 49.688L157.332 72.8241ZM184.576 61.2561C184.576 62.952 184.294 64.5254 183.728 65.9761C183.174 67.4161 182.384 68.664 181.36 69.72C180.336 70.7761 179.104 71.6027 177.664 72.2001C176.224 72.7867 174.624 73.08 172.864 73.08C171.115 73.08 169.52 72.7867 168.08 72.2001C166.64 71.6027 165.403 70.7761 164.368 69.72C163.344 68.664 162.55 67.4161 161.984 65.9761C161.419 64.5254 161.136 62.952 161.136 61.2561C161.136 59.5601 161.419 57.9921 161.984 56.552C162.55 55.1014 163.344 53.8481 164.368 52.7921C165.403 51.7361 166.64 50.9147 168.08 50.328C169.52 49.7307 171.115 49.4321 172.864 49.4321C174.038 49.4321 175.142 49.5707 176.176 49.848C177.211 50.1147 178.16 50.4987 179.024 51C179.888 51.4907 180.662 52.0934 181.344 52.8081C182.038 53.5121 182.624 54.3014 183.104 55.176C183.584 56.0507 183.947 57.0001 184.192 58.024C184.448 59.048 184.576 60.1254 184.576 61.2561ZM180.176 61.2561C180.176 59.9867 180.006 58.8507 179.664 57.8481C179.323 56.8347 178.838 55.9761 178.208 55.272C177.579 54.5681 176.811 54.0294 175.904 53.6561C175.008 53.2827 173.995 53.0961 172.864 53.0961C171.734 53.0961 170.715 53.2827 169.808 53.6561C168.912 54.0294 168.144 54.5681 167.504 55.272C166.875 55.9761 166.39 56.8347 166.048 57.8481C165.707 58.8507 165.536 59.9867 165.536 61.2561C165.536 62.5254 165.707 63.6667 166.048 64.6801C166.39 65.6827 166.875 66.536 167.504 67.2401C168.144 67.9334 168.912 68.4667 169.808 68.84C170.715 69.2134 171.734 69.4 172.864 69.4C173.995 69.4 175.008 69.2134 175.904 68.84C176.811 68.4667 177.579 67.9334 178.208 67.2401C178.838 66.536 179.323 65.6827 179.664 64.6801C180.006 63.6667 180.176 62.5254 180.176 61.2561ZM197.668 69.3521C198.5 69.3521 199.241 69.2134 199.892 68.9361C200.553 68.6587 201.108 68.2694 201.556 67.7681C202.004 67.2667 202.345 66.6587 202.58 65.9441C202.825 65.2294 202.948 64.4294 202.948 63.5441L202.948 49.688L207.252 49.688L207.252 63.5441C207.252 64.9201 207.028 66.1947 206.58 67.368C206.143 68.5307 205.508 69.5387 204.676 70.3921C203.855 71.2347 202.852 71.896 201.668 72.3761C200.484 72.8454 199.151 73.08 197.668 73.08C196.175 73.08 194.836 72.8454 193.652 72.3761C192.468 71.896 191.46 71.2347 190.628 70.3921C189.807 69.5387 189.172 68.5307 188.724 67.368C188.287 66.1947 188.068 64.9201 188.068 63.5441L188.068 49.688L192.372 49.688L192.372 63.5281C192.372 64.4134 192.489 65.2134 192.724 65.928C192.969 66.6427 193.316 67.2561 193.764 67.7681C194.223 68.2694 194.777 68.6587 195.428 68.9361C196.089 69.2134 196.836 69.3521 197.668 69.3521ZM224.426 53.896C224.298 54.12 224.159 54.2854 224.01 54.3921C223.871 54.4881 223.695 54.536 223.482 54.536C223.258 54.536 223.013 54.4561 222.746 54.2961C222.49 54.1254 222.181 53.9387 221.818 53.7361C221.455 53.5334 221.029 53.3521 220.538 53.192C220.058 53.0214 219.487 52.9361 218.826 52.9361C218.229 52.9361 217.706 53.0107 217.258 53.16C216.81 53.2987 216.431 53.496 216.122 53.7521C215.823 54.008 215.599 54.3174 215.45 54.6801C215.301 55.0321 215.226 55.4214 215.226 55.8481C215.226 56.3921 215.375 56.8454 215.674 57.2081C215.983 57.5707 216.389 57.8801 216.89 58.136C217.391 58.3921 217.962 58.6214 218.602 58.8241C219.242 59.0267 219.898 59.2454 220.57 59.48C221.242 59.704 221.898 59.9707 222.538 60.2801C223.178 60.5787 223.749 60.9627 224.25 61.4321C224.751 61.8907 225.151 62.4561 225.45 63.1281C225.759 63.8 225.914 64.6161 225.914 65.576C225.914 66.6214 225.733 67.6027 225.37 68.5201C225.018 69.4267 224.495 70.2214 223.802 70.9041C223.119 71.576 222.282 72.1094 221.29 72.5041C220.298 72.8881 219.162 73.08 217.882 73.08C217.146 73.08 216.421 73.0054 215.706 72.856C214.991 72.7174 214.303 72.5147 213.642 72.2481C212.991 71.9814 212.378 71.6614 211.802 71.288C211.226 70.9147 210.714 70.4987 210.266 70.0401L211.53 67.9761C211.637 67.8267 211.775 67.704 211.946 67.608C212.117 67.5014 212.298 67.4481 212.49 67.4481C212.757 67.4481 213.045 67.5601 213.354 67.784C213.663 67.9974 214.031 68.2374 214.458 68.5041C214.885 68.7707 215.381 69.0161 215.946 69.2401C216.522 69.4534 217.21 69.5601 218.01 69.5601C219.237 69.5601 220.186 69.272 220.858 68.6961C221.53 68.1094 221.866 67.272 221.866 66.1841C221.866 65.576 221.711 65.08 221.402 64.6961C221.103 64.312 220.703 63.9921 220.202 63.7361C219.701 63.4694 219.13 63.2454 218.49 63.064C217.85 62.8827 217.199 62.6854 216.538 62.4721C215.877 62.2587 215.226 62.0027 214.586 61.704C213.946 61.4054 213.375 61.0161 212.874 60.536C212.373 60.0561 211.967 59.4587 211.658 58.744C211.359 58.0187 211.21 57.1281 211.21 56.0721C211.21 55.2294 211.375 54.4081 211.706 53.608C212.047 52.8081 212.538 52.0987 213.178 51.48C213.818 50.8614 214.607 50.3654 215.546 49.9921C216.485 49.6187 217.562 49.4321 218.778 49.4321C220.143 49.4321 221.402 49.6454 222.554 50.0721C223.706 50.4987 224.687 51.0961 225.498 51.8641L224.426 53.896Z" fill="#222222" fill-opacity="1.000000" fill-rule="evenodd"/>
	<path id="THE BRAND OF LUXERIOUS FASHION" d="M241.77 53.112L241.77 59.9601L250.442 59.9601L250.442 63.4L241.77 63.4L241.77 72.8241L237.45 72.8241L237.45 49.688L252.042 49.688L252.042 53.112L241.77 53.112ZM265.893 64.0881L263.077 56.3921C262.938 56.0507 262.794 55.6454 262.645 55.176C262.495 54.7067 262.346 54.2001 262.197 53.6561C262.058 54.2001 261.914 54.7121 261.765 55.192C261.615 55.6614 261.471 56.0721 261.333 56.424L258.533 64.0881L265.893 64.0881ZM273.493 72.8241L270.165 72.8241C269.791 72.8241 269.487 72.7334 269.253 72.552C269.018 72.3601 268.842 72.1254 268.725 71.8481L266.997 67.1281L257.413 67.1281L255.685 71.8481C255.599 72.0934 255.434 72.3174 255.189 72.5201C254.943 72.7227 254.639 72.8241 254.277 72.8241L250.917 72.8241L260.021 49.688L264.405 49.688L273.493 72.8241ZM288.207 53.896C288.079 54.12 287.941 54.2854 287.791 54.3921C287.653 54.4881 287.477 54.536 287.263 54.536C287.039 54.536 286.794 54.4561 286.527 54.2961C286.271 54.1254 285.962 53.9387 285.599 53.7361C285.237 53.5334 284.81 53.3521 284.319 53.192C283.839 53.0214 283.269 52.9361 282.607 52.9361C282.01 52.9361 281.487 53.0107 281.039 53.16C280.591 53.2987 280.213 53.496 279.903 53.7521C279.605 54.008 279.381 54.3174 279.231 54.6801C279.082 55.0321 279.007 55.4214 279.007 55.8481C279.007 56.3921 279.157 56.8454 279.455 57.2081C279.765 57.5707 280.17 57.8801 280.671 58.136C281.173 58.3921 281.743 58.6214 282.383 58.8241C283.023 59.0267 283.679 59.2454 284.351 59.48C285.023 59.704 285.679 59.9707 286.319 60.2801C286.959 60.5787 287.53 60.9627 288.031 61.4321C288.533 61.8907 288.933 62.4561 289.231 63.1281C289.541 63.8 289.695 64.6161 289.695 65.576C289.695 66.6214 289.514 67.6027 289.151 68.5201C288.799 69.4267 288.277 70.2214 287.583 70.9041C286.901 71.576 286.063 72.1094 285.071 72.5041C284.079 72.8881 282.943 73.08 281.663 73.08C280.927 73.08 280.202 73.0054 279.487 72.856C278.773 72.7174 278.085 72.5147 277.423 72.2481C276.773 71.9814 276.159 71.6614 275.583 71.288C275.007 70.9147 274.495 70.4987 274.047 70.0401L275.311 67.9761C275.418 67.8267 275.557 67.704 275.727 67.608C275.898 67.5014 276.079 67.4481 276.271 67.4481C276.538 67.4481 276.826 67.5601 277.135 67.784C277.445 67.9974 277.813 68.2374 278.239 68.5041C278.666 68.7707 279.162 69.0161 279.727 69.2401C280.303 69.4534 280.991 69.5601 281.791 69.5601C283.018 69.5601 283.967 69.272 284.639 68.6961C285.311 68.1094 285.647 67.272 285.647 66.1841C285.647 65.576 285.493 65.08 285.183 64.6961C284.885 64.312 284.485 63.9921 283.983 63.7361C283.482 63.4694 282.911 63.2454 282.271 63.064C281.631 62.8827 280.981 62.6854 280.319 62.4721C279.658 62.2587 279.007 62.0027 278.367 61.704C277.727 61.4054 277.157 61.0161 276.655 60.536C276.154 60.0561 275.749 59.4587 275.439 58.744C275.141 58.0187 274.991 57.1281 274.991 56.0721C274.991 55.2294 275.157 54.4081 275.487 53.608C275.829 52.8081 276.319 52.0987 276.959 51.48C277.599 50.8614 278.389 50.3654 279.327 49.9921C280.266 49.6187 281.343 49.4321 282.559 49.4321C283.925 49.4321 285.183 49.6454 286.335 50.0721C287.487 50.4987 288.469 51.0961 289.279 51.8641L288.207 53.896ZM312.954 49.688L312.954 72.8241L308.634 72.8241L308.634 62.7121L297.77 62.7121L297.77 72.8241L293.45 72.8241L293.45 49.688L297.77 49.688L297.77 59.6401L308.634 59.6401L308.634 49.688L312.954 49.688ZM322.426 72.8241L318.106 72.8241L318.106 49.688L322.426 49.688L322.426 72.8241ZM349.67 61.2561C349.67 62.952 349.387 64.5254 348.822 65.9761C348.267 67.4161 347.478 68.664 346.454 69.72C345.43 70.7761 344.198 71.6027 342.758 72.2001C341.318 72.7867 339.718 73.08 337.958 73.08C336.209 73.08 334.614 72.7867 333.174 72.2001C331.734 71.6027 330.497 70.7761 329.462 69.72C328.438 68.664 327.643 67.4161 327.078 65.9761C326.513 64.5254 326.23 62.952 326.23 61.2561C326.23 59.5601 326.513 57.9921 327.078 56.552C327.643 55.1014 328.438 53.8481 329.462 52.7921C330.497 51.7361 331.734 50.9147 333.174 50.328C334.614 49.7307 336.209 49.4321 337.958 49.4321C339.131 49.4321 340.235 49.5707 341.27 49.848C342.305 50.1147 343.254 50.4987 344.118 51C344.982 51.4907 345.755 52.0934 346.438 52.8081C347.131 53.5121 347.718 54.3014 348.198 55.176C348.678 56.0507 349.041 57.0001 349.286 58.024C349.542 59.048 349.67 60.1254 349.67 61.2561ZM345.27 61.2561C345.27 59.9867 345.099 58.8507 344.758 57.8481C344.417 56.8347 343.931 55.9761 343.302 55.272C342.673 54.5681 341.905 54.0294 340.998 53.6561C340.102 53.2827 339.089 53.0961 337.958 53.0961C336.827 53.0961 335.809 53.2827 334.902 53.6561C334.006 54.0294 333.238 54.5681 332.598 55.272C331.969 55.9761 331.483 56.8347 331.142 57.8481C330.801 58.8507 330.63 59.9867 330.63 61.2561C330.63 62.5254 330.801 63.6667 331.142 64.6801C331.483 65.6827 331.969 66.536 332.598 67.2401C333.238 67.9334 334.006 68.4667 334.902 68.84C335.809 69.2134 336.827 69.4 337.958 69.4C339.089 69.4 340.102 69.2134 340.998 68.84C341.905 68.4667 342.673 67.9334 343.302 67.2401C343.931 66.536 344.417 65.6827 344.758 64.6801C345.099 63.6667 345.27 62.5254 345.27 61.2561ZM372.954 49.688L372.954 72.8241L370.746 72.8241C370.404 72.8241 370.116 72.7707 369.882 72.664C369.658 72.5467 369.439 72.3547 369.226 72.0881L357.146 56.664C357.21 57.368 357.242 58.0187 357.242 58.6161L357.242 72.8241L353.45 72.8241L353.45 49.688L355.706 49.688C355.887 49.688 356.042 49.6987 356.17 49.72C356.308 49.7307 356.426 49.7627 356.522 49.816C356.628 49.8587 356.73 49.9281 356.826 50.024C356.922 50.1094 357.028 50.2267 357.146 50.376L369.274 65.8641C369.242 65.4907 369.215 65.1227 369.194 64.76C369.172 64.3974 369.162 64.0614 369.162 63.7521L369.162 49.688L372.954 49.688Z" fill="#F16D7F" fill-opacity="1.000000" fill-rule="evenodd"/>
</svg>
