<svg width="15.892334" height="12.994934" viewBox="0 0 15.8923 12.9949" fill="none" xmlns="http://www.w3.org/2000/svg" xmlns:xlink="http://www.w3.org/1999/xlink">
	<desc>
			Created with Pixso.
	</desc>
	<defs/>
	<path id="Vector" d="M14.2588 3.23859C14.2688 3.38068 14.2688 3.52283 14.2688 3.66498C14.2688 7.99994 10.9916 12.9949 5.00171 12.9949C3.15625 12.9949 1.44202 12.4568 0 11.5228C0.262207 11.5533 0.514282 11.5634 0.786499 11.5634C2.3092 11.5634 3.71094 11.0457 4.8302 10.1624C3.39832 10.132 2.19824 9.18781 1.78479 7.88831C1.98657 7.91876 2.18823 7.93909 2.40002 7.93909C2.69238 7.93909 2.98486 7.89844 3.25708 7.82739C1.76465 7.52283 0.645386 6.203 0.645386 4.60913L0.645386 4.56854C1.07898 4.81219 1.58313 4.96448 2.11755 4.98474C1.24023 4.39594 0.665527 3.39087 0.665527 2.25378C0.665527 1.64465 0.826782 1.0863 1.10925 0.598999C2.71252 2.58881 5.12268 3.88831 7.82507 4.03046C7.77478 3.7868 7.74451 3.53302 7.74451 3.27917C7.74451 1.47205 9.19653 0 11.0016 0C11.9395 0 12.7865 0.395935 13.3815 1.03552C14.1176 0.893433 14.8234 0.619263 15.4486 0.243652C15.2065 1.00507 14.6923 1.64471 14.0167 2.05072C14.6721 1.97974 15.3075 1.79694 15.8923 1.54315C15.4487 2.19287 14.894 2.77155 14.2588 3.23859Z" fill="#000000" fill-opacity="1.000000" fill-rule="nonzero"/>
</svg>
